<?xml version="1.0" standalone="no"?>
<!DOCTYPE svg PUBLIC "-//W3C//DTD SVG 1.1//EN" "http://www.w3.org/Graphics/SVG/1.1/DTD/svg11.dtd" >
<svg xmlns="http://www.w3.org/2000/svg" xmlns:xlink="http://www.w3.org/1999/xlink" version="1.1">
<metadata>
Created by FontForge 20170731 at Wed Sep 14 19:42:26 2022
 By Aleksey,,,
Copyright (c) 2018 Paratype, Inc., ParaType Ltd. All rights reserved.
</metadata>
<defs>
<font id="PTRootUI-Medium" horiz-adv-x="590" >
  <font-face 
    font-family="PT Root UI Medium"
    font-weight="500"
    font-stretch="normal"
    units-per-em="1000"
    panose-1="2 11 5 3 2 2 2 2 2 4"
    ascent="800"
    descent="-200"
    x-height="500"
    cap-height="700"
    bbox="-400 -267 2500 990"
    underline-thickness="50"
    underline-position="-150"
    unicode-range="U+000D-FEFF"
  />
<missing-glyph horiz-adv-x="650" 
d="M75 700h500v-700h-500v700zM326 426l118 202h-235zM499 129v445l-130 -222zM151 126l130 222l-130 223v-445zM441 72l-117 202l-118 -202h235z" />
    <glyph glyph-name="IJ" unicode="IJ" horiz-adv-x="800" 
d="M88 700h94v-700h-94v700zM505 -8q-98 0 -155 58t-65 170h94q8 -77 38.5 -109.5t87.5 -32.5q46 0 71.5 18.5t37.5 45t14.5 56t2.5 52.5v450h94v-455q0 -13 -1 -36.5t-7.5 -51.5t-20 -57.5t-38 -53.5t-62 -39t-91.5 -15z" />
    <glyph glyph-name="ij" unicode="ij" horiz-adv-x="492" 
d="M83 500h90v-500h-90v500zM219 -118h23q28 0 44 10t23 25t8.5 33t1.5 35v515h90v-520q0 -26 -3 -57.5t-18.5 -58.5t-49.5 -45.5t-96 -18.5h-23v82zM364 575q-26 0 -43 17t-17 43t17 43t43 17t43 -17t17 -43t-17 -43t-43 -17zM128 575q-26 0 -43 17t-17 43t17 43t43 17
t43 -17t17 -43t-17 -43t-43 -17z" />
    <glyph glyph-name="uni0410.var.accented" unicode="&#x410;`" horiz-adv-x="660" 
d="M275 700h110l255 -700h-102l-66 192h-289l-67 -192h-96zM442 278l-112 327h-2l-115 -327h229zM392 915h112l-138 -150h-92z" />
    <glyph glyph-name="uni0415.var.accented" unicode="&#x415;`" horiz-adv-x="560" 
d="M80 700h435v-86h-341v-211h281v-86h-281v-231h341v-86h-435v700zM360 915h112l-138 -150h-92z" />
    <glyph glyph-name="uni0418.var.accented" unicode="&#x418;`" horiz-adv-x="710" 
d="M80 700h94v-590h2l322 590h132v-700h-94v590h-2l-322 -590h-132v700zM417 915h112l-138 -150h-92z" />
    <glyph glyph-name="uni041E.var.accented" unicode="&#x41e;`" horiz-adv-x="710" 
d="M355 -8q-68 0 -123 22t-94.5 65t-61 106.5t-21.5 145.5v48q0 78 21.5 139t61 103.5t95 64.5t122.5 22t122.5 -22t95 -64t61 -103.5t21.5 -139.5v-48q0 -82 -21.5 -145t-61 -106t-95 -65.5t-122.5 -22.5zM355 78q90 0 146 62.5t56 190.5v48q0 60 -15 105.5t-41.5 76
t-63.5 46t-82 15.5t-82 -15t-64 -45.5t-41.5 -76t-14.5 -106.5v-48q0 -64 15 -111.5t42 -79t64 -47t81 -15.5zM417 915h112l-138 -150h-92z" />
    <glyph glyph-name="uni0423.var.accented" unicode="&#x423;`" horiz-adv-x="610" 
d="M272 200l-252 500h106l194 -395h2l168 395h100l-305 -700h-100zM370 915h112l-138 -150h-92z" />
    <glyph glyph-name="uni042B.var.accented" unicode="&#x42b;`" horiz-adv-x="830" 
d="M656 700h94v-700h-94v700zM80 700h94v-252h131q129 0 192 -59t63 -165q0 -107 -62.5 -165.5t-192.5 -58.5h-225v700zM300 86q86 0 124 35t38 103q0 69 -37.5 103.5t-124.5 34.5h-126v-276h126zM477 915h112l-138 -150h-92z" />
    <glyph glyph-name="uni042D.var.accented" unicode="&#x42d;`" horiz-adv-x="670" 
d="M320 -8q-60 0 -107.5 17t-82 47.5t-56.5 72t-29 91.5h100q15 -63 58.5 -102.5t116.5 -39.5q85 0 138.5 59t58.5 175h-282v86h282q-5 109 -58.5 166.5t-138.5 57.5q-36 0 -65.5 -10t-51 -28t-36.5 -42t-22 -52h-100q7 46 29 85.5t56.5 69t82 46.5t107.5 17q65 0 119.5 -22
t93.5 -64.5t60.5 -103.5t21.5 -139v-48q0 -82 -21.5 -145.5t-60.5 -106.5t-93 -65t-120 -22zM382 915h112l-138 -150h-92z" />
    <glyph glyph-name="uni042E.var.accented" unicode="&#x42e;`" horiz-adv-x="915" 
d="M80 700h94v-297h116q2 73 23.5 129.5t59 95.5t89 59.5t113.5 20.5q65 0 118 -21.5t90 -63t57 -102t20 -137.5v-48q0 -84 -20.5 -148.5t-58 -108t-90 -65.5t-116.5 -22q-63 0 -115 20.5t-89 61.5t-58.5 101.5t-22.5 141.5h-116v-317h-94v700zM575 78q42 0 76 14.5t59 46
t38.5 80.5t13.5 117v48q0 121 -51.5 179.5t-135.5 58.5q-85 0 -137 -58.5t-52 -179.5v-48q0 -67 14 -116t39 -80.5t59.5 -46.5t76.5 -15zM532 915h112l-138 -150h-92z" />
    <glyph glyph-name="uni042F.var.accented" unicode="&#x42f;`" horiz-adv-x="620" 
d="M446 0v274h-141h-6l-19 1l-146 -275h-104l160 290q-71 23 -105.5 74t-34.5 123q0 98 62.5 155.5t192.5 57.5h235v-700h-94zM446 360v254h-136q-86 0 -124 -33.5t-38 -93.5q0 -61 37.5 -94t124.5 -33h136zM402 915h112l-138 -150h-92z" />
    <glyph glyph-name="uni0401.var.accented" unicode="&#x401;`" horiz-adv-x="560" 
d="M80 700h435v-86h-341v-211h281v-86h-281v-231h341v-86h-435v700zM288 910h94l-90 -150h-80zM162 775q-26 0 -43 17t-17 43t17 43t43 17t43 -17t17 -43t-17 -43t-43 -17zM432 775q-26 0 -43 17t-17 43t17 43t43 17t43 -17t17 -43t-17 -43t-43 -17z" />
    <glyph glyph-name="uni0430.var.accented" unicode="&#x430;`" horiz-adv-x="530" 
d="M210 -8q-85 0 -127.5 40t-42.5 109q0 75 50.5 118.5t164.5 43.5h115v27q0 49 -25.5 72.5t-84.5 23.5q-54 0 -79 -18.5t-29 -47.5h-92q2 31 15.5 58t38.5 47t61.5 31.5t84.5 11.5q103 0 151.5 -46t48.5 -137v-325h-70l-11 75h-2q-61 -83 -167 -83zM220 74q31 0 58.5 10.5
t48 29t32 43t11.5 52.5v18h-110q-70 0 -98 -23.5t-28 -61.5q0 -30 21.5 -49t64.5 -19zM315 715h110l-130 -150h-90z" />
    <glyph glyph-name="uni0435.var.accented" unicode="&#x435;`" horiz-adv-x="540" 
d="M275 -8q-53 0 -95.5 16.5t-72.5 48t-46 76.5t-16 103v28q0 58 16 103.5t45.5 76.5t71 47.5t92.5 16.5t92.5 -16.5t71 -48.5t45.5 -78t16 -106v-36h-356q2 -71 36.5 -110t94.5 -39q48 0 79 18t47 58h94q-18 -78 -73.5 -118t-141.5 -40zM270 426q-57 0 -90 -33t-40 -96h261
q-12 129 -131 129zM325 715h110l-130 -150h-90z" />
    <glyph glyph-name="uni0438.var.accented" unicode="&#x438;`" horiz-adv-x="580" 
d="M75 500h90v-390h2l218 390h120v-500h-90v390h-2l-218 -390h-120v500zM345 715h110l-130 -150h-90z" />
    <glyph glyph-name="uni043E.var.accented" unicode="&#x43e;`" horiz-adv-x="550" 
d="M275 -8q-107 0 -168.5 63t-61.5 181v28q0 117 62 180.5t168 63.5q107 0 168.5 -63t61.5 -181v-28q0 -117 -62 -180.5t-168 -63.5zM275 74q63 0 99.5 39.5t36.5 122.5v28q0 82 -36.5 122t-99.5 40t-99.5 -39.5t-36.5 -122.5v-28q0 -82 36.5 -122t99.5 -40zM330 715h110
l-130 -150h-90z" />
    <glyph glyph-name="uni0443.var.accented" unicode="&#x443;`" horiz-adv-x="520" 
d="M219 0l-204 500h98l153 -390h2l145 390h92l-271 -700h-92zM318 715h110l-130 -150h-90z" />
    <glyph glyph-name="uni044B.var.accented" unicode="&#x44b;`" horiz-adv-x="710" 
d="M545 500h90v-500h-90v500zM75 500h90v-160h100q103 0 151.5 -45t48.5 -125q0 -79 -49 -124.5t-151 -45.5h-190v500zM165 258v-176h95q61 0 86 22t25 66q0 43 -25.5 65.5t-85.5 22.5h-95zM410 715h110l-130 -150h-90z" />
    <glyph glyph-name="uni044D.var.accented" unicode="&#x44d;`" horiz-adv-x="510" 
d="M245 -8q-47 0 -83.5 12.5t-63 35t-42 53t-21.5 67.5h94q11 -39 38 -62.5t78 -23.5q56 0 88.5 37t36.5 103h-185v82h185q-5 63 -37.5 96.5t-87.5 33.5q-50 0 -77.5 -22.5t-38.5 -53.5h-94q6 33 22 62t42.5 50t63 33.5t82.5 12.5q49 0 90 -16t69.5 -47t44.5 -75t16 -101
v-28q0 -60 -16 -106.5t-45 -78t-69.5 -48t-89.5 -16.5zM300 715h110l-130 -150h-90z" />
    <glyph glyph-name="uni044E.var.accented" unicode="&#x44e;`" horiz-adv-x="740" 
d="M75 500h90v-204h91q8 102 66.5 157t152.5 55q101 0 160.5 -62.5t59.5 -181.5v-28q0 -118 -60 -181t-160 -63q-97 0 -156 57t-64 165h-90v-214h-90v500zM475 74q58 0 92 38.5t34 123.5v28q0 85 -34.5 123.5t-91.5 38.5q-59 0 -93 -38t-34 -119v-28q0 -88 34.5 -127.5
t92.5 -39.5zM440 715h110l-130 -150h-90z" />
    <glyph glyph-name="uni044F.var.accented" unicode="&#x44f;`" horiz-adv-x="504" 
d="M142 192q-48 19 -70 55t-22 89q0 78 49 121t161 43h170v-500h-90v174h-80h-16t-16 1l-98 -175h-100zM144 336q0 -39 26 -59.5t95 -20.5h75v162h-75q-70 0 -95.5 -20.5t-25.5 -61.5zM324 715h110l-130 -150h-90z" />
    <glyph glyph-name="uni0451.var.accented" unicode="&#x451;`" horiz-adv-x="540" 
d="M275 -8q-53 0 -95.5 16.5t-72.5 48t-46 76.5t-16 103v28q0 58 16 103.5t45.5 76.5t71 47.5t92.5 16.5t92.5 -16.5t71 -48.5t45.5 -78t16 -106v-36h-356q2 -71 36.5 -110t94.5 -39q48 0 79 18t47 58h94q-18 -78 -73.5 -118t-141.5 -40zM270 426q-57 0 -90 -33t-40 -96h261
q-12 129 -131 129zM319 810h100l-108 -120h-82zM175 565q-26 0 -43 17t-17 43t17 43t43 17t43 -17t17 -43t-17 -43t-43 -17zM365 565q-26 0 -43 17t-17 43t17 43t43 17t43 -17t17 -43t-17 -43t-43 -17z" />
    <glyph glyph-name="ff" unicode="ff" horiz-adv-x="650" 
d="M110 418h-90v82h90v53q0 72 37.5 109.5t109.5 37.5h63v-82h-51q-69 0 -69 -74v-44h225v53q0 72 37.5 109.5t109.5 37.5h83v-82h-71q-69 0 -69 -74v-44h120v-82h-120v-418h-90v418h-225v-418h-90v418z" />
    <glyph glyph-name="fi" unicode="fi" horiz-adv-x="585" 
d="M110 418h-90v82h90v53q0 72 37.5 109.5t109.5 37.5h158v-82h-146q-69 0 -69 -74v-44h310v-500h-90v418h-220v-418h-90v418z" />
    <glyph glyph-name="fl" unicode="fl" horiz-adv-x="630" 
d="M110 418h-90v82h90v53q0 72 37.5 109.5t109.5 37.5h248v-543q0 -75 69 -75h31v-82h-44q-71 0 -108.5 37.5t-37.5 109.5v471h-146q-69 0 -69 -74v-44h107v-82h-107v-418h-90v418z" />
    <glyph glyph-name="ffi" unicode="ffi" horiz-adv-x="900" 
d="M110 418h-90v82h90v53q0 72 37.5 109.5t109.5 37.5h63v-82h-51q-69 0 -69 -74v-44h225v53q0 69 36.5 108t110.5 39h158v-82h-146q-69 0 -69 -74v-44h310v-500h-90v418h-220v-418h-90v418h-225v-418h-90v418z" />
    <glyph glyph-name="ffl" unicode="ffl" horiz-adv-x="945" 
d="M110 418h-90v82h90v53q0 72 37.5 109.5t109.5 37.5h63v-82h-51q-69 0 -69 -74v-44h225v53q0 69 36.5 108t110.5 39h248v-543q0 -75 69 -75h31v-82h-44q-71 0 -108.5 37.5t-37.5 109.5v471h-146q-69 0 -69 -74v-44h107v-82h-107v-418h-90v418h-225v-418h-90v418z" />
    <glyph glyph-name=".notdef" horiz-adv-x="650" 
d="M75 700h500v-700h-500v700zM326 426l118 202h-235zM499 129v445l-130 -222zM151 126l130 222l-130 223v-445zM441 72l-117 202l-118 -202h235z" />
    <glyph glyph-name=".null" horiz-adv-x="0" 
 />
    <glyph glyph-name=".null" horiz-adv-x="0" 
 />
    <glyph glyph-name="uni000D" unicode="&#xd;" horiz-adv-x="300" 
 />
    <glyph glyph-name="space" unicode=" " horiz-adv-x="250" 
 />
    <glyph glyph-name="exclam" unicode="!" horiz-adv-x="300" 
d="M103 700h94v-500h-94v500zM150 -8q-31 0 -50.5 20.5t-19.5 49.5t19.5 49.5t50.5 20.5t50.5 -20.5t19.5 -49.5t-19.5 -49.5t-50.5 -20.5z" />
    <glyph glyph-name="quotedbl" unicode="&#x22;" horiz-adv-x="400" 
d="M253 700h94v-250h-94v250zM53 700h94v-250h-94v250z" />
    <glyph glyph-name="numbersign" unicode="#" 
d="M115 200h-100l16 80h98l29 160h-99l14 80h99l32 180h84l-32 -180h139l32 180h84l-32 -180h96l-14 -80h-96l-29 -160h96l-15 -80h-95l-36 -200h-84l36 200h-139l-36 -200h-84zM352 280l29 160h-139l-29 -160h139z" />
    <glyph glyph-name="dollar" unicode="$" horiz-adv-x="610" 
d="M263 -6q-103 9 -154.5 66t-58.5 165h100q6 -66 32.5 -99t80.5 -41v239q-38 10 -74.5 24t-65 35.5t-46 54t-17.5 80.5q0 74 51 126t152 62v94h84v-94q100 -9 148 -62.5t55 -148.5h-100q-7 54 -29.5 83t-73.5 37v-219q39 -11 77 -24.5t68.5 -36.5t49 -57.5t18.5 -86.5
q0 -80 -52.5 -134t-160.5 -63v-94h-84v94zM158 518q0 -41 30 -63t75 -36v196q-54 -8 -79.5 -34.5t-25.5 -62.5zM462 192q0 23 -9 40t-24.5 29.5t-36.5 22t-45 17.5v-216q60 8 87.5 38t27.5 69z" />
    <glyph glyph-name="percent" unicode="%" horiz-adv-x="900" 
d="M210 342q-38 0 -69.5 12t-54 34t-34.5 52t-12 66v38q0 36 12 66t34.5 52t54 34t69.5 12t69 -12t53.5 -34t35 -52t12.5 -66v-38q0 -36 -12.5 -66t-35 -52t-53.5 -34t-69 -12zM210 420q39 0 61.5 22t22.5 64v38q0 42 -22.5 64t-61.5 22t-61.5 -22t-22.5 -64v-38
q0 -42 22.5 -64t61.5 -22zM690 -8q-38 0 -69.5 12t-54 34t-34.5 52t-12 66v38q0 36 12 66t34.5 52t54 34t69.5 12t69 -12t53.5 -34t35 -52t12.5 -66v-38q0 -36 -12.5 -66t-35 -52t-53.5 -34t-69 -12zM690 70q39 0 61.5 22t22.5 64v38q0 42 -22.5 64t-61.5 22t-61.5 -22
t-22.5 -64v-38q0 -42 22.5 -64t61.5 -22zM604 700h96l-404 -700h-96z" />
    <glyph glyph-name="ampersand" unicode="&#x26;" horiz-adv-x="640" 
d="M466 67q-39 -36 -89 -55.5t-107 -19.5q-51 0 -92 14.5t-69.5 40.5t-43.5 61t-15 76q0 25 5 48.5t18.5 47.5t36 48.5t58.5 51.5q-27 30 -43 53t-25 43t-12 39t-3 40q0 33 12 61t34 48.5t53.5 32t70.5 11.5t70.5 -11.5t53.5 -32t34 -48.5t12 -61q0 -20 -5.5 -41.5
t-19 -44.5t-37.5 -47.5t-61 -51.5l151 -161q23 54 23 121h94q0 -57 -12.5 -105.5t-35.5 -87.5l128 -137h-120zM179 555q0 -15 2.5 -27.5t9.5 -26t19.5 -30t32.5 -38.5q29 21 46.5 38t26.5 31.5t12 27.5t3 25q0 28 -20.5 47.5t-55.5 19.5t-55.5 -19.5t-20.5 -47.5zM144 185
q0 -45 33.5 -76t92.5 -31q37 0 71 14.5t62 40.5l-177 186q-28 -21 -44 -39t-24.5 -34t-11 -31t-2.5 -30z" />
    <glyph glyph-name="quotesingle" unicode="'" horiz-adv-x="200" 
d="M53 700h94v-250h-94v250z" />
    <glyph glyph-name="parenleft" unicode="(" horiz-adv-x="400" 
d="M80 250q0 61 12.5 122.5t36 119.5t57 111t76.5 97h108q-101 -105 -148.5 -214t-47.5 -236t47.5 -236t148.5 -214h-112q-42 43 -75 95.5t-56 110.5t-35 120t-12 124z" />
    <glyph glyph-name="parenright" unicode=")" horiz-adv-x="400" 
d="M320 250q0 -62 -12.5 -123t-36 -119t-57 -111t-76.5 -97h-108q101 105 148.5 214t47.5 236t-47.5 236t-148.5 214h112q42 -44 75 -96t56 -110t35 -120t12 -124z" />
    <glyph glyph-name="asterisk" unicode="*" horiz-adv-x="390" 
d="M80 398l63 110h-123v60h123l-63 110l52 30l63 -110l63 110l52 -30l-63 -110h123v-60h-124l63 -110l-51 -30l-63 110l-63 -110z" />
    <glyph glyph-name="plus" unicode="+" 
d="M250 317h-180v86h180v184h90v-184h180v-86h-180v-184h-90v184z" />
    <glyph glyph-name="comma" unicode="," horiz-adv-x="300" 
d="M111 105h104l-70 -255h-80z" />
    <glyph glyph-name="hyphen" unicode="-" horiz-adv-x="450" 
d="M50 301h350v-82h-350v82z" />
    <glyph glyph-name="period" unicode="." horiz-adv-x="300" 
d="M150 -8q-30 0 -48.5 19t-18.5 48t18.5 48t48.5 19t48.5 -19t18.5 -48t-18.5 -48t-48.5 -19z" />
    <glyph glyph-name="slash" unicode="/" horiz-adv-x="450" 
d="M351 700h84l-336 -900h-84z" />
    <glyph glyph-name="zero" unicode="0" horiz-adv-x="610" 
d="M305 -8q-55 0 -99.5 18t-75.5 57.5t-48 102t-17 151.5v58q0 88 17 150.5t48.5 102t76 58t98.5 18.5q55 0 99.5 -18t75.5 -57.5t48 -102t17 -151.5v-58q0 -88 -17 -150.5t-48.5 -102t-76 -58t-98.5 -18.5zM305 82q33 0 59.5 11.5t44.5 39t28 73.5t10 115v58
q0 69 -10 114.5t-28.5 73.5t-45 39.5t-58.5 11.5q-33 0 -59.5 -11.5t-44.5 -39t-28 -73.5t-10 -115v-58q0 -69 10 -114.5t28.5 -73.5t45 -39.5t58.5 -11.5z" />
    <glyph glyph-name="one" unicode="1" horiz-adv-x="350" 
d="M166 596l-146 -99v102l146 101h94v-700h-94v596z" />
    <glyph glyph-name="two" unicode="2" horiz-adv-x="550" 
d="M40 86l239 231q64 63 93.5 103.5t29.5 78.5q0 53 -36 86t-96 33t-96 -33.5t-36 -89.5h-98q0 47 16.5 86t46.5 67.5t72.5 44t94.5 15.5t94.5 -15.5t72.5 -43.5t46.5 -66.5t16.5 -83.5q0 -56 -39 -113t-113 -126l-184 -174h336v-86h-460v86z" />
    <glyph glyph-name="three" unicode="3" horiz-adv-x="580" 
d="M285 -8q-112 0 -174.5 61t-65.5 172h98q8 -143 142 -143q71 0 106.5 32.5t35.5 86.5q0 52 -34.5 84t-98.5 32h-94v86h94q57 0 87.5 29.5t30.5 77.5q0 49 -32 78.5t-95 29.5q-57 0 -89.5 -31.5t-37.5 -91.5h-98q3 100 61.5 156.5t163.5 56.5q54 0 96 -14.5t70.5 -40
t43.5 -62t15 -79.5q0 -50 -22 -89t-65 -62q51 -24 76.5 -66t25.5 -96q0 -46 -15.5 -84t-46 -65.5t-75.5 -42.5t-103 -15z" />
    <glyph glyph-name="four" unicode="4" horiz-adv-x="565" 
d="M20 243l310 457h122v-457h88v-86h-88v-157h-94v157h-338v86zM358 243v352l-235 -352h235z" />
    <glyph glyph-name="five" unicode="5" horiz-adv-x="565" 
d="M285 -8q-91 0 -156 46t-84 134h98q17 -45 53 -67.5t89 -22.5q66 0 104 39t38 110q0 70 -38 109t-104 39q-45 0 -77.5 -18t-49.5 -44h-93l30 383h385v-86h-299l-15 -191q54 46 136 46q48 0 89 -17t71 -48.5t46.5 -75t16.5 -97.5t-17 -98.5t-48.5 -75.5t-75.5 -48t-99 -17z
" />
    <glyph glyph-name="six" unicode="6" horiz-adv-x="595" 
d="M305 -8q-54 0 -98.5 17t-76 53t-48.5 92.5t-17 136.5v58q0 98 17.5 166.5t50 111t77.5 62t100 19.5q42 0 76 -12.5t60 -34t43 -51.5t26 -65h-99q-11 30 -36 51.5t-70 21.5q-32 0 -59 -10.5t-46.5 -36t-31 -67.5t-14.5 -105q27 33 65.5 51t85.5 18q106 0 165.5 -60
t59.5 -169v-18q0 -52 -17.5 -94.5t-48.5 -72.5t-73 -46t-91 -16zM163 226q0 -71 40 -107.5t102 -36.5q61 0 96.5 37t35.5 102v18q0 66 -36 102.5t-97 36.5q-66 0 -103.5 -36t-37.5 -98v-18z" />
    <glyph glyph-name="seven" unicode="7" horiz-adv-x="480" 
d="M365 614h-350v86h450v-86l-253 -614h-102z" />
    <glyph glyph-name="eight" unicode="8" 
d="M295 -8q-59 0 -103.5 15t-75 41.5t-46 63.5t-15.5 81q0 61 31.5 104t83.5 68q-44 23 -69.5 61t-25.5 93q0 40 16 74.5t44.5 60t69 40t90.5 14.5q51 0 91.5 -14t69 -39t44 -60t15.5 -76q0 -54 -26.5 -92t-70.5 -61q53 -25 85 -68.5t32 -104.5q0 -43 -16 -79.5t-46.5 -63.5
t-75.5 -42.5t-102 -15.5zM295 403q22 3 44 10.5t39.5 21t28 34t10.5 49.5q0 19 -8 37t-23.5 32t-38.5 22.5t-52 8.5t-52 -8.5t-38.5 -22.5t-23.5 -32t-8 -37q0 -28 11.5 -48t29 -34t39 -22t42.5 -11zM295 82q34 0 60.5 9t44.5 24.5t27.5 36t9.5 42.5q0 30 -12 53t-31.5 39.5
t-45 26.5t-53.5 13q-29 -3 -55 -12.5t-45.5 -26t-30.5 -39.5t-11 -54q0 -23 9.5 -43t27.5 -35.5t44.5 -24.5t60.5 -9z" />
    <glyph glyph-name="nine" unicode="9" horiz-adv-x="595" 
d="M285 -8q-42 0 -76 12t-60 34t-43 52t-26 65h99q11 -30 36 -51.5t70 -21.5q32 0 59 10.5t46.5 36t31 67.5t14.5 105q-27 -33 -65.5 -51t-85.5 -18q-106 0 -165.5 60t-59.5 169v18q0 52 17.5 94.5t48.5 72.5t73 46t91 16q54 0 98 -17t75.5 -53t49 -92.5t17.5 -136.5v-58
q0 -98 -18 -166.5t-50 -111t-77 -62t-100 -19.5zM158 461q0 -66 36 -102.5t97 -36.5q66 0 103.5 36t37.5 98v18q0 71 -40 107.5t-102 36.5q-61 0 -96.5 -37t-35.5 -102v-18z" />
    <glyph glyph-name="colon" unicode=":" horiz-adv-x="300" 
d="M150 374q-30 0 -48.5 19t-18.5 48t18.5 48t48.5 19t48.5 -19t18.5 -48t-18.5 -48t-48.5 -19zM150 -8q-30 0 -48.5 19t-18.5 48t18.5 48t48.5 19t48.5 -19t18.5 -48t-18.5 -48t-48.5 -19z" />
    <glyph glyph-name="semicolon" unicode=";" horiz-adv-x="300" 
d="M104 105h104l-70 -255h-80zM150 368q-30 0 -48.5 19t-18.5 48t18.5 48t48.5 19t48.5 -19t18.5 -48t-18.5 -48t-48.5 -19z" />
    <glyph glyph-name="less" unicode="&#x3c;" 
d="M70 310v100l450 205v-96l-348 -157l348 -157v-100z" />
    <glyph glyph-name="equal" unicode="=" 
d="M70 503h450v-86h-450v86zM70 303h450v-86h-450v86z" />
    <glyph glyph-name="greater" unicode="&#x3e;" 
d="M520 410v-100l-450 -205v96l348 157l-348 157v100z" />
    <glyph glyph-name="question" unicode="?" horiz-adv-x="500" 
d="M198 204q0 53 12.5 87.5t31.5 58.5t40.5 41t40.5 34.5t31.5 39t12.5 55.5q0 43 -30 70.5t-87 27.5q-62 0 -92.5 -29t-34.5 -84h-98q2 45 18 82.5t44 64.5t68 41.5t90 14.5q53 0 94 -14t69 -38.5t42.5 -58t14.5 -72.5q0 -46 -13 -76t-32 -52t-41.5 -39.5t-41.5 -38
t-32 -47.5t-13 -68h-94zM245 -8q-31 0 -50.5 20.5t-19.5 49.5t19.5 49.5t50.5 20.5t50.5 -20.5t19.5 -49.5t-19.5 -49.5t-50.5 -20.5z" />
    <glyph glyph-name="at" unicode="@" horiz-adv-x="1050" 
d="M451 17q-71 0 -115.5 45.5t-44.5 126.5q0 16 3.5 37t7.5 44q8 46 28.5 85.5t50 67.5t66.5 44t79 16t74 -13.5t52 -43.5l9 49h90l-53 -301q-1 -6 -2 -11t-1 -11q0 -22 14.5 -35.5t40.5 -13.5q27 0 52.5 13t45.5 38.5t32.5 62.5t12.5 84q0 67 -26 125.5t-74 102t-116 68.5
t-152 25q-77 0 -144.5 -28.5t-117.5 -78.5t-79 -118t-29 -147q0 -78 29 -146t79 -118.5t117.5 -79t144.5 -28.5q69 0 126 11t104 30v-91q-37 -15 -99 -25.5t-131 -10.5q-96 0 -179.5 36t-146 98t-98.5 145.5t-36 178.5t36 178.5t98.5 145.5t146 98t179.5 36q103 0 188 -32.5
t145.5 -88t93.5 -129.5t33 -157q0 -69 -18 -122t-49.5 -89t-75 -54.5t-94.5 -18.5q-54 0 -88 21t-48 56q-29 -37 -70 -57t-91 -20zM480 104q53 0 89 35t47 91q5 26 8.5 47t3.5 32q0 40 -27 64t-72 24q-51 0 -86.5 -35t-46.5 -92q-6 -29 -8.5 -48.5t-2.5 -30.5
q0 -38 23.5 -62.5t71.5 -24.5z" />
    <glyph glyph-name="A" unicode="A" horiz-adv-x="660" 
d="M275 700h110l255 -700h-102l-66 192h-289l-67 -192h-96zM442 278l-112 327h-2l-115 -327h229z" />
    <glyph glyph-name="B" unicode="B" horiz-adv-x="620" 
d="M80 700h230q127 0 183.5 -49.5t56.5 -137.5q0 -101 -88 -148v-2q108 -44 108 -166q0 -95 -56.5 -146t-183.5 -51h-250v700zM174 614v-211h131q82 0 114.5 27t32.5 78t-32.5 78.5t-114.5 27.5h-131zM174 317v-231h151q82 0 114.5 28.5t32.5 87.5q0 58 -32.5 86.5
t-114.5 28.5h-151z" />
    <glyph glyph-name="C" unicode="C" horiz-adv-x="670" 
d="M350 -8q-66 0 -120 22t-93 65t-60.5 106.5t-21.5 145.5v48q0 78 21.5 139t60.5 103.5t93.5 64.5t119.5 22q60 0 107.5 -17t82 -46.5t56 -69t29.5 -85.5h-100q-8 28 -22.5 52t-36 42t-51 28t-65.5 10q-42 0 -78.5 -15.5t-62.5 -46.5t-41 -76t-15 -105v-48q0 -63 15 -110.5
t41.5 -79t62.5 -47.5t78 -16q73 0 116.5 39.5t58.5 102.5h100q-8 -50 -29.5 -91.5t-56 -72t-82 -47.5t-107.5 -17z" />
    <glyph glyph-name="D" unicode="D" horiz-adv-x="680" 
d="M80 700h225q155 0 237.5 -82.5t82.5 -237.5v-50q0 -161 -83 -245.5t-237 -84.5h-225v700zM300 86q112 0 169.5 59.5t57.5 184.5v50q0 116 -58 175t-169 59h-126v-528h126z" />
    <glyph glyph-name="E" unicode="E" horiz-adv-x="560" 
d="M80 700h435v-86h-341v-211h281v-86h-281v-231h341v-86h-435v700z" />
    <glyph glyph-name="F" unicode="F" horiz-adv-x="540" 
d="M80 700h435v-86h-341v-216h281v-86h-281v-312h-94v700z" />
    <glyph glyph-name="G" unicode="G" horiz-adv-x="690" 
d="M350 -8q-66 0 -120 22t-93 65t-60.5 106.5t-21.5 145.5v48q0 78 21.5 139t60.5 103.5t93.5 64.5t119.5 22q61 0 109.5 -17t84 -46.5t57 -69.5t29.5 -85h-100q-8 28 -22.5 52t-37 42t-52.5 28t-68 10q-42 0 -78.5 -15.5t-62.5 -46.5t-41 -76t-15 -105v-48q0 -63 15 -110.5
t41.5 -79t62.5 -47.5t78 -16q88 0 137 46t57 153h-194v86h285v-33q0 -86 -20 -149.5t-56.5 -105.5t-89.5 -62.5t-119 -20.5z" />
    <glyph glyph-name="H" unicode="H" horiz-adv-x="710" 
d="M80 700h94v-297h362v297h94v-700h-94v317h-362v-317h-94v700z" />
    <glyph glyph-name="I" unicode="I" horiz-adv-x="270" 
d="M88 700h94v-700h-94v700z" />
    <glyph glyph-name="J" unicode="J" horiz-adv-x="535" 
d="M240 -8q-98 0 -155 58t-65 170h94q8 -77 38.5 -109.5t87.5 -32.5q46 0 71.5 18.5t37.5 45t14.5 56t2.5 52.5v450h94v-455q0 -13 -1 -36.5t-7.5 -51.5t-20 -57.5t-38 -53.5t-62 -39t-91.5 -15z" />
    <glyph glyph-name="K" unicode="K" horiz-adv-x="635" 
d="M80 700h94v-367l300 367h116l-257 -310l277 -390h-118l-225 319l-93 -111v-208h-94v700z" />
    <glyph glyph-name="L" unicode="L" horiz-adv-x="515" 
d="M80 700h94v-614h321v-86h-415v700z" />
    <glyph glyph-name="M" unicode="M" horiz-adv-x="810" 
d="M80 700h140l187 -412h2l187 412h134v-700h-94v590h-2l-179 -395h-100l-179 395h-2v-590h-94v700z" />
    <glyph glyph-name="N" unicode="N" horiz-adv-x="710" 
d="M80 700h138l316 -576h2v576h94v-700h-130l-324 590h-2v-590h-94v700z" />
    <glyph glyph-name="O" unicode="O" horiz-adv-x="710" 
d="M355 -8q-68 0 -123 22t-94.5 65t-61 106.5t-21.5 145.5v48q0 78 21.5 139t61 103.5t95 64.5t122.5 22t122.5 -22t95 -64t61 -103.5t21.5 -139.5v-48q0 -82 -21.5 -145t-61 -106t-95 -65.5t-122.5 -22.5zM355 78q90 0 146 62.5t56 190.5v48q0 60 -15 105.5t-41.5 76
t-63.5 46t-82 15.5t-82 -15t-64 -45.5t-41.5 -76t-14.5 -106.5v-48q0 -64 15 -111.5t42 -79t64 -47t81 -15.5z" />
    <glyph glyph-name="P" unicode="P" horiz-adv-x="600" 
d="M80 700h235q130 0 192.5 -59t62.5 -165t-63 -165t-192 -59h-141v-252h-94v700zM174 614v-276h136q87 0 124.5 34.5t37.5 103.5q0 68 -38 103t-124 35h-136z" />
    <glyph glyph-name="Q" unicode="Q" horiz-adv-x="710" 
d="M494 21q-61 -29 -139 -29q-68 0 -123 22t-94.5 65t-61 106.5t-21.5 145.5v48q0 78 21.5 139t61 103.5t95 64.5t122.5 22t122.5 -22t95 -64t61 -103.5t21.5 -139.5v-48q0 -86 -23.5 -151t-67.5 -109l91 -121h-108zM355 78q48 0 84 16l-94 126h108l54 -72q24 32 37 77
t13 106v48q0 60 -15 105.5t-41.5 76t-63.5 46t-82 15.5t-82 -15t-64 -45.5t-41.5 -76t-14.5 -106.5v-48q0 -64 15 -111.5t42 -79t64 -47t81 -15.5z" />
    <glyph glyph-name="R" unicode="R" horiz-adv-x="620" 
d="M80 700h235q130 0 192.5 -57.5t62.5 -155.5q0 -70 -32.5 -120t-99.5 -74l152 -293h-106l-138 275q-8 -1 -15.5 -1h-15.5h-141v-274h-94v700zM310 360q87 0 124.5 33t37.5 94q0 60 -38 93.5t-124 33.5h-136v-254h136z" />
    <glyph glyph-name="S" unicode="S" horiz-adv-x="610" 
d="M315 -8q-128 0 -192.5 60t-72.5 168h100q8 -71 46 -106.5t119 -35.5q77 0 112 30.5t35 79.5q0 32 -17.5 52.5t-45.5 34t-64 23.5t-74 20.5t-74 24.5t-64 36.5t-45.5 56t-17.5 82.5q0 40 15.5 75t45.5 60.5t75 40t104 14.5q124 0 185.5 -57.5t69.5 -160.5h-100
q-4 34 -14 59t-28 41.5t-46 24t-67 7.5q-75 0 -108.5 -29.5t-33.5 -74.5q0 -33 17.5 -54t45.5 -35t64 -23.5t74 -19.5t74 -23.5t64 -36t45.5 -56t17.5 -83.5q0 -43 -15 -79t-45.5 -61.5t-76.5 -40t-108 -14.5z" />
    <glyph glyph-name="T" unicode="T" horiz-adv-x="580" 
d="M243 614h-223v86h540v-86h-223v-614h-94v614z" />
    <glyph glyph-name="U" unicode="U" horiz-adv-x="690" 
d="M345 -8q-62 0 -112 19t-85 55.5t-54 89t-19 119.5v425h94v-420q0 -100 48 -151t128 -51q81 0 128.5 50.5t47.5 151.5v420h94v-425q0 -66 -19 -118.5t-54.5 -89t-85.5 -56t-111 -19.5z" />
    <glyph glyph-name="V" unicode="V" horiz-adv-x="660" 
d="M20 700h102l218 -590h2l202 590h96l-245 -700h-110z" />
    <glyph glyph-name="W" unicode="W" horiz-adv-x="970" 
d="M30 700h98l153 -590h2l140 590h124l154 -590h2l145 590h92l-178 -700h-124l-154 590h-2l-140 -590h-124z" />
    <glyph glyph-name="X" unicode="X" horiz-adv-x="650" 
d="M266 365l-221 335h114l167 -260l169 260h110l-221 -333l241 -367h-116l-185 290l-187 -290h-112z" />
    <glyph glyph-name="Y" unicode="Y" horiz-adv-x="650" 
d="M288 245l-268 455h108l209 -353l191 353h102l-248 -455v-245h-94v245z" />
    <glyph glyph-name="Z" unicode="Z" horiz-adv-x="585" 
d="M45 86l388 526v2h-378v86h490v-86l-388 -526v-2h388v-86h-500v86z" />
    <glyph glyph-name="bracketleft" unicode="[" horiz-adv-x="400" 
d="M110 700h250v-82h-160v-736h160v-82h-250v900z" />
    <glyph glyph-name="backslash" unicode="\" horiz-adv-x="450" 
d="M15 700h90l330 -900h-90z" />
    <glyph glyph-name="bracketright" unicode="]" horiz-adv-x="400" 
d="M290 -200h-250v82h160v736h-160v82h250v-900z" />
    <glyph glyph-name="asciicircum" unicode="^" 
d="M235 700h110l175 -300h-102l-128 230l-122 -230h-98z" />
    <glyph glyph-name="underscore" unicode="_" 
d="M0 -57h590v-86h-590v86z" />
    <glyph glyph-name="grave" unicode="`" horiz-adv-x="250" 
d="M15 715h112l108 -150h-92z" />
    <glyph glyph-name="a" unicode="a" horiz-adv-x="530" 
d="M210 -8q-85 0 -127.5 40t-42.5 109q0 75 50.5 118.5t164.5 43.5h115v27q0 49 -25.5 72.5t-84.5 23.5q-54 0 -79 -18.5t-29 -47.5h-92q2 31 15.5 58t38.5 47t61.5 31.5t84.5 11.5q103 0 151.5 -46t48.5 -137v-325h-70l-11 75h-2q-61 -83 -167 -83zM220 74q31 0 58.5 10.5
t48 29t32 43t11.5 52.5v18h-110q-70 0 -98 -23.5t-28 -61.5q0 -30 21.5 -49t64.5 -19z" />
    <glyph glyph-name="b" unicode="b" horiz-adv-x="570" 
d="M75 700h90v-260h2q32 36 68.5 52t87.5 16q45 0 82 -15.5t64 -46t41.5 -76t14.5 -106.5v-28q0 -60 -15 -105.5t-42.5 -76.5t-65.5 -46.5t-84 -15.5q-50 0 -88 18t-73 60h-2l-10 -70h-70v700zM298 74q61 0 97 39.5t36 122.5v28q0 81 -36.5 121.5t-96.5 40.5
q-61 0 -97 -39.5t-36 -122.5v-28q0 -81 36.5 -121.5t96.5 -40.5z" />
    <glyph glyph-name="c" unicode="c" horiz-adv-x="505" 
d="M265 -8q-101 0 -160.5 63t-59.5 186v28q0 57 16 101t44.5 75t69 47t90.5 16q47 0 83.5 -12.5t62.5 -33.5t42 -50t22 -62h-94q-11 32 -37.5 54t-73.5 22q-60 0 -95.5 -38.5t-35.5 -118.5v-28q0 -87 35.5 -127t95.5 -40q47 0 73.5 23.5t37.5 62.5h94q-6 -37 -22 -67.5
t-42 -53t-62.5 -35t-83.5 -12.5z" />
    <glyph glyph-name="d" unicode="d" horiz-adv-x="570" 
d="M247 -8q-90 0 -146 61t-56 183v28q0 60 15 105.5t42 76.5t64 46.5t81 15.5q97 0 156 -68h2v260h90v-700h-70q-1 5 -2.5 15t-3 20.5t-2.5 20t-2 14.5h-2q-57 -78 -166 -78zM272 74q61 0 97 39.5t36 122.5v28q0 81 -36.5 121.5t-96.5 40.5q-61 0 -97 -39.5t-36 -122.5v-28
q0 -81 36.5 -121.5t96.5 -40.5z" />
    <glyph glyph-name="e" unicode="e" horiz-adv-x="540" 
d="M275 -8q-53 0 -95.5 16.5t-72.5 48t-46 76.5t-16 103v28q0 58 16 103.5t45.5 76.5t71 47.5t92.5 16.5t92.5 -16.5t71 -48.5t45.5 -78t16 -106v-36h-356q2 -71 36.5 -110t94.5 -39q48 0 79 18t47 58h94q-18 -78 -73.5 -118t-141.5 -40zM270 426q-57 0 -90 -33t-40 -96h261
q-12 129 -131 129z" />
    <glyph glyph-name="f" unicode="f" horiz-adv-x="335" 
d="M110 418h-90v82h90v50q0 74 38.5 112t116.5 38h75v-82h-65q-39 0 -57 -18t-18 -60v-40h120v-82h-120v-418h-90v418z" />
    <glyph glyph-name="g" unicode="g" horiz-adv-x="570" 
d="M247 12q-45 0 -82 15t-64 45t-41.5 73.5t-14.5 100.5v28q0 56 15 99.5t42 73.5t64 45.5t81 15.5q54 0 92.5 -18t73.5 -60h2l10 70h70v-505q0 -98 -53.5 -150.5t-158.5 -52.5q-100 0 -147.5 42.5t-55.5 115.5h94q8 -36 31.5 -56t77.5 -20q65 0 93.5 29t28.5 97v80h-2
q-32 -36 -68.5 -52t-87.5 -16zM272 94q61 0 97 38.5t36 113.5v28q0 74 -36.5 113t-96.5 39q-61 0 -97 -38.5t-36 -113.5v-28q0 -74 36.5 -113t96.5 -39z" />
    <glyph glyph-name="h" unicode="h" horiz-adv-x="575" 
d="M75 700h90v-260h2q57 68 146 68q90 0 141 -53t51 -155v-300h-90v295q0 67 -30.5 99t-89.5 32t-94.5 -35.5t-35.5 -95.5v-295h-90v700z" />
    <glyph glyph-name="i" unicode="i" horiz-adv-x="256" 
d="M83 500h90v-500h-90v500zM128 575q-26 0 -43 17t-17 43t17 43t43 17t43 -17t17 -43t-17 -43t-43 -17z" />
    <glyph glyph-name="j" unicode="j" horiz-adv-x="256" 
d="M-17 -118h23q28 0 44 10t23 25t8.5 33t1.5 35v515h90v-520q0 -26 -3 -57.5t-18.5 -58.5t-49.5 -45.5t-96 -18.5h-23v82zM128 575q-26 0 -43 17t-17 43t17 43t43 17t43 -17t17 -43t-17 -43t-43 -17z" />
    <glyph glyph-name="k" unicode="k" horiz-adv-x="510" 
d="M75 700h90v-457l204 257h106l-174 -219l194 -281h-108l-144 213l-78 -97v-116h-90v700z" />
    <glyph glyph-name="l" unicode="l" horiz-adv-x="290" 
d="M221 0q-54 0 -84 19t-43.5 44t-16 49t-2.5 35v553h90v-543q0 -75 69 -75h31v-82h-44v0z" />
    <glyph glyph-name="m" unicode="m" horiz-adv-x="875" 
d="M75 500h70l10 -70h2q57 78 148 78q51 0 91 -23t63 -68q26 43 69 67t97 24q39 0 72 -14t57 -41t37.5 -66.5t13.5 -91.5v-295h-90v295q0 67 -29.5 99t-80.5 32q-26 0 -47.5 -9.5t-38 -26.5t-25.5 -41t-9 -54v-295h-90v295q0 67 -29.5 99t-80.5 32t-85.5 -35t-34.5 -96v-295
h-90v500z" />
    <glyph glyph-name="n" unicode="n" horiz-adv-x="575" 
d="M75 500h70l9 -65h2q32 38 69.5 55.5t87.5 17.5q90 0 141 -53t51 -155v-300h-90v295q0 67 -30.5 99t-89.5 32t-94.5 -35.5t-35.5 -95.5v-295h-90v500z" />
    <glyph glyph-name="o" unicode="o" horiz-adv-x="550" 
d="M275 -8q-107 0 -168.5 63t-61.5 181v28q0 117 62 180.5t168 63.5q107 0 168.5 -63t61.5 -181v-28q0 -117 -62 -180.5t-168 -63.5zM275 74q63 0 99.5 39.5t36.5 122.5v28q0 82 -36.5 122t-99.5 40t-99.5 -39.5t-36.5 -122.5v-28q0 -82 36.5 -122t99.5 -40z" />
    <glyph glyph-name="p" unicode="p" horiz-adv-x="570" 
d="M75 500h70l10 -70h2q35 42 73.5 60t92.5 18q45 0 82 -15.5t64 -46t41.5 -76t14.5 -106.5v-28q0 -60 -15 -105.5t-42 -76.5t-64 -46.5t-81 -15.5q-51 0 -87.5 16t-68.5 52h-2v-260h-90v700zM298 74q61 0 97 39.5t36 122.5v28q0 81 -36.5 121.5t-96.5 40.5q-61 0 -97 -39.5
t-36 -122.5v-28q0 -81 36.5 -121.5t96.5 -40.5z" />
    <glyph glyph-name="q" unicode="q" horiz-adv-x="570" 
d="M247 -8q-90 0 -146 61t-56 183v28q0 60 15 105.5t42 76.5t64 46.5t81 15.5q54 0 92.5 -18t73.5 -60h2l10 70h70v-700h-90v260h-2q-32 -36 -68.5 -52t-87.5 -16zM272 74q61 0 97 39.5t36 122.5v28q0 81 -36.5 121.5t-96.5 40.5q-61 0 -97 -39.5t-36 -122.5v-28
q0 -81 36.5 -121.5t96.5 -40.5z" />
    <glyph glyph-name="r" unicode="r" horiz-adv-x="375" 
d="M75 500h70l10 -70h2q29 42 66 60t90 18h47v-82h-55q-68 0 -104 -35t-36 -96v-295h-90v500z" />
    <glyph glyph-name="s" unicode="s" horiz-adv-x="490" 
d="M255 -8q-104 0 -153.5 42.5t-56.5 115.5h94q8 -36 31.5 -56t79.5 -20q57 0 79 17.5t22 45.5q0 29 -22 44.5t-55 25.5t-71 19t-71 25t-55 43t-22 74q0 30 11.5 55.5t34.5 44t57.5 29.5t81.5 11q98 0 145 -41t55 -107h-94q-4 15 -11 27t-19 21t-30.5 13.5t-45.5 4.5
q-50 0 -70.5 -16.5t-20.5 -41.5q0 -27 22 -41t55 -23t71 -18t71 -25.5t55 -45.5t22 -78q0 -31 -11.5 -57.5t-35 -46t-59.5 -30.5t-84 -11z" />
    <glyph glyph-name="t" unicode="t" horiz-adv-x="360" 
d="M252 0q-55 0 -84.5 19t-43.5 44t-16.5 49.5t-2.5 34.5v271h-90v82h90v140h90v-140h130v-82h-130v-261q0 -75 70 -75h70v-82h-83v0z" />
    <glyph glyph-name="u" unicode="u" horiz-adv-x="565" 
d="M252 -8q-82 0 -132 53t-50 155v300h90v-295q0 -67 29.5 -99t80.5 -32q59 0 94.5 35.5t35.5 95.5v295h90v-500h-70l-9 65h-2q-30 -38 -68 -55.5t-89 -17.5z" />
    <glyph glyph-name="v" unicode="v" horiz-adv-x="510" 
d="M15 500h98l148 -400h2l140 400h92l-182 -500h-106z" />
    <glyph glyph-name="w" unicode="w" horiz-adv-x="770" 
d="M25 500h96l107 -400h2l93 400h122l108 -400h2l100 400h90l-129 -500h-122l-110 400h-2l-96 -400h-122z" />
    <glyph glyph-name="x" unicode="x" horiz-adv-x="500" 
d="M194 258l-167 242h102l122 -178l122 178h100l-167 -240l179 -260h-106l-130 192l-130 -192h-104z" />
    <glyph glyph-name="y" unicode="y" horiz-adv-x="520" 
d="M219 0l-204 500h98l153 -390h2l145 390h92l-271 -700h-92z" />
    <glyph glyph-name="z" unicode="z" horiz-adv-x="455" 
d="M35 82l280 334v2h-270v82h380v-82l-280 -334v-2h280v-82h-390v82z" />
    <glyph glyph-name="braceleft" unicode="{" horiz-adv-x="400" 
d="M321 -200q-201 0 -201 201v104q0 54 -23 77t-57 27v82q34 4 57 27t23 76v105q0 201 201 201h49v-82h-41q-62 0 -90.5 -29t-28.5 -95v-103q0 -21 -2.5 -41t-10 -38t-21.5 -33.5t-38 -27.5v-2q24 -12 38 -27t21.5 -32.5t10 -38t2.5 -42.5v-103q0 -66 28.5 -95t90.5 -29h41
v-82h-49z" />
    <glyph glyph-name="bar" unicode="|" horiz-adv-x="300" 
d="M105 700h90v-900h-90v900z" />
    <glyph glyph-name="braceright" unicode="}" horiz-adv-x="400" 
d="M79 700q201 0 201 -201v-104q0 -54 23 -77t57 -27v-82q-34 -4 -57 -27t-23 -76v-105q0 -201 -201 -201h-49v82h41q62 0 90.5 29t28.5 95v103q0 21 2 41t9.5 38t22 33.5t38.5 27.5v2q-24 12 -38.5 27t-22 32.5t-9.5 38t-2 42.5v103q0 66 -28.5 95t-90.5 29h-41v82h49z" />
    <glyph glyph-name="asciitilde" unicode="~" 
d="M401 265q-40 0 -69 15.5t-53 34.5t-45 34.5t-45 15.5q-26 0 -41 -16t-15 -44h-88q0 33 11 60.5t30.5 47.5t45.5 31t57 11q40 0 69 -15.5t53 -34.5t45 -34.5t45 -15.5q27 0 41.5 16.5t14.5 43.5h88q0 -33 -11 -60.5t-30.5 -47.5t-45.5 -31t-57 -11z" />
    <glyph glyph-name="uni00A0" unicode="&#xa0;" horiz-adv-x="250" 
 />
    <glyph glyph-name="exclamdown" unicode="&#xa1;" horiz-adv-x="300" 
d="M197.006 -199.957h-93.9941v499.969h93.9941v-499.969zM150.009 508q30.998 0 50.4971 -20.499t19.499 -49.4971t-19.499 -49.4971t-50.4971 -20.499t-50.4961 20.499q-19.499 20.499 -19.499 49.4971t19.499 49.4971q19.498 20.499 50.4961 20.499z" />
    <glyph glyph-name="cent" unicode="&#xa2;" horiz-adv-x="505" 
d="M228 -5q-85 11 -134 72.5t-49 173.5v28q0 103 49.5 164t133.5 72v95h84v-96q72 -11 112.5 -54t50.5 -100h-94q-11 32 -37.5 54t-73.5 22q-60 0 -95.5 -38.5t-35.5 -118.5v-28q0 -87 35.5 -127t95.5 -40q47 0 73.5 23.5t37.5 62.5h94q-10 -64 -50.5 -108.5t-112.5 -55.5
v-96h-84v95z" />
    <glyph glyph-name="sterling" unicode="&#xa3;" horiz-adv-x="580" 
d="M45 86q22 15 39 29t28 33.5t17 46.5t6 67v31h-90v74h90v138q0 44 15.5 81t42.5 64t64.5 42.5t81.5 15.5q94 0 148 -56.5t58 -156.5h-98q-7 123 -108 123q-50 0 -80 -30.5t-30 -82.5v-138h181v-74h-181v-31q0 -36 -3 -63t-10 -47.5t-18.5 -36.5t-27.5 -29h375v-86h-500v86
z" />
    <glyph glyph-name="currency" unicode="&#xa4;" 
d="M40 164l84 84q-34 49 -34 112q0 30 8.5 58t23.5 52l-82 82l63 63l82 -82q24 15 52 23.5t58 8.5q62 0 112 -33l83 83l60 -60l-83 -83q33 -50 33 -112q0 -30 -8.5 -58t-23.5 -52l82 -82l-63 -63l-82 82q-24 -15 -52 -23.5t-58 -8.5q-63 0 -112 34l-84 -84zM295 242
q23 0 43.5 9.5t35.5 25.5t24 37.5t9 45.5t-9 45.5t-24 37.5t-35.5 25.5t-43.5 9.5t-43.5 -9.5t-35.5 -25.5t-24 -37.5t-9 -45.5t9 -45.5t24 -37.5t35.5 -25.5t43.5 -9.5z" />
    <glyph glyph-name="yen" unicode="&#xa5;" horiz-adv-x="650" 
d="M85 192h198v71h-198v74h143l-208 363h108l203 -363l195 363h104l-199 -363h144v-74h-198v-71h198v-74h-198v-118h-94v118h-198v74z" />
    <glyph glyph-name="brokenbar" unicode="&#xa6;" horiz-adv-x="300" 
d="M105 700h90v-370h-90v370zM105 170h90v-370h-90v370z" />
    <glyph glyph-name="section" unicode="&#xa7;" horiz-adv-x="480" 
d="M240 -208q-42 0 -75.5 12t-57.5 34t-38.5 51t-18.5 64h100q3 -32 26 -53t64 -21q46 0 69.5 20.5t23.5 51.5q0 29 -21.5 49t-54.5 37t-70.5 34.5t-70.5 42t-54.5 59t-21.5 86.5q0 47 25 86t73 69q-34 24 -56.5 56.5t-22.5 82.5q0 68 47 111.5t134 43.5q40 0 71.5 -12
t55 -32t37 -48t17.5 -59h-99q-4 29 -24 46.5t-58 17.5q-42 0 -62.5 -18t-20.5 -50q0 -30 21 -50.5t52.5 -38t68 -35.5t68 -42.5t52.5 -59.5t21 -86q0 -45 -23.5 -83t-68.5 -68q35 -23 59 -55.5t24 -83.5q0 -34 -12.5 -63t-37 -50.5t-60 -33.5t-81.5 -12zM137 260
q0 -24 10.5 -42t28.5 -33t41 -27t48 -24q38 23 57.5 46.5t19.5 59.5q0 24 -10 42.5t-27.5 33.5t-39.5 27.5t-46 24.5q-41 -24 -61.5 -48t-20.5 -60z" />
    <glyph glyph-name="dieresis" unicode="&#xa8;" horiz-adv-x="340" 
d="M75 575q-26 0 -43 17t-17 43t17 43t43 17t43 -17t17 -43t-17 -43t-43 -17zM265 575q-26 0 -43 17t-17 43t17 43t43 17t43 -17t17 -43t-17 -43t-43 -17z" />
    <glyph glyph-name="copyright" unicode="&#xa9;" horiz-adv-x="850" 
d="M425 -8q-76 0 -141.5 28t-114 76t-76.5 113.5t-28 140.5q0 74 28 139.5t77 114t114.5 76.5t140.5 28t141 -28t114.5 -76t76.5 -113.5t28 -140.5q0 -74 -28.5 -139.5t-77 -114t-114 -76.5t-140.5 -28zM425 68q59 0 110 21.5t88.5 59.5t59 89.5t21.5 111.5t-21.5 111.5
t-59.5 89.5t-89 59.5t-109 21.5q-59 0 -109.5 -21.5t-88.5 -59.5t-59.5 -89.5t-21.5 -111.5t21.5 -111.5t59.5 -89.5t88.5 -59.5t109.5 -21.5zM425 142q-84 0 -132.5 50t-48.5 143v30q0 91 49.5 142t131.5 51q38 0 68.5 -10.5t52 -27.5t34.5 -38.5t17 -44.5h-85
q-8 16 -28.5 31.5t-58.5 15.5q-47 0 -73.5 -29.5t-26.5 -89.5v-30q0 -59 27.5 -89t72.5 -30q43 0 63 16.5t28 40.5h81q-4 -26 -17 -49.5t-35 -41.5t-52.5 -29t-67.5 -11z" />
    <glyph glyph-name="ordfeminine" unicode="&#xaa;" horiz-adv-x="350" 
d="M138 372q-56 0 -84.5 26.5t-28.5 71.5q0 49 34.5 77.5t121.5 28.5h57v14q0 30 -13 43t-45 13q-29 0 -42 -10.5t-17 -26.5h-78q4 43 37 71t100 28q69 0 102 -30.5t33 -87.5v-210h-61l-8 48q-34 -56 -108 -56zM152 434q40 0 63 23t23 58v9h-58q-42 0 -58 -12t-16 -34
q0 -23 12.5 -33.5t33.5 -10.5z" />
    <glyph glyph-name="guillemotleft" unicode="&#xab;" horiz-adv-x="505" 
d="M357 460h98l-120 -198l120 -202h-101l-119 198zM152 460h98l-120 -198l120 -202h-101l-119 198z" />
    <glyph glyph-name="logicalnot" unicode="&#xac;" 
d="M70 402h450v-270h-90v184h-360v86z" />
    <glyph glyph-name="uni00AD" unicode="&#xad;" horiz-adv-x="450" 
d="M50 301h350v-82h-350v82z" />
    <glyph glyph-name="registered" unicode="&#xae;" horiz-adv-x="650" 
d="M325 142q-59 0 -111 22.5t-90.5 60.5t-61 89.5t-22.5 110.5q0 58 22.5 110t61 90t90.5 60.5t111 22.5t111 -22.5t90.5 -60.5t61 -90t22.5 -110q0 -59 -22.5 -110.5t-61 -89.5t-90.5 -60.5t-111 -22.5zM325 205q45 0 84.5 17t69 47t46.5 70t17 86t-17 86t-46.5 70t-69 47
t-84.5 17t-84.5 -17t-69 -47t-46.5 -70t-17 -86t17 -86t46.5 -70t69 -47t84.5 -17zM219 575h111q64 0 92.5 -25.5t28.5 -75.5q0 -35 -14 -58t-46 -33l54 -108h-68l-45 99h-47v-99h-66v300zM285 515v-82h45q30 0 41 10.5t11 30.5t-11 30.5t-41 10.5h-45z" />
    <glyph glyph-name="macron" unicode="&#xaf;" horiz-adv-x="300" 
d="M10 672h280v-74h-280v74z" />
    <glyph glyph-name="degree" unicode="&#xb0;" horiz-adv-x="360" 
d="M180 386q-35 0 -65 12.5t-52.5 34.5t-35 51.5t-12.5 62.5t12.5 62.5t35 51.5t52.5 34.5t65 12.5q34 0 64.5 -12.5t52.5 -34.5t35 -51.5t13 -62.5t-13 -62.5t-35 -51.5t-52.5 -34.5t-64.5 -12.5zM180 461q36 0 61 25t25 61t-25 61t-61 25t-61 -25t-25 -61t25 -61t61 -25z
" />
    <glyph glyph-name="plusminus" unicode="&#xb1;" 
d="M250 369h-180v86h180v189h90v-189h180v-86h-180v-138h-90v138zM70 161h450v-86h-450v86z" />
    <glyph glyph-name="twosuperior" unicode="&#xb2;" horiz-adv-x="355" 
d="M21 452l144 134q25 24 40 40.5t23 29.5t11 24.5t3 23.5q0 28 -17 43.5t-52 15.5t-52 -15.5t-17 -43.5h-83q0 58 40 96t112 38q71 0 111.5 -38t40.5 -96q0 -22 -6 -41.5t-19 -39.5t-33.5 -42t-48.5 -48l-88 -81h195v-72h-304v72z" />
    <glyph glyph-name="threesuperior" unicode="&#xb3;" horiz-adv-x="370" 
d="M180 372q-77 0 -117 38t-43 110h83q6 -73 77 -73q38 0 57.5 18t19.5 46q0 27 -19.5 45.5t-57.5 18.5h-58v70h58q34 0 50.5 16t16.5 43q0 28 -16.5 43.5t-50.5 15.5q-32 0 -48 -14.5t-19 -44.5h-83q3 61 41.5 97.5t108.5 36.5q71 0 110.5 -36t39.5 -89q0 -70 -57 -99
q33 -17 50 -45t17 -62q0 -60 -41 -97.5t-119 -37.5z" />
    <glyph glyph-name="acute" unicode="&#xb4;" horiz-adv-x="250" 
d="M125 715h110l-130 -150h-90z" />
    <glyph glyph-name="mu" unicode="&#xb5;" horiz-adv-x="570" 
d="M75 500h90v-295q0 -64 29.5 -95.5t80.5 -31.5q59 0 94.5 35t35.5 92v295h90v-500h-70l-9 69q-26 -37 -66 -57t-90 -20q-54 0 -95 29v-221h-90v700z" />
    <glyph glyph-name="mu" unicode="&#x3bc;" horiz-adv-x="570" 
d="M75 500h90v-295q0 -64 29.5 -95.5t80.5 -31.5q59 0 94.5 35t35.5 92v295h90v-500h-70l-9 69q-26 -37 -66 -57t-90 -20q-54 0 -95 29v-221h-90v700z" />
    <glyph glyph-name="paragraph" unicode="&#xb6;" horiz-adv-x="660" 
d="M218 264q-38 7 -70.5 27t-56.5 48.5t-37.5 64.5t-13.5 76q0 45 17.5 85t47.5 70t70 47.5t85 17.5h380v-86h-97v-814h-94v814h-138v-814h-93v464z" />
    <glyph glyph-name="periodcentered" unicode="&#xb7;" horiz-adv-x="300" 
d="M150 193q-30 0 -48.5 19t-18.5 48t18.5 48t48.5 19t48.5 -19t18.5 -48t-18.5 -48t-48.5 -19z" />
    <glyph glyph-name="cedilla" unicode="&#xb8;" horiz-adv-x="190" 
d="M10 -142h55q26 0 35.5 7.5t9.5 24.5t-9.5 24.5t-35.5 7.5h-21l23 88h60l-11 -45q64 -14 64 -79q0 -38 -25.5 -62t-74.5 -24h-70v58z" />
    <glyph glyph-name="onesuperior" unicode="&#xb9;" horiz-adv-x="260" 
d="M132 745l-117 -74v87l117 72h78v-450h-78v365z" />
    <glyph glyph-name="ordmasculine" unicode="&#xba;" horiz-adv-x="360" 
d="M180 372q-71 0 -113 41.5t-42 111.5v30q0 70 42 111.5t113 41.5q72 0 113.5 -41.5t41.5 -111.5v-30q0 -70 -41.5 -111.5t-113.5 -41.5zM180 446q35 0 55 20.5t20 58.5v30q0 38 -20 58.5t-55 20.5t-55 -20.5t-20 -58.5v-30q0 -38 20 -58.5t55 -20.5z" />
    <glyph glyph-name="guillemotright" unicode="&#xbb;" horiz-adv-x="505" 
d="M148 60h-98l120 198l-120 202h101l119 -198zM353 60h-98l120 198l-120 202h101l119 -198z" />
    <glyph glyph-name="onequarter" unicode="&#xbc;" horiz-adv-x="850" 
d="M579 700h96l-404 -700h-96zM148 615l-108 -67v86l108 66h77v-400h-77v315zM687 81h-197v69l166 251h107v-251h47v-69h-47v-80h-76v80zM687 150v175l-115 -175h115z" />
    <glyph glyph-name="onehalf" unicode="&#xbd;" horiz-adv-x="880" 
d="M579 700h96l-404 -700h-96zM148 615l-108 -67v86l108 66h77v-400h-77v315zM550 71l133 110q26 21 41 36t23 26.5t10 21.5t2 21q0 23 -15 36.5t-49 13.5t-49 -13.5t-15 -37.5h-81q0 58 35.5 91t109.5 33t109.5 -33t35.5 -90q0 -20 -5.5 -38t-17.5 -36.5t-31.5 -38
t-48.5 -42.5l-74 -60h177v-70h-290v70z" />
    <glyph glyph-name="threequarters" unicode="&#xbe;" horiz-adv-x="900" 
d="M629 700h96l-404 -700h-96zM737 81h-197v69l166 251h107v-251h47v-69h-47v-80h-76v80zM737 150v175l-115 -175h115zM195 292q-75 0 -113.5 35t-41.5 98h81q3 -29 20.5 -44.5t53.5 -15.5q39 0 56.5 15t17.5 38t-17.5 38t-56.5 15h-53v68h53q34 0 49 13.5t15 34.5
q0 22 -15 35t-49 13q-32 0 -46.5 -12.5t-17.5 -38.5h-81q3 57 38 90.5t107 33.5t108.5 -33t36.5 -82q0 -26 -12.5 -47.5t-38.5 -35.5q31 -15 46 -40.5t15 -57.5q0 -53 -38 -86.5t-117 -33.5z" />
    <glyph glyph-name="questiondown" unicode="&#xbf;" horiz-adv-x="500" 
d="M302.012 296.013q0 -52.9971 -12.499 -87.4951t-31.498 -58.4961q-18.999 -23.999 -40.4971 -40.998q-21.499 -16.998 -40.498 -34.4971t-31.498 -38.998t-12.499 -55.4971q0 -42.9971 29.998 -70.4951t86.9951 -27.498q61.9961 0 92.4941 28.998t34.498 83.9951h97.9941
q-2 -44.998 -17.999 -82.4951q-15.999 -37.498 -43.998 -64.4961q-27.998 -26.999 -67.9951 -41.498q-39.998 -14.499 -89.9951 -14.499q-52.9961 0 -93.9941 13.999q-40.9971 13.999 -68.9951 38.498q-27.999 24.498 -42.498 57.9961t-14.499 72.4961
q0 45.9971 12.999 75.9951t31.998 51.9971q18.999 21.998 41.498 39.4971q22.498 17.499 41.4971 37.998t31.998 47.4971t12.999 67.9961h93.9941zM255.015 508q30.998 0 50.4971 -20.499t19.499 -49.4971t-19.499 -49.4971t-50.4971 -20.499t-50.4971 20.499
q-19.498 20.499 -19.498 49.4971t19.498 49.4971q19.499 20.499 50.4971 20.499z" />
    <glyph glyph-name="Agrave" unicode="&#xc0;" horiz-adv-x="660" 
d="M275 700h110l255 -700h-102l-66 192h-289l-67 -192h-96zM442 278l-112 327h-2l-115 -327h229zM160 915h114l116 -150h-94z" />
    <glyph glyph-name="Aacute" unicode="&#xc1;" horiz-adv-x="660" 
d="M275 700h110l255 -700h-102l-66 192h-289l-67 -192h-96zM442 278l-112 327h-2l-115 -327h229zM392 915h112l-138 -150h-92z" />
    <glyph glyph-name="Acircumflex" unicode="&#xc2;" horiz-adv-x="660" 
d="M275 700h110l255 -700h-102l-66 192h-289l-67 -192h-96zM442 278l-112 327h-2l-115 -327h229zM277 915h106l117 -150h-92l-78 85l-78 -85h-92z" />
    <glyph glyph-name="Atilde" unicode="&#xc3;" horiz-adv-x="660" 
d="M275 700h110l255 -700h-102l-66 192h-289l-67 -192h-96zM442 278l-112 327h-2l-115 -327h229zM392 765q-28 0 -48 10t-35.5 22t-28.5 22t-28 10q-16 0 -25 -11t-9 -38h-66q0 66 26.5 95.5t73.5 29.5q28 0 47.5 -10t35 -22t29 -22t28.5 -10q16 0 25 11t9 38h66
q0 -66 -26.5 -95.5t-73.5 -29.5z" />
    <glyph glyph-name="Adieresis" unicode="&#xc4;" horiz-adv-x="660" 
d="M275 700h110l255 -700h-102l-66 192h-289l-67 -192h-96zM442 278l-112 327h-2l-115 -327h229zM227 773q-26 0 -44 18t-18 44t18 44t44 18t44 -18t18 -44t-18 -44t-44 -18zM433 773q-26 0 -44 18t-18 44t18 44t44 18t44 -18t18 -44t-18 -44t-44 -18z" />
    <glyph glyph-name="Aring" unicode="&#xc5;" horiz-adv-x="660" 
d="M275 700h110l255 -700h-102l-66 192h-289l-67 -192h-96zM442 278l-112 327h-2l-115 -327h229zM330 729q-49 0 -79.5 30t-30.5 76t30.5 76t79.5 30t79.5 -30t30.5 -76t-30.5 -76t-79.5 -30zM330 787q21 0 34.5 13.5t13.5 34.5t-13.5 34.5t-34.5 13.5t-34.5 -13.5
t-13.5 -34.5t13.5 -34.5t34.5 -13.5z" />
    <glyph glyph-name="AE" unicode="&#xc6;" horiz-adv-x="930" 
d="M400 700h485v-86h-341v-211h281v-86h-281v-231h341v-86h-435v192h-231l-105 -192h-104zM450 278v335l-183 -335h183z" />
    <glyph glyph-name="Ccedilla" unicode="&#xc7;" horiz-adv-x="670" 
d="M265 -138h55q23 0 32 7t9 21t-9 21t-32 7h-21l19 75q-59 5 -107.5 30t-83 67.5t-53.5 103t-19 137.5v48q0 78 21.5 139t60.5 103.5t93.5 64.5t119.5 22q60 0 107.5 -17t82 -46.5t56 -69t29.5 -85.5h-100q-8 28 -22.5 52t-36 42t-51 28t-65.5 10q-42 0 -78.5 -15.5
t-62.5 -46.5t-41 -76t-15 -105v-48q0 -63 15 -110.5t41.5 -79t62.5 -47.5t78 -16q73 0 116.5 39.5t58.5 102.5h100q-7 -47 -26.5 -86.5t-51 -69.5t-74 -48.5t-95.5 -22.5l-7 -28q64 -14 64 -79q0 -38 -25.5 -62t-74.5 -24h-70v62z" />
    <glyph glyph-name="Egrave" unicode="&#xc8;" horiz-adv-x="560" 
d="M80 700h435v-86h-341v-211h281v-86h-281v-231h341v-86h-435v700zM128 915h114l116 -150h-94z" />
    <glyph glyph-name="Eacute" unicode="&#xc9;" horiz-adv-x="560" 
d="M80 700h435v-86h-341v-211h281v-86h-281v-231h341v-86h-435v700zM360 915h112l-138 -150h-92z" />
    <glyph glyph-name="Ecircumflex" unicode="&#xca;" horiz-adv-x="560" 
d="M80 700h435v-86h-341v-211h281v-86h-281v-231h341v-86h-435v700zM245 915h106l117 -150h-92l-78 85l-78 -85h-92z" />
    <glyph glyph-name="Edieresis" unicode="&#xcb;" horiz-adv-x="560" 
d="M80 700h435v-86h-341v-211h281v-86h-281v-231h341v-86h-435v700zM195 773q-26 0 -44 18t-18 44t18 44t44 18t44 -18t18 -44t-18 -44t-44 -18zM401 773q-26 0 -44 18t-18 44t18 44t44 18t44 -18t18 -44t-18 -44t-44 -18z" />
    <glyph glyph-name="Igrave" unicode="&#xcc;" horiz-adv-x="270" 
d="M88 700h94v-700h-94v700zM-34 915h114l116 -150h-94z" />
    <glyph glyph-name="Iacute" unicode="&#xcd;" horiz-adv-x="270" 
d="M88 700h94v-700h-94v700zM197 915h112l-138 -150h-92z" />
    <glyph glyph-name="Icircumflex" unicode="&#xce;" horiz-adv-x="270" 
d="M88 700h94v-700h-94v700zM83 915h106l117 -150h-92l-78 85l-78 -85h-92z" />
    <glyph glyph-name="Idieresis" unicode="&#xcf;" horiz-adv-x="270" 
d="M88 700h94v-700h-94v700zM33 773q-26 0 -44 18t-18 44t18 44t44 18t44 -18t18 -44t-18 -44t-44 -18zM239 773q-26 0 -44 18t-18 44t18 44t44 18t44 -18t18 -44t-18 -44t-44 -18z" />
    <glyph glyph-name="Eth" unicode="&#xd0;" horiz-adv-x="700" 
d="M100 311h-90v78h90v311h225q155 0 237.5 -82.5t82.5 -237.5v-50q0 -161 -83 -245.5t-237 -84.5h-225v311zM320 86q112 0 169.5 59.5t57.5 184.5v50q0 116 -58 175t-169 59h-126v-225h176v-78h-176v-225h126z" />
    <glyph glyph-name="Ntilde" unicode="&#xd1;" horiz-adv-x="710" 
d="M80 700h138l316 -576h2v576h94v-700h-130l-324 590h-2v-590h-94v700zM417 765q-28 0 -48 10t-35.5 22t-28.5 22t-28 10q-16 0 -25 -11t-9 -38h-66q0 66 26.5 95.5t73.5 29.5q28 0 47.5 -10t35 -22t29 -22t28.5 -10q16 0 25 11t9 38h66q0 -66 -26.5 -95.5t-73.5 -29.5z
" />
    <glyph glyph-name="Ograve" unicode="&#xd2;" horiz-adv-x="710" 
d="M355 -8q-68 0 -123 22t-94.5 65t-61 106.5t-21.5 145.5v48q0 78 21.5 139t61 103.5t95 64.5t122.5 22t122.5 -22t95 -64t61 -103.5t21.5 -139.5v-48q0 -82 -21.5 -145t-61 -106t-95 -65.5t-122.5 -22.5zM355 78q90 0 146 62.5t56 190.5v48q0 60 -15 105.5t-41.5 76
t-63.5 46t-82 15.5t-82 -15t-64 -45.5t-41.5 -76t-14.5 -106.5v-48q0 -64 15 -111.5t42 -79t64 -47t81 -15.5zM185 915h114l116 -150h-94z" />
    <glyph glyph-name="Oacute" unicode="&#xd3;" horiz-adv-x="710" 
d="M355 -8q-68 0 -123 22t-94.5 65t-61 106.5t-21.5 145.5v48q0 78 21.5 139t61 103.5t95 64.5t122.5 22t122.5 -22t95 -64t61 -103.5t21.5 -139.5v-48q0 -82 -21.5 -145t-61 -106t-95 -65.5t-122.5 -22.5zM355 78q90 0 146 62.5t56 190.5v48q0 60 -15 105.5t-41.5 76
t-63.5 46t-82 15.5t-82 -15t-64 -45.5t-41.5 -76t-14.5 -106.5v-48q0 -64 15 -111.5t42 -79t64 -47t81 -15.5zM417 915h112l-138 -150h-92z" />
    <glyph glyph-name="Ocircumflex" unicode="&#xd4;" horiz-adv-x="710" 
d="M355 -8q-68 0 -123 22t-94.5 65t-61 106.5t-21.5 145.5v48q0 78 21.5 139t61 103.5t95 64.5t122.5 22t122.5 -22t95 -64t61 -103.5t21.5 -139.5v-48q0 -82 -21.5 -145t-61 -106t-95 -65.5t-122.5 -22.5zM355 78q90 0 146 62.5t56 190.5v48q0 60 -15 105.5t-41.5 76
t-63.5 46t-82 15.5t-82 -15t-64 -45.5t-41.5 -76t-14.5 -106.5v-48q0 -64 15 -111.5t42 -79t64 -47t81 -15.5zM302 915h106l117 -150h-92l-78 85l-78 -85h-92z" />
    <glyph glyph-name="Otilde" unicode="&#xd5;" horiz-adv-x="710" 
d="M355 -8q-68 0 -123 22t-94.5 65t-61 106.5t-21.5 145.5v48q0 78 21.5 139t61 103.5t95 64.5t122.5 22t122.5 -22t95 -64t61 -103.5t21.5 -139.5v-48q0 -82 -21.5 -145t-61 -106t-95 -65.5t-122.5 -22.5zM355 78q90 0 146 62.5t56 190.5v48q0 60 -15 105.5t-41.5 76
t-63.5 46t-82 15.5t-82 -15t-64 -45.5t-41.5 -76t-14.5 -106.5v-48q0 -64 15 -111.5t42 -79t64 -47t81 -15.5zM417 765q-28 0 -48 10t-35.5 22t-28.5 22t-28 10q-16 0 -25 -11t-9 -38h-66q0 66 26.5 95.5t73.5 29.5q28 0 47.5 -10t35 -22t29 -22t28.5 -10q16 0 25 11t9 38
h66q0 -66 -26.5 -95.5t-73.5 -29.5z" />
    <glyph glyph-name="Odieresis" unicode="&#xd6;" horiz-adv-x="710" 
d="M355 -8q-68 0 -123 22t-94.5 65t-61 106.5t-21.5 145.5v48q0 78 21.5 139t61 103.5t95 64.5t122.5 22t122.5 -22t95 -64t61 -103.5t21.5 -139.5v-48q0 -82 -21.5 -145t-61 -106t-95 -65.5t-122.5 -22.5zM355 78q90 0 146 62.5t56 190.5v48q0 60 -15 105.5t-41.5 76
t-63.5 46t-82 15.5t-82 -15t-64 -45.5t-41.5 -76t-14.5 -106.5v-48q0 -64 15 -111.5t42 -79t64 -47t81 -15.5zM252 773q-26 0 -44 18t-18 44t18 44t44 18t44 -18t18 -44t-18 -44t-44 -18zM458 773q-26 0 -44 18t-18 44t18 44t44 18t44 -18t18 -44t-18 -44t-44 -18z" />
    <glyph glyph-name="multiply" unicode="&#xd7;" 
d="M95 221l138 138l-138 139l61 61l139 -138l138 138l62 -61l-139 -139l139 -138l-62 -62l-138 139l-139 -139z" />
    <glyph glyph-name="Oslash" unicode="&#xd8;" horiz-adv-x="710" 
d="M355 -8q-114 0 -191 63l-51 -63l-58 48l58 71q-28 42 -43 96.5t-15 123.5v48q0 78 21.5 139t61 103.5t95 64.5t122.5 22q116 0 192 -62l50 62l58 -48l-57 -70q57 -83 57 -211v-48q0 -82 -21.5 -145t-61 -106t-95 -65.5t-122.5 -22.5zM488 574q-53 48 -133 48
q-45 0 -82 -15t-64 -45.5t-41.5 -76t-14.5 -106.5v-48q0 -42 6.5 -76.5t18.5 -62.5zM355 78q90 0 146 62.5t56 190.5v48q0 77 -24 130l-310 -382q52 -49 132 -49z" />
    <glyph glyph-name="Ugrave" unicode="&#xd9;" horiz-adv-x="690" 
d="M345 -8q-62 0 -112 19t-85 55.5t-54 89t-19 119.5v425h94v-420q0 -100 48 -151t128 -51q81 0 128.5 50.5t47.5 151.5v420h94v-425q0 -66 -19 -118.5t-54.5 -89t-85.5 -56t-111 -19.5zM175 915h114l116 -150h-94z" />
    <glyph glyph-name="Uacute" unicode="&#xda;" horiz-adv-x="690" 
d="M345 -8q-62 0 -112 19t-85 55.5t-54 89t-19 119.5v425h94v-420q0 -100 48 -151t128 -51q81 0 128.5 50.5t47.5 151.5v420h94v-425q0 -66 -19 -118.5t-54.5 -89t-85.5 -56t-111 -19.5zM407 915h112l-138 -150h-92z" />
    <glyph glyph-name="Ucircumflex" unicode="&#xdb;" horiz-adv-x="690" 
d="M345 -8q-62 0 -112 19t-85 55.5t-54 89t-19 119.5v425h94v-420q0 -100 48 -151t128 -51q81 0 128.5 50.5t47.5 151.5v420h94v-425q0 -66 -19 -118.5t-54.5 -89t-85.5 -56t-111 -19.5zM292 915h106l117 -150h-92l-78 85l-78 -85h-92z" />
    <glyph glyph-name="Udieresis" unicode="&#xdc;" horiz-adv-x="690" 
d="M345 -8q-62 0 -112 19t-85 55.5t-54 89t-19 119.5v425h94v-420q0 -100 48 -151t128 -51q81 0 128.5 50.5t47.5 151.5v420h94v-425q0 -66 -19 -118.5t-54.5 -89t-85.5 -56t-111 -19.5zM242 773q-26 0 -44 18t-18 44t18 44t44 18t44 -18t18 -44t-18 -44t-44 -18zM448 773
q-26 0 -44 18t-18 44t18 44t44 18t44 -18t18 -44t-18 -44t-44 -18z" />
    <glyph glyph-name="Yacute" unicode="&#xdd;" horiz-adv-x="650" 
d="M288 245l-268 455h108l209 -353l191 353h102l-248 -455v-245h-94v245zM390 915h112l-138 -150h-92z" />
    <glyph glyph-name="Thorn" unicode="&#xde;" horiz-adv-x="600" 
d="M80 700h94v-116h141q130 0 192.5 -59t62.5 -165t-63 -165t-192 -59h-141v-136h-94v700zM174 498v-276h136q87 0 124.5 34.5t37.5 103.5q0 68 -38 103t-124 35h-136z" />
    <glyph glyph-name="germandbls" unicode="&#xdf;" horiz-adv-x="560" 
d="M75 495q0 48 15 87.5t43 67.5t68 43t89 15q46 0 84 -14.5t65 -39t41.5 -58.5t14.5 -73q0 -93 -80 -146v-2q100 -43 100 -162v-18q0 -94 -52 -144.5t-153 -50.5h-65v82h60q56 0 86 29.5t30 84.5v17q0 55 -30 85t-86 30h-60v82h45q51 0 81 29.5t30 77.5q0 50 -30 79.5
t-81 29.5q-57 0 -91 -35t-34 -101v-490h-90v495z" />
    <glyph glyph-name="agrave" unicode="&#xe0;" horiz-adv-x="530" 
d="M210 -8q-85 0 -127.5 40t-42.5 109q0 75 50.5 118.5t164.5 43.5h115v27q0 49 -25.5 72.5t-84.5 23.5q-54 0 -79 -18.5t-29 -47.5h-92q2 31 15.5 58t38.5 47t61.5 31.5t84.5 11.5q103 0 151.5 -46t48.5 -137v-325h-70l-11 75h-2q-61 -83 -167 -83zM220 74q31 0 58.5 10.5
t48 29t32 43t11.5 52.5v18h-110q-70 0 -98 -23.5t-28 -61.5q0 -30 21.5 -49t64.5 -19zM95 715h112l108 -150h-92z" />
    <glyph glyph-name="aacute" unicode="&#xe1;" horiz-adv-x="530" 
d="M210 -8q-85 0 -127.5 40t-42.5 109q0 75 50.5 118.5t164.5 43.5h115v27q0 49 -25.5 72.5t-84.5 23.5q-54 0 -79 -18.5t-29 -47.5h-92q2 31 15.5 58t38.5 47t61.5 31.5t84.5 11.5q103 0 151.5 -46t48.5 -137v-325h-70l-11 75h-2q-61 -83 -167 -83zM220 74q31 0 58.5 10.5
t48 29t32 43t11.5 52.5v18h-110q-70 0 -98 -23.5t-28 -61.5q0 -30 21.5 -49t64.5 -19zM315 715h110l-130 -150h-90z" />
    <glyph glyph-name="acircumflex" unicode="&#xe2;" horiz-adv-x="530" 
d="M210 -8q-85 0 -127.5 40t-42.5 109q0 75 50.5 118.5t164.5 43.5h115v27q0 49 -25.5 72.5t-84.5 23.5q-54 0 -79 -18.5t-29 -47.5h-92q2 31 15.5 58t38.5 47t61.5 31.5t84.5 11.5q103 0 151.5 -46t48.5 -137v-325h-70l-11 75h-2q-61 -83 -167 -83zM220 74q31 0 58.5 10.5
t48 29t32 43t11.5 52.5v18h-110q-70 0 -98 -23.5t-28 -61.5q0 -30 21.5 -49t64.5 -19zM205 715h110l110 -150h-90l-75 85l-75 -85h-90z" />
    <glyph glyph-name="atilde" unicode="&#xe3;" horiz-adv-x="530" 
d="M210 -8q-85 0 -127.5 40t-42.5 109q0 75 50.5 118.5t164.5 43.5h115v27q0 49 -25.5 72.5t-84.5 23.5q-54 0 -79 -18.5t-29 -47.5h-92q2 31 15.5 58t38.5 47t61.5 31.5t84.5 11.5q103 0 151.5 -46t48.5 -137v-325h-70l-11 75h-2q-61 -83 -167 -83zM220 74q31 0 58.5 10.5
t48 29t32 43t11.5 52.5v18h-110q-70 0 -98 -23.5t-28 -61.5q0 -30 21.5 -49t64.5 -19zM325 565q-26 0 -44.5 10.5t-33 22.5t-27 22.5t-25.5 10.5q-14 0 -22.5 -11t-8.5 -40h-64q0 65 26.5 95t68.5 30q26 0 44.5 -10.5t33 -22.5t26.5 -22.5t26 -10.5t22.5 11t8.5 40h64
q0 -65 -26.5 -95t-68.5 -30z" />
    <glyph glyph-name="adieresis" unicode="&#xe4;" horiz-adv-x="530" 
d="M210 -8q-85 0 -127.5 40t-42.5 109q0 75 50.5 118.5t164.5 43.5h115v27q0 49 -25.5 72.5t-84.5 23.5q-54 0 -79 -18.5t-29 -47.5h-92q2 31 15.5 58t38.5 47t61.5 31.5t84.5 11.5q103 0 151.5 -46t48.5 -137v-325h-70l-11 75h-2q-61 -83 -167 -83zM220 74q31 0 58.5 10.5
t48 29t32 43t11.5 52.5v18h-110q-70 0 -98 -23.5t-28 -61.5q0 -30 21.5 -49t64.5 -19zM165 575q-26 0 -43 17t-17 43t17 43t43 17t43 -17t17 -43t-17 -43t-43 -17zM355 575q-26 0 -43 17t-17 43t17 43t43 17t43 -17t17 -43t-17 -43t-43 -17z" />
    <glyph glyph-name="aring" unicode="&#xe5;" horiz-adv-x="530" 
d="M210 -8q-85 0 -127.5 40t-42.5 109q0 75 50.5 118.5t164.5 43.5h115v27q0 49 -25.5 72.5t-84.5 23.5q-54 0 -79 -18.5t-29 -47.5h-92q2 31 15.5 58t38.5 47t61.5 31.5t84.5 11.5q103 0 151.5 -46t48.5 -137v-325h-70l-11 75h-2q-61 -83 -167 -83zM220 74q31 0 58.5 10.5
t48 29t32 43t11.5 52.5v18h-110q-70 0 -98 -23.5t-28 -61.5q0 -30 21.5 -49t64.5 -19zM260 529q-49 0 -79.5 30t-30.5 76t30.5 76t79.5 30t79.5 -30t30.5 -76t-30.5 -76t-79.5 -30zM260 585q23 0 36.5 13.5t13.5 36.5t-13.5 36.5t-36.5 13.5t-36.5 -13.5t-13.5 -36.5
t13.5 -36.5t36.5 -13.5z" />
    <glyph glyph-name="ae" unicode="&#xe6;" horiz-adv-x="855" 
d="M212 -8q-88 0 -130 39.5t-42 108.5q0 37 12 66t38.5 49.5t68.5 31.5t103 11h102v42q0 42 -24.5 65t-77.5 23q-52 0 -75 -19t-27 -49h-100q2 32 15 59t37.5 47t62 31t87.5 11q116 0 158 -80q29 38 71.5 59t93.5 21q50 0 91.5 -16.5t71 -47.5t46 -75.5t16.5 -99.5v-47h-356
q2 -74 38 -111t93 -37q30 0 50.5 5.5t35.5 15t24.5 23.5t17.5 32h92q-15 -70 -67 -114t-153 -44q-61 0 -108.5 28t-74.5 79q-28 -51 -78 -79t-112 -28zM585 426q-53 0 -88 -31.5t-42 -96.5h260q-6 67 -39.5 97.5t-90.5 30.5zM212 72q33 0 60.5 11t48 29.5t32 43.5t11.5 54
v12h-102q-37 0 -61.5 -5.5t-39.5 -16t-21 -25t-6 -33.5q0 -32 20 -51t58 -19z" />
    <glyph glyph-name="ccedilla" unicode="&#xe7;" horiz-adv-x="505" 
d="M185 -142h55q26 0 35.5 7.5t9.5 24.5t-9.5 24.5t-35.5 7.5h-21l19 71q-89 8 -141 70.5t-52 177.5v28q0 57 16 101t44.5 75t69 47t90.5 16q47 0 83.5 -12.5t62.5 -33.5t42 -50t22 -62h-94q-11 32 -37.5 54t-73.5 22q-60 0 -95.5 -38.5t-35.5 -118.5v-28q0 -87 35.5 -127
t95.5 -40q47 0 73.5 23.5t37.5 62.5h94q-11 -67 -55 -112.5t-122 -53.5l-7 -29q64 -14 64 -79q0 -38 -25.5 -62t-74.5 -24h-70v58z" />
    <glyph glyph-name="egrave" unicode="&#xe8;" horiz-adv-x="540" 
d="M275 -8q-53 0 -95.5 16.5t-72.5 48t-46 76.5t-16 103v28q0 58 16 103.5t45.5 76.5t71 47.5t92.5 16.5t92.5 -16.5t71 -48.5t45.5 -78t16 -106v-36h-356q2 -71 36.5 -110t94.5 -39q48 0 79 18t47 58h94q-18 -78 -73.5 -118t-141.5 -40zM270 426q-57 0 -90 -33t-40 -96h261
q-12 129 -131 129zM105 715h112l108 -150h-92z" />
    <glyph glyph-name="eacute" unicode="&#xe9;" horiz-adv-x="540" 
d="M275 -8q-53 0 -95.5 16.5t-72.5 48t-46 76.5t-16 103v28q0 58 16 103.5t45.5 76.5t71 47.5t92.5 16.5t92.5 -16.5t71 -48.5t45.5 -78t16 -106v-36h-356q2 -71 36.5 -110t94.5 -39q48 0 79 18t47 58h94q-18 -78 -73.5 -118t-141.5 -40zM270 426q-57 0 -90 -33t-40 -96h261
q-12 129 -131 129zM325 715h110l-130 -150h-90z" />
    <glyph glyph-name="ecircumflex" unicode="&#xea;" horiz-adv-x="540" 
d="M275 -8q-53 0 -95.5 16.5t-72.5 48t-46 76.5t-16 103v28q0 58 16 103.5t45.5 76.5t71 47.5t92.5 16.5t92.5 -16.5t71 -48.5t45.5 -78t16 -106v-36h-356q2 -71 36.5 -110t94.5 -39q48 0 79 18t47 58h94q-18 -78 -73.5 -118t-141.5 -40zM270 426q-57 0 -90 -33t-40 -96h261
q-12 129 -131 129zM215 715h110l110 -150h-90l-75 85l-75 -85h-90z" />
    <glyph glyph-name="edieresis" unicode="&#xeb;" horiz-adv-x="540" 
d="M275 -8q-53 0 -95.5 16.5t-72.5 48t-46 76.5t-16 103v28q0 58 16 103.5t45.5 76.5t71 47.5t92.5 16.5t92.5 -16.5t71 -48.5t45.5 -78t16 -106v-36h-356q2 -71 36.5 -110t94.5 -39q48 0 79 18t47 58h94q-18 -78 -73.5 -118t-141.5 -40zM270 426q-57 0 -90 -33t-40 -96h261
q-12 129 -131 129zM175 575q-26 0 -43 17t-17 43t17 43t43 17t43 -17t17 -43t-17 -43t-43 -17zM365 575q-26 0 -43 17t-17 43t17 43t43 17t43 -17t17 -43t-17 -43t-43 -17z" />
    <glyph glyph-name="igrave" unicode="&#xec;" horiz-adv-x="256" 
d="M83 500h90v-500h-90v500zM-36 715h112l108 -150h-92z" />
    <glyph glyph-name="iacute" unicode="&#xed;" horiz-adv-x="256" 
d="M83 500h90v-500h-90v500zM183 715h110l-130 -150h-90z" />
    <glyph glyph-name="icircumflex" unicode="&#xee;" horiz-adv-x="256" 
d="M83 500h90v-500h-90v500zM74 715h110l110 -150h-90l-75 85l-75 -85h-90z" />
    <glyph glyph-name="idieresis" unicode="&#xef;" horiz-adv-x="256" 
d="M83 500h90v-500h-90v500zM34 575q-26 0 -43 17t-17 43t17 43t43 17t43 -17t17 -43t-17 -43t-43 -17zM224 575q-26 0 -43 17t-17 43t17 43t43 17t43 -17t17 -43t-17 -43t-43 -17z" />
    <glyph glyph-name="eth" unicode="&#xf0;" horiz-adv-x="545" 
d="M270 -8q-51 0 -92.5 16t-71 46t-45.5 72.5t-16 94.5v38q0 52 16 94t44.5 72t67 46.5t82.5 16.5q55 0 98 -23q-19 29 -42 56.5t-49 54.5l-107 -58v61l67 36q-23 23 -47.5 44t-49.5 41h113q13 -11 26 -23t27 -25l104 56v-61l-64 -34q32 -34 62 -73t52.5 -83.5t36 -93.5
t13.5 -104v-38q0 -52 -16.5 -94t-46 -72t-71 -46.5t-91.5 -16.5zM139 221q0 -68 36.5 -105.5t94.5 -37.5q60 0 95.5 37t35.5 106v38q0 69 -35.5 106t-95.5 37t-95.5 -37t-35.5 -106v-38z" />
    <glyph glyph-name="ntilde" unicode="&#xf1;" horiz-adv-x="575" 
d="M75 500h70l9 -65h2q32 38 69.5 55.5t87.5 17.5q90 0 141 -53t51 -155v-300h-90v295q0 67 -30.5 99t-89.5 32t-94.5 -35.5t-35.5 -95.5v-295h-90v500zM355 565q-26 0 -44.5 10.5t-33 22.5t-27 22.5t-25.5 10.5q-14 0 -22.5 -11t-8.5 -40h-64q0 65 26.5 95t68.5 30
q26 0 44.5 -10.5t33 -22.5t26.5 -22.5t26 -10.5t22.5 11t8.5 40h64q0 -65 -26.5 -95t-68.5 -30z" />
    <glyph glyph-name="ograve" unicode="&#xf2;" horiz-adv-x="550" 
d="M275 -8q-107 0 -168.5 63t-61.5 181v28q0 117 62 180.5t168 63.5q107 0 168.5 -63t61.5 -181v-28q0 -117 -62 -180.5t-168 -63.5zM275 74q63 0 99.5 39.5t36.5 122.5v28q0 82 -36.5 122t-99.5 40t-99.5 -39.5t-36.5 -122.5v-28q0 -82 36.5 -122t99.5 -40zM110 715h112
l108 -150h-92z" />
    <glyph glyph-name="oacute" unicode="&#xf3;" horiz-adv-x="550" 
d="M275 -8q-107 0 -168.5 63t-61.5 181v28q0 117 62 180.5t168 63.5q107 0 168.5 -63t61.5 -181v-28q0 -117 -62 -180.5t-168 -63.5zM275 74q63 0 99.5 39.5t36.5 122.5v28q0 82 -36.5 122t-99.5 40t-99.5 -39.5t-36.5 -122.5v-28q0 -82 36.5 -122t99.5 -40zM330 715h110
l-130 -150h-90z" />
    <glyph glyph-name="ocircumflex" unicode="&#xf4;" horiz-adv-x="550" 
d="M275 -8q-107 0 -168.5 63t-61.5 181v28q0 117 62 180.5t168 63.5q107 0 168.5 -63t61.5 -181v-28q0 -117 -62 -180.5t-168 -63.5zM275 74q63 0 99.5 39.5t36.5 122.5v28q0 82 -36.5 122t-99.5 40t-99.5 -39.5t-36.5 -122.5v-28q0 -82 36.5 -122t99.5 -40zM220 715h110
l110 -150h-90l-75 85l-75 -85h-90z" />
    <glyph glyph-name="otilde" unicode="&#xf5;" horiz-adv-x="550" 
d="M275 -8q-107 0 -168.5 63t-61.5 181v28q0 117 62 180.5t168 63.5q107 0 168.5 -63t61.5 -181v-28q0 -117 -62 -180.5t-168 -63.5zM275 74q63 0 99.5 39.5t36.5 122.5v28q0 82 -36.5 122t-99.5 40t-99.5 -39.5t-36.5 -122.5v-28q0 -82 36.5 -122t99.5 -40zM340 565
q-26 0 -44.5 10.5t-33 22.5t-27 22.5t-25.5 10.5q-14 0 -22.5 -11t-8.5 -40h-64q0 65 26.5 95t68.5 30q26 0 44.5 -10.5t33 -22.5t26.5 -22.5t26 -10.5t22.5 11t8.5 40h64q0 -65 -26.5 -95t-68.5 -30z" />
    <glyph glyph-name="odieresis" unicode="&#xf6;" horiz-adv-x="550" 
d="M275 -8q-107 0 -168.5 63t-61.5 181v28q0 117 62 180.5t168 63.5q107 0 168.5 -63t61.5 -181v-28q0 -117 -62 -180.5t-168 -63.5zM275 74q63 0 99.5 39.5t36.5 122.5v28q0 82 -36.5 122t-99.5 40t-99.5 -39.5t-36.5 -122.5v-28q0 -82 36.5 -122t99.5 -40zM180 575
q-26 0 -43 17t-17 43t17 43t43 17t43 -17t17 -43t-17 -43t-43 -17zM370 575q-26 0 -43 17t-17 43t17 43t43 17t43 -17t17 -43t-17 -43t-43 -17z" />
    <glyph glyph-name="divide" unicode="&#xf7;" 
d="M70 403h450v-86h-450v86zM295 490q-30 0 -48.5 19t-18.5 48t18.5 48t48.5 19t48.5 -19t18.5 -48t-18.5 -48t-48.5 -19zM295 90q-30 0 -48.5 19t-18.5 48t18.5 48t48.5 19t48.5 -19t18.5 -48t-18.5 -48t-48.5 -19z" />
    <glyph glyph-name="oslash" unicode="&#xf8;" horiz-adv-x="550" 
d="M275 -8q-86 0 -142 41l-36 -41l-52 47l39 45q-19 29 -29 67t-10 85v28q0 117 62 180.5t168 63.5q86 0 142 -41l36 41l52 -47l-39 -45q19 -29 29 -67t10 -85v-28q0 -117 -62 -180.5t-168 -63.5zM359 400q-34 26 -84 26q-63 0 -99.5 -39.5t-36.5 -122.5v-28q0 -43 11 -76z
M275 74q63 0 99.5 39.5t36.5 122.5v28q0 43 -11 76l-209 -240q34 -26 84 -26z" />
    <glyph glyph-name="ugrave" unicode="&#xf9;" horiz-adv-x="565" 
d="M252 -8q-82 0 -132 53t-50 155v300h90v-295q0 -67 29.5 -99t80.5 -32q59 0 94.5 35.5t35.5 95.5v295h90v-500h-70l-9 65h-2q-30 -38 -68 -55.5t-89 -17.5zM115 715h112l108 -150h-92z" />
    <glyph glyph-name="uacute" unicode="&#xfa;" horiz-adv-x="565" 
d="M252 -8q-82 0 -132 53t-50 155v300h90v-295q0 -67 29.5 -99t80.5 -32q59 0 94.5 35.5t35.5 95.5v295h90v-500h-70l-9 65h-2q-30 -38 -68 -55.5t-89 -17.5zM335 715h110l-130 -150h-90z" />
    <glyph glyph-name="ucircumflex" unicode="&#xfb;" horiz-adv-x="565" 
d="M252 -8q-82 0 -132 53t-50 155v300h90v-295q0 -67 29.5 -99t80.5 -32q59 0 94.5 35.5t35.5 95.5v295h90v-500h-70l-9 65h-2q-30 -38 -68 -55.5t-89 -17.5zM225 715h110l110 -150h-90l-75 85l-75 -85h-90z" />
    <glyph glyph-name="udieresis" unicode="&#xfc;" horiz-adv-x="565" 
d="M252 -8q-82 0 -132 53t-50 155v300h90v-295q0 -67 29.5 -99t80.5 -32q59 0 94.5 35.5t35.5 95.5v295h90v-500h-70l-9 65h-2q-30 -38 -68 -55.5t-89 -17.5zM185 575q-26 0 -43 17t-17 43t17 43t43 17t43 -17t17 -43t-17 -43t-43 -17zM375 575q-26 0 -43 17t-17 43t17 43
t43 17t43 -17t17 -43t-17 -43t-43 -17z" />
    <glyph glyph-name="yacute" unicode="&#xfd;" horiz-adv-x="520" 
d="M219 0l-204 500h98l153 -390h2l145 390h92l-271 -700h-92zM318 715h110l-130 -150h-90z" />
    <glyph glyph-name="thorn" unicode="&#xfe;" horiz-adv-x="570" 
d="M75 700h90v-260h2q32 36 68.5 52t87.5 16q45 0 82 -15.5t64 -46t41.5 -76t14.5 -106.5v-28q0 -60 -15 -105.5t-42 -76.5t-64 -46.5t-81 -15.5q-51 0 -87.5 16t-68.5 52h-2v-260h-90v900zM298 74q61 0 97 39.5t36 122.5v28q0 81 -36.5 121.5t-96.5 40.5q-61 0 -97 -39.5
t-36 -122.5v-28q0 -81 36.5 -121.5t96.5 -40.5z" />
    <glyph glyph-name="ydieresis" unicode="&#xff;" horiz-adv-x="520" 
d="M219 0l-204 500h98l153 -390h2l145 390h92l-271 -700h-92zM168 575q-26 0 -43 17t-17 43t17 43t43 17t43 -17t17 -43t-17 -43t-43 -17zM358 575q-26 0 -43 17t-17 43t17 43t43 17t43 -17t17 -43t-17 -43t-43 -17z" />
    <glyph glyph-name="Amacron" unicode="&#x100;" horiz-adv-x="660" 
d="M275 700h110l255 -700h-102l-66 192h-289l-67 -192h-96zM442 278l-112 327h-2l-115 -327h229zM180 873h300v-76h-300v76z" />
    <glyph glyph-name="amacron" unicode="&#x101;" horiz-adv-x="530" 
d="M210 -8q-85 0 -127.5 40t-42.5 109q0 75 50.5 118.5t164.5 43.5h115v27q0 49 -25.5 72.5t-84.5 23.5q-54 0 -79 -18.5t-29 -47.5h-92q2 31 15.5 58t38.5 47t61.5 31.5t84.5 11.5q103 0 151.5 -46t48.5 -137v-325h-70l-11 75h-2q-61 -83 -167 -83zM220 74q31 0 58.5 10.5
t48 29t32 43t11.5 52.5v18h-110q-70 0 -98 -23.5t-28 -61.5q0 -30 21.5 -49t64.5 -19zM120 672h280v-74h-280v74z" />
    <glyph glyph-name="Abreve" unicode="&#x102;" horiz-adv-x="660" 
d="M275 700h110l255 -700h-102l-66 192h-289l-67 -192h-96zM442 278l-112 327h-2l-115 -327h229zM330 762q-68 0 -107.5 38t-42.5 100h74q3 -32 22 -50t54 -18t54 18t22 50h74q-3 -62 -42.5 -100t-107.5 -38z" />
    <glyph glyph-name="abreve" unicode="&#x103;" horiz-adv-x="530" 
d="M210 -8q-85 0 -127.5 40t-42.5 109q0 75 50.5 118.5t164.5 43.5h115v27q0 49 -25.5 72.5t-84.5 23.5q-54 0 -79 -18.5t-29 -47.5h-92q2 31 15.5 58t38.5 47t61.5 31.5t84.5 11.5q103 0 151.5 -46t48.5 -137v-325h-70l-11 75h-2q-61 -83 -167 -83zM220 74q31 0 58.5 10.5
t48 29t32 43t11.5 52.5v18h-110q-70 0 -98 -23.5t-28 -61.5q0 -30 21.5 -49t64.5 -19zM260 562q-62 0 -100 38t-40 100h70q3 -70 70 -70t70 70h70q-2 -62 -40 -100t-100 -38z" />
    <glyph glyph-name="Aogonek" unicode="&#x104;" horiz-adv-x="660" 
d="M275 700h110l255 -700q-27 -23 -42.5 -39t-23.5 -27t-10 -19.5t-2 -16.5q0 -28 33 -28h45v-70h-60q-52 0 -76 22t-24 63q0 23 9.5 49.5t48.5 65.5l-66 192h-289l-67 -192h-96zM442 278l-112 327h-2l-115 -327h229z" />
    <glyph glyph-name="aogonek" unicode="&#x105;" horiz-adv-x="530" 
d="M210 -8q-85 0 -127.5 40t-42.5 109q0 75 50.5 118.5t164.5 43.5h115v27q0 49 -25.5 72.5t-84.5 23.5q-54 0 -79 -18.5t-29 -47.5h-92q2 31 15.5 58t38.5 47t61.5 31.5t84.5 11.5q103 0 151.5 -46t48.5 -137v-325h-5q-28 -23 -44.5 -39.5t-24.5 -28.5t-10.5 -21t-2.5 -16
q0 -13 9 -21t28 -8h45v-66h-60q-52 0 -76 21.5t-24 58.5q0 15 3 30t12.5 32.5t27.5 38t48 46.5l-7 48h-2q-61 -83 -167 -83zM220 74q31 0 58.5 10.5t48 29t32 43t11.5 52.5v18h-110q-70 0 -98 -23.5t-28 -61.5q0 -30 21.5 -49t64.5 -19z" />
    <glyph glyph-name="Cacute" unicode="&#x106;" horiz-adv-x="670" 
d="M350 -8q-66 0 -120 22t-93 65t-60.5 106.5t-21.5 145.5v48q0 78 21.5 139t60.5 103.5t93.5 64.5t119.5 22q60 0 107.5 -17t82 -46.5t56 -69t29.5 -85.5h-100q-8 28 -22.5 52t-36 42t-51 28t-65.5 10q-42 0 -78.5 -15.5t-62.5 -46.5t-41 -76t-15 -105v-48q0 -63 15 -110.5
t41.5 -79t62.5 -47.5t78 -16q73 0 116.5 39.5t58.5 102.5h100q-8 -50 -29.5 -91.5t-56 -72t-82 -47.5t-107.5 -17zM412 915h112l-138 -150h-92z" />
    <glyph glyph-name="cacute" unicode="&#x107;" horiz-adv-x="505" 
d="M265 -8q-101 0 -160.5 63t-59.5 186v28q0 57 16 101t44.5 75t69 47t90.5 16q47 0 83.5 -12.5t62.5 -33.5t42 -50t22 -62h-94q-11 32 -37.5 54t-73.5 22q-60 0 -95.5 -38.5t-35.5 -118.5v-28q0 -87 35.5 -127t95.5 -40q47 0 73.5 23.5t37.5 62.5h94q-6 -37 -22 -67.5
t-42 -53t-62.5 -35t-83.5 -12.5zM325 715h110l-130 -150h-90z" />
    <glyph glyph-name="Ccircumflex" unicode="&#x108;" horiz-adv-x="670" 
d="M350 -8q-66 0 -120 22t-93 65t-60.5 106.5t-21.5 145.5v48q0 78 21.5 139t60.5 103.5t93.5 64.5t119.5 22q60 0 107.5 -17t82 -46.5t56 -69t29.5 -85.5h-100q-8 28 -22.5 52t-36 42t-51 28t-65.5 10q-42 0 -78.5 -15.5t-62.5 -46.5t-41 -76t-15 -105v-48q0 -63 15 -110.5
t41.5 -79t62.5 -47.5t78 -16q73 0 116.5 39.5t58.5 102.5h100q-8 -50 -29.5 -91.5t-56 -72t-82 -47.5t-107.5 -17zM297 915h106l117 -150h-92l-78 85l-78 -85h-92z" />
    <glyph glyph-name="ccircumflex" unicode="&#x109;" horiz-adv-x="505" 
d="M265 -8q-101 0 -160.5 63t-59.5 186v28q0 57 16 101t44.5 75t69 47t90.5 16q47 0 83.5 -12.5t62.5 -33.5t42 -50t22 -62h-94q-11 32 -37.5 54t-73.5 22q-60 0 -95.5 -38.5t-35.5 -118.5v-28q0 -87 35.5 -127t95.5 -40q47 0 73.5 23.5t37.5 62.5h94q-6 -37 -22 -67.5
t-42 -53t-62.5 -35t-83.5 -12.5zM215 715h110l110 -150h-90l-75 85l-75 -85h-90z" />
    <glyph glyph-name="Cdotaccent" unicode="&#x10a;" horiz-adv-x="670" 
d="M350 -8q-66 0 -120 22t-93 65t-60.5 106.5t-21.5 145.5v48q0 78 21.5 139t60.5 103.5t93.5 64.5t119.5 22q60 0 107.5 -17t82 -46.5t56 -69t29.5 -85.5h-100q-8 28 -22.5 52t-36 42t-51 28t-65.5 10q-42 0 -78.5 -15.5t-62.5 -46.5t-41 -76t-15 -105v-48q0 -63 15 -110.5
t41.5 -79t62.5 -47.5t78 -16q73 0 116.5 39.5t58.5 102.5h100q-8 -50 -29.5 -91.5t-56 -72t-82 -47.5t-107.5 -17zM350 773q-26 0 -44 18t-18 44t18 44t44 18t44 -18t18 -44t-18 -44t-44 -18z" />
    <glyph glyph-name="cdotaccent" unicode="&#x10b;" horiz-adv-x="505" 
d="M265 -8q-101 0 -160.5 63t-59.5 186v28q0 57 16 101t44.5 75t69 47t90.5 16q47 0 83.5 -12.5t62.5 -33.5t42 -50t22 -62h-94q-11 32 -37.5 54t-73.5 22q-60 0 -95.5 -38.5t-35.5 -118.5v-28q0 -87 35.5 -127t95.5 -40q47 0 73.5 23.5t37.5 62.5h94q-6 -37 -22 -67.5
t-42 -53t-62.5 -35t-83.5 -12.5zM270 575q-26 0 -43 17t-17 43t17 43t43 17t43 -17t17 -43t-17 -43t-43 -17z" />
    <glyph glyph-name="Ccaron" unicode="&#x10c;" horiz-adv-x="670" 
d="M350 -8q-66 0 -120 22t-93 65t-60.5 106.5t-21.5 145.5v48q0 78 21.5 139t60.5 103.5t93.5 64.5t119.5 22q60 0 107.5 -17t82 -46.5t56 -69t29.5 -85.5h-100q-8 28 -22.5 52t-36 42t-51 28t-65.5 10q-42 0 -78.5 -15.5t-62.5 -46.5t-41 -76t-15 -105v-48q0 -63 15 -110.5
t41.5 -79t62.5 -47.5t78 -16q73 0 116.5 39.5t58.5 102.5h100q-8 -50 -29.5 -91.5t-56 -72t-82 -47.5t-107.5 -17zM180 915h92l78 -85l78 85h92l-117 -150h-106z" />
    <glyph glyph-name="ccaron" unicode="&#x10d;" horiz-adv-x="505" 
d="M265 -8q-101 0 -160.5 63t-59.5 186v28q0 57 16 101t44.5 75t69 47t90.5 16q47 0 83.5 -12.5t62.5 -33.5t42 -50t22 -62h-94q-11 32 -37.5 54t-73.5 22q-60 0 -95.5 -38.5t-35.5 -118.5v-28q0 -87 35.5 -127t95.5 -40q47 0 73.5 23.5t37.5 62.5h94q-6 -37 -22 -67.5
t-42 -53t-62.5 -35t-83.5 -12.5zM105 715h90l75 -85l75 85h90l-110 -150h-110z" />
    <glyph glyph-name="Dcaron" unicode="&#x10e;" horiz-adv-x="680" 
d="M80 700h225q155 0 237.5 -82.5t82.5 -237.5v-50q0 -161 -83 -245.5t-237 -84.5h-225v700zM300 86q112 0 169.5 59.5t57.5 184.5v50q0 116 -58 175t-169 59h-126v-528h126zM150 915h92l78 -85l78 85h92l-117 -150h-106z" />
    <glyph glyph-name="dcaron" unicode="&#x10f;" horiz-adv-x="570" 
d="M247 -8q-90 0 -146 61t-56 183v28q0 60 15 105.5t42 76.5t64 46.5t81 15.5q97 0 156 -68h2v260h90v-700h-70q-1 5 -2.5 15t-3 20.5t-2.5 20t-2 14.5h-2q-57 -78 -166 -78zM272 74q61 0 97 39.5t36 122.5v28q0 81 -36.5 121.5t-96.5 40.5q-61 0 -97 -39.5t-36 -122.5v-28
q0 -81 36.5 -121.5t96.5 -40.5zM555 700h90l-20 -160h-70v160z" />
    <glyph glyph-name="Dcroat" unicode="&#x110;" horiz-adv-x="700" 
d="M100 311h-90v78h90v311h225q155 0 237.5 -82.5t82.5 -237.5v-50q0 -161 -83 -245.5t-237 -84.5h-225v311zM320 86q112 0 169.5 59.5t57.5 184.5v50q0 116 -58 175t-169 59h-126v-225h176v-78h-176v-225h126z" />
    <glyph glyph-name="dcroat" unicode="&#x111;" horiz-adv-x="570" 
d="M247 -8q-45 0 -82 15t-64 44.5t-41.5 72t-14.5 97.5v28q0 54 15 97t42 72t64 44.5t81 15.5q97 0 156 -68h2v125h-210v70h210v95h90v-95h80v-70h-80v-535h-70l-10 70h-2q-57 -78 -166 -78zM272 74q61 0 97 37.5t36 109.5v28q0 70 -36.5 108.5t-96.5 38.5q-61 0 -97 -37.5
t-36 -109.5v-28q0 -70 36.5 -108.5t96.5 -38.5z" />
    <glyph glyph-name="Emacron" unicode="&#x112;" horiz-adv-x="560" 
d="M80 700h435v-86h-341v-211h281v-86h-281v-231h341v-86h-435v700zM148 873h300v-76h-300v76z" />
    <glyph glyph-name="emacron" unicode="&#x113;" horiz-adv-x="540" 
d="M275 -8q-53 0 -95.5 16.5t-72.5 48t-46 76.5t-16 103v28q0 58 16 103.5t45.5 76.5t71 47.5t92.5 16.5t92.5 -16.5t71 -48.5t45.5 -78t16 -106v-36h-356q2 -71 36.5 -110t94.5 -39q48 0 79 18t47 58h94q-18 -78 -73.5 -118t-141.5 -40zM270 426q-57 0 -90 -33t-40 -96h261
q-12 129 -131 129zM130 672h280v-74h-280v74z" />
    <glyph glyph-name="Ebreve" unicode="&#x114;" horiz-adv-x="560" 
d="M80 700h435v-86h-341v-211h281v-86h-281v-231h341v-86h-435v700zM298 762q-68 0 -107.5 38t-42.5 100h74q3 -32 22 -50t54 -18t54 18t22 50h74q-3 -62 -42.5 -100t-107.5 -38z" />
    <glyph glyph-name="ebreve" unicode="&#x115;" horiz-adv-x="540" 
d="M275 -8q-53 0 -95.5 16.5t-72.5 48t-46 76.5t-16 103v28q0 58 16 103.5t45.5 76.5t71 47.5t92.5 16.5t92.5 -16.5t71 -48.5t45.5 -78t16 -106v-36h-356q2 -71 36.5 -110t94.5 -39q48 0 79 18t47 58h94q-18 -78 -73.5 -118t-141.5 -40zM270 426q-57 0 -90 -33t-40 -96h261
q-12 129 -131 129zM270 562q-62 0 -100 38t-40 100h70q3 -70 70 -70t70 70h70q-2 -62 -40 -100t-100 -38z" />
    <glyph glyph-name="Edotaccent" unicode="&#x116;" horiz-adv-x="560" 
d="M80 700h435v-86h-341v-211h281v-86h-281v-231h341v-86h-435v700zM298 773q-26 0 -44 18t-18 44t18 44t44 18t44 -18t18 -44t-18 -44t-44 -18z" />
    <glyph glyph-name="edotaccent" unicode="&#x117;" horiz-adv-x="540" 
d="M275 -8q-53 0 -95.5 16.5t-72.5 48t-46 76.5t-16 103v28q0 58 16 103.5t45.5 76.5t71 47.5t92.5 16.5t92.5 -16.5t71 -48.5t45.5 -78t16 -106v-36h-356q2 -71 36.5 -110t94.5 -39q48 0 79 18t47 58h94q-18 -78 -73.5 -118t-141.5 -40zM270 426q-57 0 -90 -33t-40 -96h261
q-12 129 -131 129zM270 575q-26 0 -43 17t-17 43t17 43t43 17t43 -17t17 -43t-17 -43t-43 -17z" />
    <glyph glyph-name="Eogonek" unicode="&#x118;" horiz-adv-x="560" 
d="M80 700h435v-86h-341v-211h281v-86h-281v-231h341v-86q-27 -23 -42.5 -39t-23.5 -27t-10 -19.5t-2 -16.5q0 -28 33 -28h45v-70h-60q-52 0 -76 22t-24 63q0 23 9.5 49.5t48.5 65.5h-333v700z" />
    <glyph glyph-name="eogonek" unicode="&#x119;" horiz-adv-x="540" 
d="M400 -200q-55 0 -80 22t-25 58q0 15 2 28.5t7.5 27.5t14 30t21.5 37q-17 -6 -34 -8.5t-36 -2.5q-50 0 -91.5 16.5t-71 47.5t-46 75t-16.5 100v38q0 55 16.5 99t46.5 75t71 48t91 17t91.5 -16.5t71 -47.5t46 -75.5t16.5 -99.5v-48h-356q3 -73 39 -110t92 -37
q30 0 50.5 5.5t35.5 15t24.5 23.5t17.5 32h92q-4 -19 -10 -35t-18 -36q-23 -37 -39.5 -64t-27.5 -48t-16.5 -38t-5.5 -34q0 -13 9 -21t28 -8h45v-66h-55zM270 426q-54 0 -88 -31t-41 -96h259q-7 66 -40 96.5t-90 30.5z" />
    <glyph glyph-name="Ecaron" unicode="&#x11a;" horiz-adv-x="560" 
d="M80 700h435v-86h-341v-211h281v-86h-281v-231h341v-86h-435v700zM128 915h92l78 -85l78 85h92l-117 -150h-106z" />
    <glyph glyph-name="ecaron" unicode="&#x11b;" horiz-adv-x="540" 
d="M275 -8q-53 0 -95.5 16.5t-72.5 48t-46 76.5t-16 103v28q0 58 16 103.5t45.5 76.5t71 47.5t92.5 16.5t92.5 -16.5t71 -48.5t45.5 -78t16 -106v-36h-356q2 -71 36.5 -110t94.5 -39q48 0 79 18t47 58h94q-18 -78 -73.5 -118t-141.5 -40zM270 426q-57 0 -90 -33t-40 -96h261
q-12 129 -131 129zM105 715h90l75 -85l75 85h90l-110 -150h-110z" />
    <glyph glyph-name="Gcircumflex" unicode="&#x11c;" horiz-adv-x="690" 
d="M350 -8q-66 0 -120 22t-93 65t-60.5 106.5t-21.5 145.5v48q0 78 21.5 139t60.5 103.5t93.5 64.5t119.5 22q61 0 109.5 -17t84 -46.5t57 -69.5t29.5 -85h-100q-8 28 -22.5 52t-37 42t-52.5 28t-68 10q-42 0 -78.5 -15.5t-62.5 -46.5t-41 -76t-15 -105v-48q0 -63 15 -110.5
t41.5 -79t62.5 -47.5t78 -16q88 0 137 46t57 153h-194v86h285v-33q0 -86 -20 -149.5t-56.5 -105.5t-89.5 -62.5t-119 -20.5zM297 915h106l117 -150h-92l-78 85l-78 -85h-92z" />
    <glyph glyph-name="gcircumflex" unicode="&#x11d;" horiz-adv-x="570" 
d="M247 12q-45 0 -82 15t-64 45t-41.5 73.5t-14.5 100.5v28q0 56 15 99.5t42 73.5t64 45.5t81 15.5q54 0 92.5 -18t73.5 -60h2l10 70h70v-505q0 -98 -53.5 -150.5t-158.5 -52.5q-100 0 -147.5 42.5t-55.5 115.5h94q8 -36 31.5 -56t77.5 -20q65 0 93.5 29t28.5 97v80h-2
q-32 -36 -68.5 -52t-87.5 -16zM272 94q61 0 97 38.5t36 113.5v28q0 74 -36.5 113t-96.5 39q-61 0 -97 -38.5t-36 -113.5v-28q0 -74 36.5 -113t96.5 -39zM215 715h110l110 -150h-90l-75 85l-75 -85h-90z" />
    <glyph glyph-name="Gbreve" unicode="&#x11e;" horiz-adv-x="690" 
d="M350 -8q-66 0 -120 22t-93 65t-60.5 106.5t-21.5 145.5v48q0 78 21.5 139t60.5 103.5t93.5 64.5t119.5 22q61 0 109.5 -17t84 -46.5t57 -69.5t29.5 -85h-100q-8 28 -22.5 52t-37 42t-52.5 28t-68 10q-42 0 -78.5 -15.5t-62.5 -46.5t-41 -76t-15 -105v-48q0 -63 15 -110.5
t41.5 -79t62.5 -47.5t78 -16q88 0 137 46t57 153h-194v86h285v-33q0 -86 -20 -149.5t-56.5 -105.5t-89.5 -62.5t-119 -20.5zM350 762q-68 0 -107.5 38t-42.5 100h74q3 -32 22 -50t54 -18t54 18t22 50h74q-3 -62 -42.5 -100t-107.5 -38z" />
    <glyph glyph-name="gbreve" unicode="&#x11f;" horiz-adv-x="570" 
d="M247 12q-45 0 -82 15t-64 45t-41.5 73.5t-14.5 100.5v28q0 56 15 99.5t42 73.5t64 45.5t81 15.5q54 0 92.5 -18t73.5 -60h2l10 70h70v-505q0 -98 -53.5 -150.5t-158.5 -52.5q-100 0 -147.5 42.5t-55.5 115.5h94q8 -36 31.5 -56t77.5 -20q65 0 93.5 29t28.5 97v80h-2
q-32 -36 -68.5 -52t-87.5 -16zM272 94q61 0 97 38.5t36 113.5v28q0 74 -36.5 113t-96.5 39q-61 0 -97 -38.5t-36 -113.5v-28q0 -74 36.5 -113t96.5 -39zM270 562q-62 0 -100 38t-40 100h70q3 -70 70 -70t70 70h70q-2 -62 -40 -100t-100 -38z" />
    <glyph glyph-name="Gdotaccent" unicode="&#x120;" horiz-adv-x="690" 
d="M350 -8q-66 0 -120 22t-93 65t-60.5 106.5t-21.5 145.5v48q0 78 21.5 139t60.5 103.5t93.5 64.5t119.5 22q61 0 109.5 -17t84 -46.5t57 -69.5t29.5 -85h-100q-8 28 -22.5 52t-37 42t-52.5 28t-68 10q-42 0 -78.5 -15.5t-62.5 -46.5t-41 -76t-15 -105v-48q0 -63 15 -110.5
t41.5 -79t62.5 -47.5t78 -16q88 0 137 46t57 153h-194v86h285v-33q0 -86 -20 -149.5t-56.5 -105.5t-89.5 -62.5t-119 -20.5zM350 773q-26 0 -44 18t-18 44t18 44t44 18t44 -18t18 -44t-18 -44t-44 -18z" />
    <glyph glyph-name="gdotaccent" unicode="&#x121;" horiz-adv-x="570" 
d="M247 12q-45 0 -82 15t-64 45t-41.5 73.5t-14.5 100.5v28q0 56 15 99.5t42 73.5t64 45.5t81 15.5q54 0 92.5 -18t73.5 -60h2l10 70h70v-505q0 -98 -53.5 -150.5t-158.5 -52.5q-100 0 -147.5 42.5t-55.5 115.5h94q8 -36 31.5 -56t77.5 -20q65 0 93.5 29t28.5 97v80h-2
q-32 -36 -68.5 -52t-87.5 -16zM272 94q61 0 97 38.5t36 113.5v28q0 74 -36.5 113t-96.5 39q-61 0 -97 -38.5t-36 -113.5v-28q0 -74 36.5 -113t96.5 -39zM270 575q-26 0 -43 17t-17 43t17 43t43 17t43 -17t17 -43t-17 -43t-43 -17z" />
    <glyph glyph-name="uni0122" unicode="&#x122;" horiz-adv-x="690" 
d="M350 -8q-66 0 -120 22t-93 65t-60.5 106.5t-21.5 145.5v48q0 78 21.5 139t60.5 103.5t93.5 64.5t119.5 22q61 0 109.5 -17t84 -46.5t57 -69.5t29.5 -85h-100q-8 28 -22.5 52t-37 42t-52.5 28t-68 10q-42 0 -78.5 -15.5t-62.5 -46.5t-41 -76t-15 -105v-48q0 -63 15 -110.5
t41.5 -79t62.5 -47.5t78 -16q88 0 137 46t57 153h-194v86h285v-33q0 -86 -20 -149.5t-56.5 -105.5t-89.5 -62.5t-119 -20.5zM310 -50h100l-90 -150h-80z" />
    <glyph glyph-name="uni0123" unicode="&#x123;" horiz-adv-x="560" 
d="M247 12q-45 0 -82 15t-64 45t-41.5 73.5t-14.5 100.5v28q0 56 15 99.5t42 73.5t64 45.5t81 15.5q54 0 92.5 -18t73.5 -60h2l10 70h70v-505q0 -98 -53.5 -150.5t-158.5 -52.5q-100 0 -147.5 42.5t-55.5 115.5h94q8 -36 31.5 -56t77.5 -20q65 0 93.5 29t28.5 97v80h-2
q-32 -36 -68.5 -52t-87.5 -16zM272 94q61 0 97 38.5t36 113.5v28q0 74 -36.5 113t-96.5 39q-61 0 -97 -38.5t-36 -113.5v-28q0 -74 36.5 -113t96.5 -39zM309.005 549.997h-97.9932l91.9941 149.991h77.9951z" />
    <glyph glyph-name="Hcircumflex" unicode="&#x124;" horiz-adv-x="710" 
d="M80 700h94v-297h362v297h94v-700h-94v317h-362v-317h-94v700zM302 915h106l117 -150h-92l-78 85l-78 -85h-92z" />
    <glyph glyph-name="hcircumflex" unicode="&#x125;" horiz-adv-x="575" 
d="M75 700h90v-260h2q57 68 146 68q90 0 141 -53t51 -155v-300h-90v295q0 67 -30.5 99t-89.5 32t-94.5 -35.5t-35.5 -95.5v-295h-90v700zM66 915h110l110 -150h-90l-75 85l-75 -85h-90z" />
    <glyph glyph-name="Hbar" unicode="&#x126;" horiz-adv-x="750" 
d="M100 524h-90v72h90v104h94v-104h362v104h94v-104h90v-72h-90v-524h-94v317h-362v-317h-94v524zM556 403v121h-362v-121h362z" />
    <glyph glyph-name="hbar" unicode="&#x127;" horiz-adv-x="575" 
d="M75 535h-80v70h80v95h90v-95h160v-70h-160v-125h2q57 68 146 68q90 0 141 -53t51 -155v-270h-90v265q0 67 -30.5 99t-89.5 32t-94.5 -35.5t-35.5 -95.5v-265h-90v535z" />
    <glyph glyph-name="Itilde" unicode="&#x128;" horiz-adv-x="270" 
d="M88 700h94v-700h-94v700zM198 765q-28 0 -48 10t-35.5 22t-28.5 22t-28 10q-16 0 -25 -11t-9 -38h-66q0 66 26.5 95.5t73.5 29.5q28 0 47.5 -10t35 -22t29 -22t28.5 -10q16 0 25 11t9 38h66q0 -66 -26.5 -95.5t-73.5 -29.5z" />
    <glyph glyph-name="itilde" unicode="&#x129;" horiz-adv-x="256" 
d="M83 500h90v-500h-90v500zM194 565q-26 0 -44.5 10.5t-33 22.5t-27 22.5t-25.5 10.5q-14 0 -22.5 -11t-8.5 -40h-64q0 65 26.5 95t68.5 30q26 0 44.5 -10.5t33 -22.5t26.5 -22.5t26 -10.5t22.5 11t8.5 40h64q0 -65 -26.5 -95t-68.5 -30z" />
    <glyph glyph-name="Imacron" unicode="&#x12a;" horiz-adv-x="270" 
d="M88 700h94v-700h-94v700zM-14 873h300v-76h-300v76z" />
    <glyph glyph-name="imacron" unicode="&#x12b;" horiz-adv-x="256" 
d="M83 500h90v-500h-90v500zM-11 672h280v-74h-280v74z" />
    <glyph glyph-name="Ibreve" unicode="&#x12c;" horiz-adv-x="270" 
d="M88 700h94v-700h-94v700zM136 762q-68 0 -107.5 38t-42.5 100h74q3 -32 22 -50t54 -18t54 18t22 50h74q-3 -62 -42.5 -100t-107.5 -38z" />
    <glyph glyph-name="ibreve" unicode="&#x12d;" horiz-adv-x="256" 
d="M83 500h90v-500h-90v500zM129 562q-62 0 -100 38t-40 100h70q3 -70 70 -70t70 70h70q-2 -62 -40 -100t-100 -38z" />
    <glyph glyph-name="Iogonek" unicode="&#x12e;" horiz-adv-x="270" 
d="M88 700h94v-700q-27 -23 -42.5 -39t-23.5 -27t-10 -19.5t-2 -16.5q0 -28 33 -28h45v-70h-60q-52 0 -76 22t-24 63q0 12 2 25t8.5 27.5t19.5 32t36 38.5v692z" />
    <glyph glyph-name="iogonek" unicode="&#x12f;" horiz-adv-x="256" 
d="M128 575q-26 0 -43 17t-17 43t17 43t43 17t43 -17t17 -43t-17 -43t-43 -17zM83 500h90v-500q-28 -23 -44.5 -39.5t-24.5 -28.5t-10.5 -21t-2.5 -16q0 -13 9 -21t28 -8h45v-66h-60q-52 0 -76 21.5t-24 58.5q0 14 2 27.5t9.5 28.5t21.5 32.5t37 39.5v492z" />
    <glyph glyph-name="Idotaccent" unicode="&#x130;" horiz-adv-x="270" 
d="M88 700h94v-700h-94v700zM135 773q-26 0 -44 18t-18 44t18 44t44 18t44 -18t18 -44t-18 -44t-44 -18z" />
    <glyph glyph-name="dotlessi" unicode="&#x131;" horiz-adv-x="256" 
d="M83 500h90v-500h-90v500z" />
    <glyph glyph-name="Jcircumflex" unicode="&#x134;" horiz-adv-x="535" 
d="M240 -8q-98 0 -155 58t-65 170h94q8 -77 38.5 -109.5t87.5 -32.5q46 0 71.5 18.5t37.5 45t14.5 56t2.5 52.5v450h94v-455q0 -13 -1 -36.5t-7.5 -51.5t-20 -57.5t-38 -53.5t-62 -39t-91.5 -15zM360 915h106l117 -150h-92l-78 85l-78 -85h-92z" />
    <glyph glyph-name="jcircumflex" unicode="&#x135;" horiz-adv-x="256" 
d="M-17 -118h23q28 0 44 10t23 25t8.5 33t1.5 35v515h90v-520q0 -26 -3 -57.5t-18.5 -58.5t-49.5 -45.5t-96 -18.5h-23v82zM74 715h110l110 -150h-90l-75 85l-75 -85h-90z" />
    <glyph glyph-name="uni0136" unicode="&#x136;" horiz-adv-x="635" 
d="M80 700h94v-367l300 367h116l-257 -310l277 -390h-118l-225 319l-93 -111v-208h-94v700zM275 -50h100l-90 -150h-80z" />
    <glyph glyph-name="uni0137" unicode="&#x137;" horiz-adv-x="510" 
d="M75 700h90v-457l204 257h106l-174 -219l194 -281h-108l-144 213l-78 -97v-116h-90v700zM216 -50h98l-92 -150h-78z" />
    <glyph glyph-name="kgreenlandic" unicode="&#x138;" horiz-adv-x="510" 
d="M75 500h90v-257l204 257h106l-174 -219l194 -281h-108l-144 213l-78 -97v-116h-90v500z" />
    <glyph glyph-name="Lacute" unicode="&#x139;" horiz-adv-x="515" 
d="M80 700h94v-614h321v-86h-415v700zM189 915h112l-138 -150h-92z" />
    <glyph glyph-name="lacute" unicode="&#x13a;" horiz-adv-x="290" 
d="M221 0q-54 0 -84 19t-43.5 44t-16 49t-2.5 35v553h90v-543q0 -75 69 -75h31v-82h-44v0zM175 915h110l-130 -150h-90z" />
    <glyph glyph-name="uni013B" unicode="&#x13b;" horiz-adv-x="515" 
d="M80 700h94v-614h321v-86h-415v700zM248 -50h100l-90 -150h-80z" />
    <glyph glyph-name="uni013C" unicode="&#x13c;" horiz-adv-x="290" 
d="M221 0q-54 0 -84 19t-43.5 44t-16 49t-2.5 35v553h90v-543q0 -75 69 -75h31v-82h-44v0zM141 -50h98l-92 -150h-78z" />
    <glyph glyph-name="Lcaron" unicode="&#x13d;" horiz-adv-x="515" 
d="M80 700h94v-614h321v-86h-415v700zM294 700h90l-20 -170h-70v170z" />
    <glyph glyph-name="lcaron" unicode="&#x13e;" horiz-adv-x="290" 
d="M221 0q-54 0 -84 19t-43.5 44t-16 49t-2.5 35v553h90v-543q0 -75 69 -75h31v-82h-44v0zM225 700h90l-20 -160h-70v160z" />
    <glyph glyph-name="Ldot" unicode="&#x13f;" horiz-adv-x="515" 
d="M80 700h94v-614h321v-86h-415v700zM384 334q-26 0 -44 18t-18 44t18 44t44 18t44 -18t18 -44t-18 -44t-44 -18z" />
    <glyph glyph-name="ldot" unicode="&#x140;" horiz-adv-x="325" 
d="M221 0q-54 0 -84 19t-43.5 44t-16 49t-2.5 35v553h90v-543q0 -75 69 -75h31v-82h-44v0zM282 305q-26 0 -43 17t-17 43t17 43t43 17t43 -17t17 -43t-17 -43t-43 -17z" />
    <glyph glyph-name="Lslash" unicode="&#x141;" horiz-adv-x="570" 
d="M135 289l-120 -66v84l120 66v327h94v-275l151 83v-84l-151 -83v-255h321v-86h-415v289z" />
    <glyph glyph-name="lslash" unicode="&#x142;" horiz-adv-x="310" 
d="M236 0q-54 0 -84 19t-43.5 44t-16 49t-2.5 35v171l-80 -45v84l80 45v298h90v-248l100 56v-84l-100 -56v-211q0 -75 69 -75h31v-82h-44v0z" />
    <glyph glyph-name="Nacute" unicode="&#x143;" horiz-adv-x="710" 
d="M80 700h138l316 -576h2v576h94v-700h-130l-324 590h-2v-590h-94v700zM417 915h112l-138 -150h-92z" />
    <glyph glyph-name="nacute" unicode="&#x144;" horiz-adv-x="575" 
d="M75 500h70l9 -65h2q32 38 69.5 55.5t87.5 17.5q90 0 141 -53t51 -155v-300h-90v295q0 67 -30.5 99t-89.5 32t-94.5 -35.5t-35.5 -95.5v-295h-90v500zM345 715h110l-130 -150h-90z" />
    <glyph glyph-name="uni0145" unicode="&#x145;" horiz-adv-x="710" 
d="M80 700h138l316 -576h2v576h94v-700h-130l-324 590h-2v-590h-94v700zM315 -50h100l-90 -150h-80z" />
    <glyph glyph-name="uni0146" unicode="&#x146;" horiz-adv-x="575" 
d="M75 500h70l9 -65h2q32 38 69.5 55.5t87.5 17.5q90 0 141 -53t51 -155v-300h-90v295q0 67 -30.5 99t-89.5 32t-94.5 -35.5t-35.5 -95.5v-295h-90v500zM251 -50h98l-92 -150h-78z" />
    <glyph glyph-name="Ncaron" unicode="&#x147;" horiz-adv-x="710" 
d="M80 700h138l316 -576h2v576h94v-700h-130l-324 590h-2v-590h-94v700zM185 915h92l78 -85l78 85h92l-117 -150h-106z" />
    <glyph glyph-name="ncaron" unicode="&#x148;" horiz-adv-x="575" 
d="M75 500h70l9 -65h2q32 38 69.5 55.5t87.5 17.5q90 0 141 -53t51 -155v-300h-90v295q0 67 -30.5 99t-89.5 32t-94.5 -35.5t-35.5 -95.5v-295h-90v500zM125 715h90l75 -85l75 85h90l-110 -150h-110z" />
    <glyph glyph-name="napostrophe" unicode="&#x149;" horiz-adv-x="660" 
d="M160 500h70l9 -65h2q32 38 69.5 55.5t87.5 17.5q90 0 141 -53t51 -155v-300h-90v295q0 67 -30.5 99t-89.5 32t-94.5 -35.5t-35.5 -95.5v-295h-90v500zM63 700h98l-78 -250h-82z" />
    <glyph glyph-name="Eng" unicode="&#x14a;" horiz-adv-x="710" 
d="M80 700h136l318 -520h2v520h94v-620q0 -146 -62.5 -213t-182.5 -67h-40v86h40q60 0 96.5 28t48.5 96l-354 580h-2v-590h-94v700z" />
    <glyph glyph-name="eng" unicode="&#x14b;" horiz-adv-x="575" 
d="M75 500h70l9 -65h2q32 38 69.5 55.5t87.5 17.5q90 0 141 -53t51 -155v-263q0 -126 -49.5 -181.5t-140.5 -55.5h-30v82h21q27 0 47.5 7.5t34 26t20.5 49.5t7 77v253q0 67 -30.5 99t-89.5 32t-94.5 -35.5t-35.5 -95.5v-295h-90v500z" />
    <glyph glyph-name="Omacron" unicode="&#x14c;" horiz-adv-x="710" 
d="M355 -8q-68 0 -123 22t-94.5 65t-61 106.5t-21.5 145.5v48q0 78 21.5 139t61 103.5t95 64.5t122.5 22t122.5 -22t95 -64t61 -103.5t21.5 -139.5v-48q0 -82 -21.5 -145t-61 -106t-95 -65.5t-122.5 -22.5zM355 78q90 0 146 62.5t56 190.5v48q0 60 -15 105.5t-41.5 76
t-63.5 46t-82 15.5t-82 -15t-64 -45.5t-41.5 -76t-14.5 -106.5v-48q0 -64 15 -111.5t42 -79t64 -47t81 -15.5zM205 873h300v-76h-300v76z" />
    <glyph glyph-name="omacron" unicode="&#x14d;" horiz-adv-x="550" 
d="M275 -8q-107 0 -168.5 63t-61.5 181v28q0 117 62 180.5t168 63.5q107 0 168.5 -63t61.5 -181v-28q0 -117 -62 -180.5t-168 -63.5zM275 74q63 0 99.5 39.5t36.5 122.5v28q0 82 -36.5 122t-99.5 40t-99.5 -39.5t-36.5 -122.5v-28q0 -82 36.5 -122t99.5 -40zM135 672h280
v-74h-280v74z" />
    <glyph glyph-name="Obreve" unicode="&#x14e;" horiz-adv-x="710" 
d="M355 -8q-68 0 -123 22t-94.5 65t-61 106.5t-21.5 145.5v48q0 78 21.5 139t61 103.5t95 64.5t122.5 22t122.5 -22t95 -64t61 -103.5t21.5 -139.5v-48q0 -82 -21.5 -145t-61 -106t-95 -65.5t-122.5 -22.5zM355 78q90 0 146 62.5t56 190.5v48q0 60 -15 105.5t-41.5 76
t-63.5 46t-82 15.5t-82 -15t-64 -45.5t-41.5 -76t-14.5 -106.5v-48q0 -64 15 -111.5t42 -79t64 -47t81 -15.5zM355 762q-68 0 -107.5 38t-42.5 100h74q3 -32 22 -50t54 -18t54 18t22 50h74q-3 -62 -42.5 -100t-107.5 -38z" />
    <glyph glyph-name="obreve" unicode="&#x14f;" horiz-adv-x="550" 
d="M275 -8q-107 0 -168.5 63t-61.5 181v28q0 117 62 180.5t168 63.5q107 0 168.5 -63t61.5 -181v-28q0 -117 -62 -180.5t-168 -63.5zM275 74q63 0 99.5 39.5t36.5 122.5v28q0 82 -36.5 122t-99.5 40t-99.5 -39.5t-36.5 -122.5v-28q0 -82 36.5 -122t99.5 -40zM275 562
q-62 0 -100 38t-40 100h70q3 -70 70 -70t70 70h70q-2 -62 -40 -100t-100 -38z" />
    <glyph glyph-name="Ohungarumlaut" unicode="&#x150;" horiz-adv-x="710" 
d="M355 -8q-68 0 -123 22t-94.5 65t-61 106.5t-21.5 145.5v48q0 78 21.5 139t61 103.5t95 64.5t122.5 22t122.5 -22t95 -64t61 -103.5t21.5 -139.5v-48q0 -82 -21.5 -145t-61 -106t-95 -65.5t-122.5 -22.5zM355 78q90 0 146 62.5t56 190.5v48q0 60 -15 105.5t-41.5 76
t-63.5 46t-82 15.5t-82 -15t-64 -45.5t-41.5 -76t-14.5 -106.5v-48q0 -64 15 -111.5t42 -79t64 -47t81 -15.5zM327 915h106l-118 -150h-86zM487 915h112l-138 -150h-92z" />
    <glyph glyph-name="ohungarumlaut" unicode="&#x151;" horiz-adv-x="550" 
d="M275 -8q-107 0 -168.5 63t-61.5 181v28q0 117 62 180.5t168 63.5q107 0 168.5 -63t61.5 -181v-28q0 -117 -62 -180.5t-168 -63.5zM275 74q63 0 99.5 39.5t36.5 122.5v28q0 82 -36.5 122t-99.5 40t-99.5 -39.5t-36.5 -122.5v-28q0 -82 36.5 -122t99.5 -40zM242 715h104
l-112 -150h-84zM400 715h110l-130 -150h-90z" />
    <glyph glyph-name="OE" unicode="&#x152;" horiz-adv-x="960" 
d="M358 -8q-68 0 -124 22.5t-95.5 64.5t-61.5 103t-22 139v58q0 77 22 138t62 103.5t96 65t123 22.5q39 0 70 -7.5t55 -18.5v18h432v-86h-338v-211h278v-86h-278v-231h338v-86h-432v18q-24 -11 -55 -18.5t-70 -7.5zM153 321q0 -58 15.5 -102.5t42.5 -75t64.5 -46t82.5 -15.5
q39 0 70 10.5t55 25.5v463q-24 16 -55 26.5t-70 10.5q-45 0 -83 -15.5t-65 -45.5t-42 -75t-15 -103v-58z" />
    <glyph glyph-name="oe" unicode="&#x153;" horiz-adv-x="910" 
d="M275 -8q-53 0 -95.5 16.5t-72.5 47t-46 75t-16 100.5v38q0 56 16 100.5t46 75t72.5 47t95.5 16.5q61 0 108 -25t76 -72q29 47 75.5 72t103.5 25q50 0 92 -16.5t72 -47.5t46.5 -75.5t16.5 -99.5v-48h-360q3 -73 39.5 -110t93.5 -37q60 0 87.5 20.5t42.5 55.5h92
q-8 -35 -24.5 -64t-43.5 -50t-65 -32.5t-89 -11.5q-58 0 -104.5 24.5t-75.5 71.5q-29 -47 -76 -71.5t-107 -24.5zM638 426q-54 0 -89 -31.5t-42 -95.5h263q-7 66 -41 96.5t-91 30.5zM275 78q63 0 99.5 39t36.5 114v38q0 75 -36.5 114t-99.5 39t-99.5 -39t-36.5 -114v-38
q0 -75 36.5 -114t99.5 -39z" />
    <glyph glyph-name="Racute" unicode="&#x154;" horiz-adv-x="620" 
d="M80 700h235q130 0 192.5 -57.5t62.5 -155.5q0 -70 -32.5 -120t-99.5 -74l152 -293h-106l-138 275q-8 -1 -15.5 -1h-15.5h-141v-274h-94v700zM310 360q87 0 124.5 33t37.5 94q0 60 -38 93.5t-124 33.5h-136v-254h136zM352 915h112l-138 -150h-92z" />
    <glyph glyph-name="racute" unicode="&#x155;" horiz-adv-x="375" 
d="M75 500h70l10 -70h2q29 42 66 60t90 18h47v-82h-55q-68 0 -104 -35t-36 -96v-295h-90v500zM273 715h110l-130 -150h-90z" />
    <glyph glyph-name="uni0156" unicode="&#x156;" horiz-adv-x="620" 
d="M80 700h235q130 0 192.5 -57.5t62.5 -155.5q0 -70 -32.5 -120t-99.5 -74l152 -293h-106l-138 275q-8 -1 -15.5 -1h-15.5h-141v-274h-94v700zM310 360q87 0 124.5 33t37.5 94q0 60 -38 93.5t-124 33.5h-136v-254h136zM284 -50h100l-90 -150h-80z" />
    <glyph glyph-name="uni0157" unicode="&#x157;" horiz-adv-x="375" 
d="M75 500h70l10 -70h2q29 42 66 60t90 18h47v-82h-55q-68 0 -104 -35t-36 -96v-295h-90v500zM82 -50h98l-92 -150h-78z" />
    <glyph glyph-name="Rcaron" unicode="&#x158;" horiz-adv-x="620" 
d="M80 700h235q130 0 192.5 -57.5t62.5 -155.5q0 -70 -32.5 -120t-99.5 -74l152 -293h-106l-138 275q-8 -1 -15.5 -1h-15.5h-141v-274h-94v700zM310 360q87 0 124.5 33t37.5 94q0 60 -38 93.5t-124 33.5h-136v-254h136zM120 915h92l78 -85l78 85h92l-117 -150h-106z" />
    <glyph glyph-name="rcaron" unicode="&#x159;" horiz-adv-x="375" 
d="M75 500h70l10 -70h2q29 42 66 60t90 18h47v-82h-55q-68 0 -104 -35t-36 -96v-295h-90v500zM53 715h90l75 -85l75 85h90l-110 -150h-110z" />
    <glyph glyph-name="Sacute" unicode="&#x15a;" horiz-adv-x="610" 
d="M315 -8q-128 0 -192.5 60t-72.5 168h100q8 -71 46 -106.5t119 -35.5q77 0 112 30.5t35 79.5q0 32 -17.5 52.5t-45.5 34t-64 23.5t-74 20.5t-74 24.5t-64 36.5t-45.5 56t-17.5 82.5q0 40 15.5 75t45.5 60.5t75 40t104 14.5q124 0 185.5 -57.5t69.5 -160.5h-100
q-4 34 -14 59t-28 41.5t-46 24t-67 7.5q-75 0 -108.5 -29.5t-33.5 -74.5q0 -33 17.5 -54t45.5 -35t64 -23.5t74 -19.5t74 -23.5t64 -36t45.5 -56t17.5 -83.5q0 -43 -15 -79t-45.5 -61.5t-76.5 -40t-108 -14.5zM362 915h112l-138 -150h-92z" />
    <glyph glyph-name="sacute" unicode="&#x15b;" horiz-adv-x="490" 
d="M255 -8q-104 0 -153.5 42.5t-56.5 115.5h94q8 -36 31.5 -56t79.5 -20q57 0 79 17.5t22 45.5q0 29 -22 44.5t-55 25.5t-71 19t-71 25t-55 43t-22 74q0 30 11.5 55.5t34.5 44t57.5 29.5t81.5 11q98 0 145 -41t55 -107h-94q-4 15 -11 27t-19 21t-30.5 13.5t-45.5 4.5
q-50 0 -70.5 -16.5t-20.5 -41.5q0 -27 22 -41t55 -23t71 -18t71 -25.5t55 -45.5t22 -78q0 -31 -11.5 -57.5t-35 -46t-59.5 -30.5t-84 -11zM300 715h110l-130 -150h-90z" />
    <glyph glyph-name="Scircumflex" unicode="&#x15c;" horiz-adv-x="610" 
d="M315 -8q-128 0 -192.5 60t-72.5 168h100q8 -71 46 -106.5t119 -35.5q77 0 112 30.5t35 79.5q0 32 -17.5 52.5t-45.5 34t-64 23.5t-74 20.5t-74 24.5t-64 36.5t-45.5 56t-17.5 82.5q0 40 15.5 75t45.5 60.5t75 40t104 14.5q124 0 185.5 -57.5t69.5 -160.5h-100
q-4 34 -14 59t-28 41.5t-46 24t-67 7.5q-75 0 -108.5 -29.5t-33.5 -74.5q0 -33 17.5 -54t45.5 -35t64 -23.5t74 -19.5t74 -23.5t64 -36t45.5 -56t17.5 -83.5q0 -43 -15 -79t-45.5 -61.5t-76.5 -40t-108 -14.5zM247 915h106l117 -150h-92l-78 85l-78 -85h-92z" />
    <glyph glyph-name="scircumflex" unicode="&#x15d;" horiz-adv-x="490" 
d="M255 -8q-104 0 -153.5 42.5t-56.5 115.5h94q8 -36 31.5 -56t79.5 -20q57 0 79 17.5t22 45.5q0 29 -22 44.5t-55 25.5t-71 19t-71 25t-55 43t-22 74q0 30 11.5 55.5t34.5 44t57.5 29.5t81.5 11q98 0 145 -41t55 -107h-94q-4 15 -11 27t-19 21t-30.5 13.5t-45.5 4.5
q-50 0 -70.5 -16.5t-20.5 -41.5q0 -27 22 -41t55 -23t71 -18t71 -25.5t55 -45.5t22 -78q0 -31 -11.5 -57.5t-35 -46t-59.5 -30.5t-84 -11zM190 715h110l110 -150h-90l-75 85l-75 -85h-90z" />
    <glyph glyph-name="Scedilla" unicode="&#x15e;" horiz-adv-x="610" 
d="M230 -138h55q23 0 32 7t9 21t-9 21t-32 7h-21l19 75q-112 8 -169 67t-64 160h100q8 -71 46 -106.5t119 -35.5q77 0 112 30.5t35 79.5q0 32 -17.5 52.5t-45.5 34t-64 23.5t-74 20.5t-74 24.5t-64 36.5t-45.5 56t-17.5 82.5q0 40 15.5 75t45.5 60.5t75 40t104 14.5
q124 0 185.5 -57.5t69.5 -160.5h-100q-4 34 -14 59t-28 41.5t-46 24t-67 7.5q-75 0 -108.5 -29.5t-33.5 -74.5q0 -33 17.5 -54t45.5 -35t64 -23.5t74 -19.5t74 -23.5t64 -36t45.5 -56t17.5 -83.5q0 -81 -53.5 -134t-163.5 -60l-7 -28q64 -14 64 -79q0 -38 -25.5 -62
t-74.5 -24h-70v62z" />
    <glyph glyph-name="scedilla" unicode="&#x15f;" horiz-adv-x="490" 
d="M160 -142h55q26 0 35.5 7.5t9.5 24.5t-9.5 24.5t-35.5 7.5h-21l19 72q-82 8 -121.5 49t-46.5 107h94q8 -36 31.5 -56t79.5 -20q57 0 79 17.5t22 45.5q0 29 -22 44.5t-55 25.5t-71 19t-71 25t-55 43t-22 74q0 30 11.5 55.5t34.5 44t57.5 29.5t81.5 11q98 0 145 -41
t55 -107h-94q-4 15 -11 27t-19 21t-30.5 13.5t-45.5 4.5q-50 0 -70.5 -16.5t-20.5 -41.5q0 -27 22 -41t55 -23t71 -18t71 -25.5t55 -45.5t22 -78q0 -59 -42 -99.5t-130 -45.5l-7 -27q64 -14 64 -79q0 -38 -25.5 -62t-74.5 -24h-70v58z" />
    <glyph glyph-name="Scaron" unicode="&#x160;" horiz-adv-x="610" 
d="M315 -8q-128 0 -192.5 60t-72.5 168h100q8 -71 46 -106.5t119 -35.5q77 0 112 30.5t35 79.5q0 32 -17.5 52.5t-45.5 34t-64 23.5t-74 20.5t-74 24.5t-64 36.5t-45.5 56t-17.5 82.5q0 40 15.5 75t45.5 60.5t75 40t104 14.5q124 0 185.5 -57.5t69.5 -160.5h-100
q-4 34 -14 59t-28 41.5t-46 24t-67 7.5q-75 0 -108.5 -29.5t-33.5 -74.5q0 -33 17.5 -54t45.5 -35t64 -23.5t74 -19.5t74 -23.5t64 -36t45.5 -56t17.5 -83.5q0 -43 -15 -79t-45.5 -61.5t-76.5 -40t-108 -14.5zM130 915h92l78 -85l78 85h92l-117 -150h-106z" />
    <glyph glyph-name="scaron" unicode="&#x161;" horiz-adv-x="490" 
d="M255 -8q-104 0 -153.5 42.5t-56.5 115.5h94q8 -36 31.5 -56t79.5 -20q57 0 79 17.5t22 45.5q0 29 -22 44.5t-55 25.5t-71 19t-71 25t-55 43t-22 74q0 30 11.5 55.5t34.5 44t57.5 29.5t81.5 11q98 0 145 -41t55 -107h-94q-4 15 -11 27t-19 21t-30.5 13.5t-45.5 4.5
q-50 0 -70.5 -16.5t-20.5 -41.5q0 -27 22 -41t55 -23t71 -18t71 -25.5t55 -45.5t22 -78q0 -31 -11.5 -57.5t-35 -46t-59.5 -30.5t-84 -11zM80 715h90l75 -85l75 85h90l-110 -150h-110z" />
    <glyph glyph-name="uni0162" unicode="&#x162;" horiz-adv-x="580" 
d="M243 614h-223v86h540v-86h-223v-614h-17l-9 -35q64 -14 64 -79q0 -38 -25.5 -62t-74.5 -24h-70v62h55q23 0 32 7t9 21t-9 21t-32 7h-21l21 82h-17v614z" />
    <glyph glyph-name="uni0163" unicode="&#x163;" horiz-adv-x="360" 
d="M145 -142h55q26 0 35.5 7.5t9.5 24.5t-9.5 24.5t-35.5 7.5h-21l22 84q-36 9 -55.5 29t-28.5 42t-10.5 41.5t-1.5 28.5v271h-90v82h90v140h90v-140h130v-82h-130v-261q0 -75 70 -75h70v-82h-75l-9 -35q64 -14 64 -79q0 -38 -25.5 -62t-74.5 -24h-70v58z" />
    <glyph glyph-name="Tcaron" unicode="&#x164;" horiz-adv-x="580" 
d="M243 614h-223v86h540v-86h-223v-614h-94v614zM120 915h92l78 -85l78 85h92l-117 -150h-106z" />
    <glyph glyph-name="tcaron" unicode="&#x165;" horiz-adv-x="360" 
d="M252 0q-55 0 -84.5 19t-43.5 44t-16.5 49.5t-2.5 34.5v271h-90v82h90v140h90v-140h130v-82h-130v-261q0 -75 70 -75h70v-82h-83v0zM255 720h90l-20 -160h-70v160z" />
    <glyph glyph-name="Tbar" unicode="&#x166;" horiz-adv-x="580" 
d="M243 311h-133v78h133v225h-223v86h540v-86h-223v-225h133v-78h-133v-311h-94v311z" />
    <glyph glyph-name="tbar" unicode="&#x167;" horiz-adv-x="370" 
d="M20 301h90v117h-90v82h90v140h90v-140h130v-82h-130v-117h130v-82h-130v-62q0 -75 70 -75h70v-82h-83q-55 0 -84.5 19t-43.5 44t-16.5 49.5t-2.5 34.5v72h-90v82z" />
    <glyph glyph-name="Utilde" unicode="&#x168;" horiz-adv-x="690" 
d="M345 -8q-62 0 -112 19t-85 55.5t-54 89t-19 119.5v425h94v-420q0 -100 48 -151t128 -51q81 0 128.5 50.5t47.5 151.5v420h94v-425q0 -66 -19 -118.5t-54.5 -89t-85.5 -56t-111 -19.5zM407 765q-28 0 -48 10t-35.5 22t-28.5 22t-28 10q-16 0 -25 -11t-9 -38h-66
q0 66 26.5 95.5t73.5 29.5q28 0 47.5 -10t35 -22t29 -22t28.5 -10q16 0 25 11t9 38h66q0 -66 -26.5 -95.5t-73.5 -29.5z" />
    <glyph glyph-name="utilde" unicode="&#x169;" horiz-adv-x="565" 
d="M252 -8q-82 0 -132 53t-50 155v300h90v-295q0 -67 29.5 -99t80.5 -32q59 0 94.5 35.5t35.5 95.5v295h90v-500h-70l-9 65h-2q-30 -38 -68 -55.5t-89 -17.5zM345 565q-26 0 -44.5 10.5t-33 22.5t-27 22.5t-25.5 10.5q-14 0 -22.5 -11t-8.5 -40h-64q0 65 26.5 95t68.5 30
q26 0 44.5 -10.5t33 -22.5t26.5 -22.5t26 -10.5t22.5 11t8.5 40h64q0 -65 -26.5 -95t-68.5 -30z" />
    <glyph glyph-name="Umacron" unicode="&#x16a;" horiz-adv-x="690" 
d="M345 -8q-62 0 -112 19t-85 55.5t-54 89t-19 119.5v425h94v-420q0 -100 48 -151t128 -51q81 0 128.5 50.5t47.5 151.5v420h94v-425q0 -66 -19 -118.5t-54.5 -89t-85.5 -56t-111 -19.5zM195 873h300v-76h-300v76z" />
    <glyph glyph-name="umacron" unicode="&#x16b;" horiz-adv-x="565" 
d="M252 -8q-82 0 -132 53t-50 155v300h90v-295q0 -67 29.5 -99t80.5 -32q59 0 94.5 35.5t35.5 95.5v295h90v-500h-70l-9 65h-2q-30 -38 -68 -55.5t-89 -17.5zM140 672h280v-74h-280v74z" />
    <glyph glyph-name="Ubreve" unicode="&#x16c;" horiz-adv-x="690" 
d="M345 -8q-62 0 -112 19t-85 55.5t-54 89t-19 119.5v425h94v-420q0 -100 48 -151t128 -51q81 0 128.5 50.5t47.5 151.5v420h94v-425q0 -66 -19 -118.5t-54.5 -89t-85.5 -56t-111 -19.5zM345 762q-68 0 -107.5 38t-42.5 100h74q3 -32 22 -50t54 -18t54 18t22 50h74
q-3 -62 -42.5 -100t-107.5 -38z" />
    <glyph glyph-name="ubreve" unicode="&#x16d;" horiz-adv-x="565" 
d="M252 -8q-82 0 -132 53t-50 155v300h90v-295q0 -67 29.5 -99t80.5 -32q59 0 94.5 35.5t35.5 95.5v295h90v-500h-70l-9 65h-2q-30 -38 -68 -55.5t-89 -17.5zM280 562q-62 0 -100 38t-40 100h70q3 -70 70 -70t70 70h70q-2 -62 -40 -100t-100 -38z" />
    <glyph glyph-name="Uring" unicode="&#x16e;" horiz-adv-x="690" 
d="M345 -8q-62 0 -112 19t-85 55.5t-54 89t-19 119.5v425h94v-420q0 -100 48 -151t128 -51q81 0 128.5 50.5t47.5 151.5v420h94v-425q0 -66 -19 -118.5t-54.5 -89t-85.5 -56t-111 -19.5zM345 729q-49 0 -79.5 30t-30.5 76t30.5 76t79.5 30t79.5 -30t30.5 -76t-30.5 -76
t-79.5 -30zM345 787q21 0 34.5 13.5t13.5 34.5t-13.5 34.5t-34.5 13.5t-34.5 -13.5t-13.5 -34.5t13.5 -34.5t34.5 -13.5z" />
    <glyph glyph-name="uring" unicode="&#x16f;" horiz-adv-x="565" 
d="M252 -8q-82 0 -132 53t-50 155v300h90v-295q0 -67 29.5 -99t80.5 -32q59 0 94.5 35.5t35.5 95.5v295h90v-500h-70l-9 65h-2q-30 -38 -68 -55.5t-89 -17.5zM280 529q-49 0 -79.5 30t-30.5 76t30.5 76t79.5 30t79.5 -30t30.5 -76t-30.5 -76t-79.5 -30zM280 585
q23 0 36.5 13.5t13.5 36.5t-13.5 36.5t-36.5 13.5t-36.5 -13.5t-13.5 -36.5t13.5 -36.5t36.5 -13.5z" />
    <glyph glyph-name="Uhungarumlaut" unicode="&#x170;" horiz-adv-x="690" 
d="M345 -8q-62 0 -112 19t-85 55.5t-54 89t-19 119.5v425h94v-420q0 -100 48 -151t128 -51q81 0 128.5 50.5t47.5 151.5v420h94v-425q0 -66 -19 -118.5t-54.5 -89t-85.5 -56t-111 -19.5zM317 915h106l-118 -150h-86zM477 915h112l-138 -150h-92z" />
    <glyph glyph-name="uhungarumlaut" unicode="&#x171;" horiz-adv-x="565" 
d="M252 -8q-82 0 -132 53t-50 155v300h90v-295q0 -67 29.5 -99t80.5 -32q59 0 94.5 35.5t35.5 95.5v295h90v-500h-70l-9 65h-2q-30 -38 -68 -55.5t-89 -17.5zM247 715h104l-112 -150h-84zM405 715h110l-130 -150h-90z" />
    <glyph glyph-name="Uogonek" unicode="&#x172;" horiz-adv-x="690" 
d="M345 -8q-62 0 -112 19t-85 55.5t-54 89t-19 119.5v425h94v-420q0 -100 48 -151t128 -51q81 0 128.5 50.5t47.5 151.5v420h94v-425q0 -83 -29 -143.5t-83 -95.5q-59 -50 -87.5 -80.5t-28.5 -57.5q0 -28 33 -28h45v-70h-55q-55 0 -80 22.5t-25 62.5q0 26 13.5 52t41.5 56
q-4 0 -7.5 -0.5t-7.5 -0.5z" />
    <glyph glyph-name="uogonek" unicode="&#x173;" horiz-adv-x="565" 
d="M252 -8q-82 0 -132 53t-50 155v300h90v-295q0 -67 29.5 -99t80.5 -32q59 0 94.5 35.5t35.5 95.5v295h90v-500q-28 -23 -44.5 -39.5t-24.5 -28.5t-10.5 -21t-2.5 -16q0 -13 9 -21t28 -8h45v-66h-60q-52 0 -76 21.5t-24 58.5q0 15 3 30t12 31.5t26 36t46 45.5l-6 42h-2
q-30 -38 -68 -55.5t-89 -17.5z" />
    <glyph glyph-name="Wcircumflex" unicode="&#x174;" horiz-adv-x="970" 
d="M30 700h98l153 -590h2l140 590h124l154 -590h2l145 590h92l-178 -700h-124l-154 590h-2l-140 -590h-124zM432 915h106l117 -150h-92l-78 85l-78 -85h-92z" />
    <glyph glyph-name="wcircumflex" unicode="&#x175;" horiz-adv-x="770" 
d="M25 500h96l107 -400h2l93 400h122l108 -400h2l100 400h90l-129 -500h-122l-110 400h-2l-96 -400h-122zM330 715h110l110 -150h-90l-75 85l-75 -85h-90z" />
    <glyph glyph-name="Ycircumflex" unicode="&#x176;" horiz-adv-x="650" 
d="M288 245l-268 455h108l209 -353l191 353h102l-248 -455v-245h-94v245zM275 915h106l117 -150h-92l-78 85l-78 -85h-92z" />
    <glyph glyph-name="ycircumflex" unicode="&#x177;" horiz-adv-x="520" 
d="M219 0l-204 500h98l153 -390h2l145 390h92l-271 -700h-92zM208 715h110l110 -150h-90l-75 85l-75 -85h-90z" />
    <glyph glyph-name="Ydieresis" unicode="&#x178;" horiz-adv-x="650" 
d="M288 245l-268 455h108l209 -353l191 353h102l-248 -455v-245h-94v245zM225 773q-26 0 -44 18t-18 44t18 44t44 18t44 -18t18 -44t-18 -44t-44 -18zM431 773q-26 0 -44 18t-18 44t18 44t44 18t44 -18t18 -44t-18 -44t-44 -18z" />
    <glyph glyph-name="Zacute" unicode="&#x179;" horiz-adv-x="585" 
d="M45 86l388 526v2h-378v86h490v-86l-388 -526v-2h388v-86h-500v86zM362 915h112l-138 -150h-92z" />
    <glyph glyph-name="zacute" unicode="&#x17a;" horiz-adv-x="455" 
d="M35 82l280 334v2h-270v82h380v-82l-280 -334v-2h280v-82h-390v82zM290 715h110l-130 -150h-90z" />
    <glyph glyph-name="Zdotaccent" unicode="&#x17b;" horiz-adv-x="585" 
d="M45 86l388 526v2h-378v86h490v-86l-388 -526v-2h388v-86h-500v86zM300 773q-26 0 -44 18t-18 44t18 44t44 18t44 -18t18 -44t-18 -44t-44 -18z" />
    <glyph glyph-name="zdotaccent" unicode="&#x17c;" horiz-adv-x="455" 
d="M35 82l280 334v2h-270v82h380v-82l-280 -334v-2h280v-82h-390v82zM235 575q-26 0 -43 17t-17 43t17 43t43 17t43 -17t17 -43t-17 -43t-43 -17z" />
    <glyph glyph-name="Zcaron" unicode="&#x17d;" horiz-adv-x="585" 
d="M45 86l388 526v2h-378v86h490v-86l-388 -526v-2h388v-86h-500v86zM130 915h92l78 -85l78 85h92l-117 -150h-106z" />
    <glyph glyph-name="zcaron" unicode="&#x17e;" horiz-adv-x="455" 
d="M35 82l280 334v2h-270v82h380v-82l-280 -334v-2h280v-82h-390v82zM70 715h90l75 -85l75 85h90l-110 -150h-110z" />
    <glyph glyph-name="longs" unicode="&#x17f;" horiz-adv-x="305" 
d="M110 418h-90v82h90v50q0 74 38.5 112t116.5 38h75v-82h-65q-39 0 -57 -18t-18 -60v-540h-90v418z" />
    <glyph glyph-name="uni018E" unicode="&#x18e;" horiz-adv-x="560" 
d="M480 0h-435v86h341v231h-281v86h281v211h-341v86h435v-700z" />
    <glyph glyph-name="uni018F" unicode="&#x18f;" horiz-adv-x="710" 
d="M355 -8q-67 0 -122 22.5t-94.5 64.5t-61.5 103t-22 139v67h502q-1 55 -16.5 98t-42.5 72t-63.5 44.5t-79.5 15.5q-37 0 -66.5 -10t-52 -27.5t-37.5 -39.5t-22 -46h-106q9 37 29.5 75t55 68.5t84 50t115.5 19.5t121.5 -22.5t95 -64.5t61.5 -103t22 -139v-58
q0 -77 -22.5 -138t-62 -103.5t-94.5 -65t-121 -22.5zM355 82q42 0 78 14.5t62.5 42t42.5 68.5t19 95h-404q3 -53 19.5 -94t43.5 -69t62.5 -42.5t76.5 -14.5z" />
    <glyph glyph-name="florin" unicode="&#x192;" horiz-adv-x="480" 
d="M0 -67h37q73 0 85 72l73 423h-109l13 72h108l8 45q13 78 55.5 116.5t132.5 38.5h62l-15 -82h-57q-74 0 -86 -73l-8 -45h130l-12 -72h-130l-73 -423q-14 -78 -56 -116t-131 -38h-42z" />
    <glyph glyph-name="uni01CD" unicode="&#x1cd;" horiz-adv-x="660" 
d="M275 700h110l255 -700h-102l-66 192h-289l-67 -192h-96zM442 278l-112 327h-2l-115 -327h229zM160 915h92l78 -85l78 85h92l-117 -150h-106z" />
    <glyph glyph-name="uni01CE" unicode="&#x1ce;" horiz-adv-x="530" 
d="M210 -8q-85 0 -127.5 40t-42.5 109q0 75 50.5 118.5t164.5 43.5h115v27q0 49 -25.5 72.5t-84.5 23.5q-54 0 -79 -18.5t-29 -47.5h-92q2 31 15.5 58t38.5 47t61.5 31.5t84.5 11.5q103 0 151.5 -46t48.5 -137v-325h-70l-11 75h-2q-61 -83 -167 -83zM220 74q31 0 58.5 10.5
t48 29t32 43t11.5 52.5v18h-110q-70 0 -98 -23.5t-28 -61.5q0 -30 21.5 -49t64.5 -19zM95 715h90l75 -85l75 85h90l-110 -150h-110z" />
    <glyph glyph-name="uni01CF" unicode="&#x1cf;" horiz-adv-x="270" 
d="M88 700h94v-700h-94v700zM-34 915h92l78 -85l78 85h92l-117 -150h-106z" />
    <glyph glyph-name="uni01D0" unicode="&#x1d0;" horiz-adv-x="256" 
d="M83 500h90v-500h-90v500zM-36 715h90l75 -85l75 85h90l-110 -150h-110z" />
    <glyph glyph-name="uni01DD" unicode="&#x1dd;" horiz-adv-x="540" 
d="M270 -8q-50 0 -91.5 16.5t-71 47.5t-46 75.5t-16.5 99.5v48h356q-3 73 -39 110t-92 37q-29 0 -49.5 -5.5t-35 -15.5t-24.5 -22.5t-17 -27.5h-94q7 32 24 60t44 48.5t64.5 32.5t87.5 12t91.5 -16.5t71 -47.5t46 -75.5t16.5 -99.5v-38q0 -55 -16.5 -99t-46.5 -75t-71.5 -48
t-90.5 -17zM270 74q54 0 88 31.5t41 95.5h-259q7 -66 40 -96.5t90 -30.5z" />
    <glyph glyph-name="Gcaron" unicode="&#x1e6;" horiz-adv-x="690" 
d="M350 -8q-66 0 -120 22t-93 65t-60.5 106.5t-21.5 145.5v48q0 78 21.5 139t60.5 103.5t93.5 64.5t119.5 22q61 0 109.5 -17t84 -46.5t57 -69.5t29.5 -85h-100q-8 28 -22.5 52t-37 42t-52.5 28t-68 10q-42 0 -78.5 -15.5t-62.5 -46.5t-41 -76t-15 -105v-48q0 -63 15 -110.5
t41.5 -79t62.5 -47.5t78 -16q88 0 137 46t57 153h-194v86h285v-33q0 -86 -20 -149.5t-56.5 -105.5t-89.5 -62.5t-119 -20.5zM180 915h92l78 -85l78 85h92l-117 -150h-106z" />
    <glyph glyph-name="gcaron" unicode="&#x1e7;" horiz-adv-x="570" 
d="M247 12q-45 0 -82 15t-64 45t-41.5 73.5t-14.5 100.5v28q0 56 15 99.5t42 73.5t64 45.5t81 15.5q54 0 92.5 -18t73.5 -60h2l10 70h70v-505q0 -98 -53.5 -150.5t-158.5 -52.5q-100 0 -147.5 42.5t-55.5 115.5h94q8 -36 31.5 -56t77.5 -20q65 0 93.5 29t28.5 97v80h-2
q-32 -36 -68.5 -52t-87.5 -16zM272 94q61 0 97 38.5t36 113.5v28q0 74 -36.5 113t-96.5 39q-61 0 -97 -38.5t-36 -113.5v-28q0 -74 36.5 -113t96.5 -39zM105 715h90l75 -85l75 85h90l-110 -150h-110z" />
    <glyph glyph-name="Aringacute" unicode="&#x1fa;" horiz-adv-x="660" 
d="M395 990h120l-140 -100h-90zM262 663q-20 14 -31 36t-11 49q0 46 30.5 76t79.5 30t79.5 -30t30.5 -76q0 -27 -11 -49t-31 -36l242 -663h-102l-66 192h-289l-67 -192h-96zM330 700q21 0 34.5 13.5t13.5 34.5t-13.5 34.5t-34.5 13.5t-34.5 -13.5t-13.5 -34.5t13.5 -34.5
t34.5 -13.5zM442 278l-112 327h-2l-115 -327h229z" />
    <glyph glyph-name="aringacute" unicode="&#x1fb;" horiz-adv-x="530" 
d="M315 900h110l-130 -135h-90zM210 -8q-85 0 -127.5 40t-42.5 109q0 75 50.5 118.5t164.5 43.5h115v27q0 49 -25.5 72.5t-84.5 23.5q-54 0 -79 -18.5t-29 -47.5h-92q2 31 15.5 58t38.5 47t61.5 31.5t84.5 11.5q103 0 151.5 -46t48.5 -137v-325h-70l-11 75h-2
q-61 -83 -167 -83zM220 74q31 0 58.5 10.5t48 29t32 43t11.5 52.5v18h-110q-70 0 -98 -23.5t-28 -61.5q0 -30 21.5 -49t64.5 -19zM260 528q-49 0 -79.5 30t-30.5 76t30.5 76t79.5 30t79.5 -30t30.5 -76t-30.5 -76t-79.5 -30zM260 584q23 0 36.5 13.5t13.5 36.5t-13.5 36.5
t-36.5 13.5t-36.5 -13.5t-13.5 -36.5t13.5 -36.5t36.5 -13.5z" />
    <glyph glyph-name="AEacute" unicode="&#x1fc;" horiz-adv-x="930" 
d="M400 700h485v-86h-341v-211h281v-86h-281v-231h341v-86h-435v192h-231l-105 -192h-104zM450 278v335l-183 -335h183zM714 915h112l-138 -150h-92z" />
    <glyph glyph-name="aeacute" unicode="&#x1fd;" horiz-adv-x="855" 
d="M212 -8q-88 0 -130 39.5t-42 108.5q0 37 12 66t38.5 49.5t68.5 31.5t103 11h102v42q0 42 -24.5 65t-77.5 23q-52 0 -75 -19t-27 -49h-100q2 32 15 59t37.5 47t62 31t87.5 11q116 0 158 -80q29 38 71.5 59t93.5 21q50 0 91.5 -16.5t71 -47.5t46 -75.5t16.5 -99.5v-47h-356
q2 -74 38 -111t93 -37q30 0 50.5 5.5t35.5 15t24.5 23.5t17.5 32h92q-15 -70 -67 -114t-153 -44q-61 0 -108.5 28t-74.5 79q-28 -51 -78 -79t-112 -28zM585 426q-53 0 -88 -31.5t-42 -96.5h260q-6 67 -39.5 97.5t-90.5 30.5zM212 72q33 0 60.5 11t48 29.5t32 43.5t11.5 54
v12h-102q-37 0 -61.5 -5.5t-39.5 -16t-21 -25t-6 -33.5q0 -32 20 -51t58 -19zM490 715h110l-130 -150h-90z" />
    <glyph glyph-name="Oslashacute" unicode="&#x1fe;" horiz-adv-x="710" 
d="M355 -8q-114 0 -191 63l-51 -63l-58 48l58 71q-28 42 -43 96.5t-15 123.5v48q0 78 21.5 139t61 103.5t95 64.5t122.5 22q116 0 192 -62l50 62l58 -48l-57 -70q57 -83 57 -211v-48q0 -82 -21.5 -145t-61 -106t-95 -65.5t-122.5 -22.5zM488 574q-53 48 -133 48
q-45 0 -82 -15t-64 -45.5t-41.5 -76t-14.5 -106.5v-48q0 -42 6.5 -76.5t18.5 -62.5zM355 78q90 0 146 62.5t56 190.5v48q0 77 -24 130l-310 -382q52 -49 132 -49zM427 915h112l-138 -150h-92z" />
    <glyph glyph-name="oslashacute" unicode="&#x1ff;" horiz-adv-x="550" 
d="M275 -8q-86 0 -142 41l-36 -41l-52 47l39 45q-19 29 -29 67t-10 85v28q0 117 62 180.5t168 63.5q86 0 142 -41l36 41l52 -47l-39 -45q19 -29 29 -67t10 -85v-28q0 -117 -62 -180.5t-168 -63.5zM359 400q-34 26 -84 26q-63 0 -99.5 -39.5t-36.5 -122.5v-28q0 -43 11 -76z
M275 74q63 0 99.5 39.5t36.5 122.5v28q0 43 -11 76l-209 -240q34 -26 84 -26zM340 715h110l-130 -150h-90z" />
    <glyph glyph-name="uni0218" unicode="&#x218;" horiz-adv-x="610" 
d="M315 -8q-128 0 -192.5 60t-72.5 168h100q8 -71 46 -106.5t119 -35.5q77 0 112 30.5t35 79.5q0 32 -17.5 52.5t-45.5 34t-64 23.5t-74 20.5t-74 24.5t-64 36.5t-45.5 56t-17.5 82.5q0 40 15.5 75t45.5 60.5t75 40t104 14.5q124 0 185.5 -57.5t69.5 -160.5h-100
q-4 34 -14 59t-28 41.5t-46 24t-67 7.5q-75 0 -108.5 -29.5t-33.5 -74.5q0 -33 17.5 -54t45.5 -35t64 -23.5t74 -19.5t74 -23.5t64 -36t45.5 -56t17.5 -83.5q0 -43 -15 -79t-45.5 -61.5t-76.5 -40t-108 -14.5zM275 -50h100l-90 -150h-80z" />
    <glyph glyph-name="uni0219" unicode="&#x219;" horiz-adv-x="490" 
d="M255 -8q-104 0 -153.5 42.5t-56.5 115.5h94q8 -36 31.5 -56t79.5 -20q57 0 79 17.5t22 45.5q0 29 -22 44.5t-55 25.5t-71 19t-71 25t-55 43t-22 74q0 30 11.5 55.5t34.5 44t57.5 29.5t81.5 11q98 0 145 -41t55 -107h-94q-4 15 -11 27t-19 21t-30.5 13.5t-45.5 4.5
q-50 0 -70.5 -16.5t-20.5 -41.5q0 -27 22 -41t55 -23t71 -18t71 -25.5t55 -45.5t22 -78q0 -31 -11.5 -57.5t-35 -46t-59.5 -30.5t-84 -11zM206 -50h98l-92 -150h-78z" />
    <glyph glyph-name="uni021A" unicode="&#x21a;" horiz-adv-x="580" 
d="M243 614h-223v86h540v-86h-223v-614h-94v614zM250 -50h100l-90 -150h-80z" />
    <glyph glyph-name="uni021B" unicode="&#x21b;" horiz-adv-x="360" 
d="M252 0q-55 0 -84.5 19t-43.5 44t-16.5 49.5t-2.5 34.5v271h-90v82h90v140h90v-140h130v-82h-130v-261q0 -75 70 -75h70v-82h-83v0zM191 -50h98l-92 -150h-78z" />
    <glyph glyph-name="uni0237" unicode="&#x237;" horiz-adv-x="256" 
d="M-17 -118h23q28 0 44 10t23 25t8.5 33t1.5 35v515h90v-520q0 -26 -3 -57.5t-18.5 -58.5t-49.5 -45.5t-96 -18.5h-23v82z" />
    <glyph glyph-name="uni0259" unicode="&#x259;" horiz-adv-x="540" 
d="M270 -8q-50 0 -91.5 16.5t-71 47.5t-46 75.5t-16.5 99.5v48h356q-3 73 -39 110t-92 37q-29 0 -49.5 -5.5t-35 -15.5t-24.5 -22.5t-17 -27.5h-94q7 32 24 60t44 48.5t64.5 32.5t87.5 12t91.5 -16.5t71 -47.5t46 -75.5t16.5 -99.5v-38q0 -55 -16.5 -99t-46.5 -75t-71.5 -48
t-90.5 -17zM270 74q54 0 88 31.5t41 95.5h-259q7 -66 40 -96.5t90 -30.5z" />
    <glyph glyph-name="uni027C" unicode="&#x27c;" horiz-adv-x="375" 
d="M75 500h70l10 -70h2q29 42 66 60t90 18h47v-82h-55q-68 0 -104 -35t-36 -96v-495h-90v700z" />
    <glyph glyph-name="uni02BC" unicode="&#x2bc;" horiz-adv-x="190" 
d="M77 700h98l-78 -250h-82z" />
    <glyph glyph-name="circumflex" unicode="&#x2c6;" horiz-adv-x="360" 
d="M125 715h110l110 -150h-90l-75 85l-75 -85h-90z" />
    <glyph glyph-name="caron" unicode="&#x2c7;" horiz-adv-x="360" 
d="M15 715h90l75 -85l75 85h90l-110 -150h-110z" />
    <glyph glyph-name="breve" unicode="&#x2d8;" horiz-adv-x="300" 
d="M150 562q-62 0 -100 38t-40 100h70q3 -70 70 -70t70 70h70q-2 -62 -40 -100t-100 -38z" />
    <glyph glyph-name="dotaccent" unicode="&#x2d9;" horiz-adv-x="160" 
d="M80 575q-26 0 -43 17t-17 43t17 43t43 17t43 -17t17 -43t-17 -43t-43 -17z" />
    <glyph glyph-name="ring" unicode="&#x2da;" horiz-adv-x="240" 
d="M120 529q-49 0 -79.5 30t-30.5 76t30.5 76t79.5 30t79.5 -30t30.5 -76t-30.5 -76t-79.5 -30zM120 585q23 0 36.5 13.5t13.5 36.5t-13.5 36.5t-36.5 13.5t-36.5 -13.5t-13.5 -36.5t13.5 -36.5t36.5 -13.5z" />
    <glyph glyph-name="ogonek" unicode="&#x2db;" horiz-adv-x="180" 
d="M110 -200q-52 0 -76 21.5t-24 58.5q0 17 3.5 33.5t15.5 35.5t34.5 42.5t60.5 54.5l46 -46q-28 -23 -44.5 -39.5t-24.5 -28.5t-10.5 -21t-2.5 -16q0 -13 9 -21t28 -8h45v-66h-60z" />
    <glyph glyph-name="tilde" unicode="&#x2dc;" horiz-adv-x="340" 
d="M235 565q-26 0 -44.5 10.5t-33 22.5t-27 22.5t-25.5 10.5q-14 0 -22.5 -11t-8.5 -40h-64q0 65 26.5 95t68.5 30q26 0 44.5 -10.5t33 -22.5t26.5 -22.5t26 -10.5t22.5 11t8.5 40h64q0 -65 -26.5 -95t-68.5 -30z" />
    <glyph glyph-name="hungarumlaut" unicode="&#x2dd;" horiz-adv-x="390" 
d="M107 715h104l-112 -150h-84zM265 715h110l-130 -150h-90z" />
    <glyph glyph-name="acutecomb" unicode="&#x301;" horiz-adv-x="0" 
d="M-209 715h110l-130 -150h-90z" />
    <glyph glyph-name="uni0326" unicode="&#x326;" horiz-adv-x="0" 
d="M87 -50h98l-92 -150h-78z" />
    <glyph glyph-name="Delta" unicode="&#x394;" horiz-adv-x="650" 
d="M269 700h112l254 -700h-620zM503 86l-179 512l-181 -512h360z" />
    <glyph glyph-name="Delta" unicode="&#x2206;" horiz-adv-x="650" 
d="M269 700h112l254 -700h-620zM503 86l-179 512l-181 -512h360z" />
    <glyph glyph-name="Xi" unicode="&#x39e;" horiz-adv-x="510" 
d="M35 700h440v-86h-440v86zM115 403h280v-86h-280v86zM35 86h440v-86h-440v86z" />
    <glyph glyph-name="uni03A9" unicode="&#x3a9;" horiz-adv-x="710" 
d="M55 86h92q-45 41 -68.5 100.5t-23.5 135.5v58q0 76 22 137t61.5 103.5t94.5 65t122 22.5t122 -22.5t94.5 -64.5t61.5 -103t22 -138v-58q0 -76 -24 -135.5t-69 -100.5h93v-86h-250v86q69 17 110.5 76.5t41.5 158.5v58q0 58 -15 102.5t-42 75t-64 46t-81 15.5t-81 -15.5
t-64 -45.5t-42 -75t-15 -103v-58q0 -99 41.5 -158.5t110.5 -76.5v-86h-250v86z" />
    <glyph glyph-name="uni03A9" unicode="&#x2126;" horiz-adv-x="710" 
d="M55 86h92q-45 41 -68.5 100.5t-23.5 135.5v58q0 76 22 137t61.5 103.5t94.5 65t122 22.5t122 -22.5t94.5 -64.5t61.5 -103t22 -138v-58q0 -76 -24 -135.5t-69 -100.5h93v-86h-250v86q69 17 110.5 76.5t41.5 158.5v58q0 58 -15 102.5t-42 75t-64 46t-81 15.5t-81 -15.5
t-64 -45.5t-42 -75t-15 -103v-58q0 -99 41.5 -158.5t110.5 -76.5v-86h-250v86z" />
    <glyph glyph-name="pi" unicode="&#x3c0;" horiz-adv-x="620" 
d="M110 418h-90v82h580v-82h-90v-261q0 -75 70 -75h30v-82h-44q-72 0 -109 37.5t-37 107.5v273h-220v-418h-90v418z" />
    <glyph glyph-name="uni0400" unicode="&#x400;" horiz-adv-x="560" 
d="M80 700h435v-86h-341v-211h281v-86h-281v-231h341v-86h-435v700zM128 915h114l116 -150h-94z" />
    <glyph glyph-name="uni0401" unicode="&#x401;" horiz-adv-x="560" 
d="M80 700h435v-86h-341v-211h281v-86h-281v-231h341v-86h-435v700zM195 773q-26 0 -44 18t-18 44t18 44t44 18t44 -18t18 -44t-18 -44t-44 -18zM401 773q-26 0 -44 18t-18 44t18 44t44 18t44 -18t18 -44t-18 -44t-44 -18z" />
    <glyph glyph-name="uni0402" unicode="&#x402;" horiz-adv-x="735" 
d="M180 614h-160v86h540v-86h-286v-180q72 19 146 19q133 0 196.5 -66.5t63.5 -215.5v-38q0 -149 -61.5 -216t-173.5 -67h-50v86h40q37 0 65.5 10.5t47.5 33.5t28.5 61t9.5 92v38q0 106 -43 151t-138 45q-28 0 -60 -4.5t-71 -15.5v-347h-94v614z" />
    <glyph glyph-name="uni0403" unicode="&#x403;" horiz-adv-x="515" 
d="M80 700h415v-86h-321v-614h-94v700zM350 915h112l-138 -150h-92z" />
    <glyph glyph-name="uni0404" unicode="&#x404;" horiz-adv-x="670" 
d="M350 -8q-66 0 -120 22t-93 65t-60.5 106.5t-21.5 145.5v48q0 78 21.5 139t60.5 103.5t93.5 64.5t119.5 22q60 0 107.5 -17t82 -46.5t56 -69t29.5 -85.5h-100q-8 27 -22.5 51t-36 42t-51 28.5t-65.5 10.5q-85 0 -139 -57.5t-58 -166.5h282v-86h-282q7 -120 59.5 -177
t137.5 -57q73 0 116.5 39.5t58.5 102.5h100q-8 -50 -29.5 -91.5t-56 -72t-82 -47.5t-107.5 -17z" />
    <glyph glyph-name="uni0405" unicode="&#x405;" horiz-adv-x="610" 
d="M315 -8q-128 0 -192.5 60t-72.5 168h100q8 -71 46 -106.5t119 -35.5q77 0 112 30.5t35 79.5q0 32 -17.5 52.5t-45.5 34t-64 23.5t-74 20.5t-74 24.5t-64 36.5t-45.5 56t-17.5 82.5q0 40 15.5 75t45.5 60.5t75 40t104 14.5q124 0 185.5 -57.5t69.5 -160.5h-100
q-4 34 -14 59t-28 41.5t-46 24t-67 7.5q-75 0 -108.5 -29.5t-33.5 -74.5q0 -33 17.5 -54t45.5 -35t64 -23.5t74 -19.5t74 -23.5t64 -36t45.5 -56t17.5 -83.5q0 -43 -15 -79t-45.5 -61.5t-76.5 -40t-108 -14.5z" />
    <glyph glyph-name="uni0406" unicode="&#x406;" horiz-adv-x="270" 
d="M88 700h94v-700h-94v700z" />
    <glyph glyph-name="uni0407" unicode="&#x407;" horiz-adv-x="270" 
d="M88 700h94v-700h-94v700zM33 773q-26 0 -44 18t-18 44t18 44t44 18t44 -18t18 -44t-18 -44t-44 -18zM239 773q-26 0 -44 18t-18 44t18 44t44 18t44 -18t18 -44t-18 -44t-44 -18z" />
    <glyph glyph-name="uni0408" unicode="&#x408;" horiz-adv-x="535" 
d="M240 -8q-98 0 -155 58t-65 170h94q8 -77 38.5 -109.5t87.5 -32.5q46 0 71.5 18.5t37.5 45t14.5 56t2.5 52.5v450h94v-455q0 -13 -1 -36.5t-7.5 -51.5t-20 -57.5t-38 -53.5t-62 -39t-91.5 -15z" />
    <glyph glyph-name="uni0409" unicode="&#x409;" horiz-adv-x="995" 
d="M20 78h10q42 0 65.5 24.5t34.5 67t13 100.5t2 125v305h440v-277h140q119 0 179.5 -57t60.5 -154q0 -96 -61.5 -154t-178.5 -58h-234v614h-252v-219q0 -77 -3.5 -149.5t-23.5 -129t-62 -90.5t-120 -34h-10v86zM720 86q76 0 111.5 33t35.5 93q0 58 -36 91.5t-111 33.5h-135
v-251h135z" />
    <glyph glyph-name="uni040A" unicode="&#x40a;" horiz-adv-x="1010" 
d="M80 700h94v-277h332v277h94v-277h140q119 0 179.5 -57t60.5 -154q0 -96 -61.5 -154t-178.5 -58h-234v337h-332v-337h-94v700zM735 86q76 0 111.5 33t35.5 93q0 58 -36 91.5t-111 33.5h-135v-251h135z" />
    <glyph glyph-name="uni040B" unicode="&#x40b;" horiz-adv-x="740" 
d="M183 614h-163v86h540v-86h-283v-180q46 11 83 15t73 4q63 0 106 -12t71 -32t43 -46t22.5 -53.5t8.5 -55t1 -49.5v-205h-94v200q0 25 -2.5 54t-17.5 54t-47 42t-91 17q-42 0 -79.5 -5t-76.5 -16v-346h-94v614z" />
    <glyph glyph-name="uni040C" unicode="&#x40c;" horiz-adv-x="635" 
d="M80 700h94v-297h90l216 297h110l-250 -336l270 -364h-116l-230 317h-90v-317h-94v700zM372 915h112l-138 -150h-92z" />
    <glyph glyph-name="uni040D" unicode="&#x40d;" horiz-adv-x="710" 
d="M80 700h94v-590h2l322 590h132v-700h-94v590h-2l-322 -590h-132v700zM185 915h114l116 -150h-94z" />
    <glyph glyph-name="uni040E" unicode="&#x40e;" horiz-adv-x="610" 
d="M272 200l-252 500h106l194 -395h2l168 395h100l-305 -700h-100zM308 762q-74 0 -112 36.5t-38 101.5h80q0 -74 70 -74t70 74h80q0 -65 -38 -101.5t-112 -36.5z" />
    <glyph glyph-name="uni040F" unicode="&#x40f;" horiz-adv-x="700" 
d="M80 700h94v-614h352v614h94v-700h-225v-150h-90v150h-225v700z" />
    <glyph glyph-name="uni0410" unicode="&#x410;" horiz-adv-x="660" 
d="M275 700h110l255 -700h-102l-66 192h-289l-67 -192h-96zM442 278l-112 327h-2l-115 -327h229z" />
    <glyph glyph-name="uni0411" unicode="&#x411;" horiz-adv-x="610" 
d="M80 700h440v-86h-346v-186h150q121 0 183.5 -58.5t62.5 -156.5t-61.5 -155.5t-184.5 -57.5h-244v700zM174 342v-256h145q81 0 117 33t36 94t-37 95t-116 34h-145z" />
    <glyph glyph-name="uni0412" unicode="&#x412;" horiz-adv-x="620" 
d="M80 700h230q127 0 183.5 -49.5t56.5 -137.5q0 -101 -88 -148v-2q108 -44 108 -166q0 -95 -56.5 -146t-183.5 -51h-250v700zM174 614v-211h131q82 0 114.5 27t32.5 78t-32.5 78.5t-114.5 27.5h-131zM174 317v-231h151q82 0 114.5 28.5t32.5 87.5q0 58 -32.5 86.5
t-114.5 28.5h-151z" />
    <glyph glyph-name="uni0413" unicode="&#x413;" horiz-adv-x="515" 
d="M80 700h415v-86h-321v-614h-94v700z" />
    <glyph glyph-name="uni0414" unicode="&#x414;" horiz-adv-x="700" 
d="M20 86h60q22 30 35.5 61t21 73.5t10.5 102t3 147.5v230h460v-614h65v-236h-90v150h-475v-150h-90v236zM516 86v528h-272v-144q0 -83 -2.5 -142.5t-8.5 -103.5t-16.5 -76.5t-26.5 -61.5h326z" />
    <glyph glyph-name="uni0415" unicode="&#x415;" horiz-adv-x="560" 
d="M80 700h435v-86h-341v-211h281v-86h-281v-231h341v-86h-435v700z" />
    <glyph glyph-name="uni0416" unicode="&#x416;" horiz-adv-x="920" 
d="M246 358l-206 342h108l175 -298h90v298h94v-298h90l177 298h106l-206 -337l221 -363h-110l-188 316h-90v-316h-94v316h-90l-190 -316h-108z" />
    <glyph glyph-name="uni0417" unicode="&#x417;" horiz-adv-x="595" 
d="M300 -8q-121 0 -184 60t-71 168h98q8 -71 45 -106.5t112 -35.5t111 33t36 89q0 52 -36 84.5t-111 32.5h-85v86h85q67 0 99.5 29.5t32.5 78.5q0 51 -32.5 81t-99.5 30t-100.5 -32.5t-41.5 -99.5h-98q8 103 68 160.5t172 57.5q56 0 99 -14.5t72 -40t44 -60.5t15 -77
q0 -107 -90 -153v-2q51 -23 78 -66t27 -100q0 -44 -16 -81.5t-46.5 -64.5t-76.5 -42t-106 -15z" />
    <glyph glyph-name="uni0418" unicode="&#x418;" horiz-adv-x="710" 
d="M80 700h94v-590h2l322 590h132v-700h-94v590h-2l-322 -590h-132v700z" />
    <glyph glyph-name="uni0419" unicode="&#x419;" horiz-adv-x="710" 
d="M80 700h94v-590h2l322 590h132v-700h-94v590h-2l-322 -590h-132v700zM355 762q-74 0 -112 36.5t-38 101.5h80q0 -74 70 -74t70 74h80q0 -65 -38 -101.5t-112 -36.5z" />
    <glyph glyph-name="uni041A" unicode="&#x41a;" horiz-adv-x="635" 
d="M80 700h94v-297h90l216 297h110l-250 -336l270 -364h-116l-230 317h-90v-317h-94v700z" />
    <glyph glyph-name="uni041B" unicode="&#x41b;" horiz-adv-x="685" 
d="M20 78h10q42 0 65.5 24.5t34.5 67t13 100.5t2 125v305h460v-700h-94v614h-272v-219q0 -77 -3.5 -149.5t-23.5 -129t-62 -90.5t-120 -34h-10v86z" />
    <glyph glyph-name="uni041C" unicode="&#x41c;" horiz-adv-x="810" 
d="M80 700h140l187 -412h2l187 412h134v-700h-94v590h-2l-179 -395h-100l-179 395h-2v-590h-94v700z" />
    <glyph glyph-name="uni041D" unicode="&#x41d;" horiz-adv-x="710" 
d="M80 700h94v-297h362v297h94v-700h-94v317h-362v-317h-94v700z" />
    <glyph glyph-name="uni041E" unicode="&#x41e;" horiz-adv-x="710" 
d="M355 -8q-68 0 -123 22t-94.5 65t-61 106.5t-21.5 145.5v48q0 78 21.5 139t61 103.5t95 64.5t122.5 22t122.5 -22t95 -64t61 -103.5t21.5 -139.5v-48q0 -82 -21.5 -145t-61 -106t-95 -65.5t-122.5 -22.5zM355 78q90 0 146 62.5t56 190.5v48q0 60 -15 105.5t-41.5 76
t-63.5 46t-82 15.5t-82 -15t-64 -45.5t-41.5 -76t-14.5 -106.5v-48q0 -64 15 -111.5t42 -79t64 -47t81 -15.5z" />
    <glyph glyph-name="uni041F" unicode="&#x41f;" horiz-adv-x="700" 
d="M80 700h540v-700h-94v614h-352v-614h-94v700z" />
    <glyph glyph-name="uni0420" unicode="&#x420;" horiz-adv-x="600" 
d="M80 700h235q130 0 192.5 -59t62.5 -165t-63 -165t-192 -59h-141v-252h-94v700zM174 614v-276h136q87 0 124.5 34.5t37.5 103.5q0 68 -38 103t-124 35h-136z" />
    <glyph glyph-name="uni0421" unicode="&#x421;" horiz-adv-x="670" 
d="M350 -8q-66 0 -120 22t-93 65t-60.5 106.5t-21.5 145.5v48q0 78 21.5 139t60.5 103.5t93.5 64.5t119.5 22q60 0 107.5 -17t82 -46.5t56 -69t29.5 -85.5h-100q-8 28 -22.5 52t-36 42t-51 28t-65.5 10q-42 0 -78.5 -15.5t-62.5 -46.5t-41 -76t-15 -105v-48q0 -63 15 -110.5
t41.5 -79t62.5 -47.5t78 -16q73 0 116.5 39.5t58.5 102.5h100q-8 -50 -29.5 -91.5t-56 -72t-82 -47.5t-107.5 -17z" />
    <glyph glyph-name="uni0422" unicode="&#x422;" horiz-adv-x="580" 
d="M243 614h-223v86h540v-86h-223v-614h-94v614z" />
    <glyph glyph-name="uni0423" unicode="&#x423;" horiz-adv-x="610" 
d="M272 200l-252 500h106l194 -395h2l168 395h100l-305 -700h-100z" />
    <glyph glyph-name="uni0424" unicode="&#x424;" horiz-adv-x="840" 
d="M373 42q-80 0 -141 21t-102.5 59.5t-63 92.5t-21.5 121v28q0 66 21.5 120.5t63.5 93t103 59.5t140 21v50h94v-50q79 0 140.5 -21t103 -59.5t63 -92.5t21.5 -121v-28q0 -66 -21.5 -120.5t-63.5 -93t-103 -59.5t-140 -21v-50h-94v50zM697 364q0 98 -57.5 153t-172.5 55
v-444q115 0 172.5 54.5t57.5 153.5v28zM143 336q0 -98 57.5 -153t172.5 -55v444q-115 0 -172.5 -54.5t-57.5 -153.5v-28z" />
    <glyph glyph-name="uni0425" unicode="&#x425;" horiz-adv-x="650" 
d="M266 365l-221 335h114l167 -260l169 260h110l-221 -333l241 -367h-116l-185 290l-187 -290h-112z" />
    <glyph glyph-name="uni0426" unicode="&#x426;" horiz-adv-x="725" 
d="M80 700h94v-614h352v614h94v-614h80v-236h-90v150h-530v700z" />
    <glyph glyph-name="uni0427" unicode="&#x427;" horiz-adv-x="630" 
d="M300 247q-62 0 -105 12t-70.5 32t-42.5 46t-22.5 53.5t-8.5 54.5t-1 50v205h94v-200q0 -25 2.5 -54t17.5 -54t46.5 -42t89.5 -17q42 0 79.5 5t76.5 16v346h94v-700h-94v266q-46 -11 -83 -15t-73 -4z" />
    <glyph glyph-name="uni0428" unicode="&#x428;" horiz-adv-x="940" 
d="M80 700h94v-614h249v614h94v-614h249v614h94v-700h-780v700z" />
    <glyph glyph-name="uni0429" unicode="&#x429;" horiz-adv-x="965" 
d="M80 700h94v-614h249v614h94v-614h249v614h94v-614h80v-236h-90v150h-770v700z" />
    <glyph glyph-name="uni042A" unicode="&#x42a;" horiz-adv-x="715" 
d="M195 614h-175v86h269v-252h141q130 0 192.5 -59t62.5 -165t-63 -165t-192 -59h-235v614zM425 86q87 0 124.5 34.5t37.5 103.5q0 68 -38 103t-124 35h-136v-276h136z" />
    <glyph glyph-name="uni042B" unicode="&#x42b;" horiz-adv-x="830" 
d="M656 700h94v-700h-94v700zM80 700h94v-252h131q129 0 192 -59t63 -165q0 -107 -62.5 -165.5t-192.5 -58.5h-225v700zM300 86q86 0 124 35t38 103q0 69 -37.5 103.5t-124.5 34.5h-126v-276h126z" />
    <glyph glyph-name="uni042C" unicode="&#x42c;" horiz-adv-x="600" 
d="M80 700h94v-252h141q130 0 192.5 -59t62.5 -165t-63 -165t-192 -59h-235v700zM310 86q87 0 124.5 34.5t37.5 103.5q0 68 -38 103t-124 35h-136v-276h136z" />
    <glyph glyph-name="uni042D" unicode="&#x42d;" horiz-adv-x="670" 
d="M320 -8q-60 0 -107.5 17t-82 47.5t-56.5 72t-29 91.5h100q15 -63 58.5 -102.5t116.5 -39.5q85 0 138.5 59t58.5 175h-282v86h282q-5 109 -58.5 166.5t-138.5 57.5q-36 0 -65.5 -10t-51 -28t-36.5 -42t-22 -52h-100q7 46 29 85.5t56.5 69t82 46.5t107.5 17q65 0 119.5 -22
t93.5 -64.5t60.5 -103.5t21.5 -139v-48q0 -82 -21.5 -145.5t-60.5 -106.5t-93 -65t-120 -22z" />
    <glyph glyph-name="uni042E" unicode="&#x42e;" horiz-adv-x="915" 
d="M80 700h94v-297h116q2 73 23.5 129.5t59 95.5t89 59.5t113.5 20.5q65 0 118 -21.5t90 -63t57 -102t20 -137.5v-48q0 -84 -20.5 -148.5t-58 -108t-90 -65.5t-116.5 -22q-63 0 -115 20.5t-89 61.5t-58.5 101.5t-22.5 141.5h-116v-317h-94v700zM575 78q42 0 76 14.5t59 46
t38.5 80.5t13.5 117v48q0 121 -51.5 179.5t-135.5 58.5q-85 0 -137 -58.5t-52 -179.5v-48q0 -67 14 -116t39 -80.5t59.5 -46.5t76.5 -15z" />
    <glyph glyph-name="uni042F" unicode="&#x42f;" horiz-adv-x="620" 
d="M446 0v274h-141h-6l-19 1l-146 -275h-104l160 290q-71 23 -105.5 74t-34.5 123q0 98 62.5 155.5t192.5 57.5h235v-700h-94zM446 360v254h-136q-86 0 -124 -33.5t-38 -93.5q0 -61 37.5 -94t124.5 -33h136z" />
    <glyph glyph-name="uni0430" unicode="&#x430;" horiz-adv-x="530" 
d="M210 -8q-85 0 -127.5 40t-42.5 109q0 75 50.5 118.5t164.5 43.5h115v27q0 49 -25.5 72.5t-84.5 23.5q-54 0 -79 -18.5t-29 -47.5h-92q2 31 15.5 58t38.5 47t61.5 31.5t84.5 11.5q103 0 151.5 -46t48.5 -137v-325h-70l-11 75h-2q-61 -83 -167 -83zM220 74q31 0 58.5 10.5
t48 29t32 43t11.5 52.5v18h-110q-70 0 -98 -23.5t-28 -61.5q0 -30 21.5 -49t64.5 -19z" />
    <glyph glyph-name="uni0431" unicode="&#x431;" horiz-adv-x="555" 
d="M280 -8q-107 0 -168.5 68t-61.5 211v48q0 55 5.5 106t19.5 93.5t37.5 76t59.5 54.5q32 19 63.5 25t66.5 8.5t75.5 6.5t91.5 19v-81q-38 -14 -73.5 -17.5t-68.5 -5.5t-62 -6.5t-53 -19.5q-31 -21 -52 -61.5t-28 -96.5h2q25 37 68.5 57.5t94.5 20.5q48 0 87.5 -16t67 -46.5
t43 -75t15.5 -101.5v-28q0 -113 -62 -176t-168 -63zM280 74q63 0 99.5 39t36.5 118v28q0 78 -37 117.5t-99 39.5q-63 0 -99.5 -39t-36.5 -114v-28q0 -81 37.5 -121t98.5 -40z" />
    <glyph glyph-name="uni0432" unicode="&#x432;" horiz-adv-x="520" 
d="M75 500h195q98 0 141.5 -38t43.5 -101q0 -32 -16 -57.5t-46 -42.5v-2q39 -16 60.5 -45.5t21.5 -68.5q0 -68 -43.5 -106.5t-141.5 -38.5h-215v500zM361 356q0 29 -20.5 45.5t-75.5 16.5h-100v-125h100q55 0 75.5 16.5t20.5 46.5zM381 150q0 32 -21 49.5t-75 17.5h-120
v-135h120q54 0 75 17.5t21 50.5z" />
    <glyph glyph-name="uni0433" unicode="&#x433;" horiz-adv-x="425" 
d="M75 500h335v-82h-245v-418h-90v500z" />
    <glyph glyph-name="uni0434" unicode="&#x434;" horiz-adv-x="560" 
d="M15 82h50q16 22 26.5 46.5t17 55t9 71t2.5 95.5v150h360v-418h60v-212h-86v130h-353v-130h-86v212zM390 82v336h-184v-68q0 -49 -2 -87.5t-7 -70t-13 -58t-19 -50.5v-2h225z" />
    <glyph glyph-name="uni0435" unicode="&#x435;" horiz-adv-x="540" 
d="M275 -8q-53 0 -95.5 16.5t-72.5 48t-46 76.5t-16 103v28q0 58 16 103.5t45.5 76.5t71 47.5t92.5 16.5t92.5 -16.5t71 -48.5t45.5 -78t16 -106v-36h-356q2 -71 36.5 -110t94.5 -39q48 0 79 18t47 58h94q-18 -78 -73.5 -118t-141.5 -40zM270 426q-57 0 -90 -33t-40 -96h261
q-12 129 -131 129z" />
    <glyph glyph-name="uni0436" unicode="&#x436;" horiz-adv-x="710" 
d="M170 262l-145 238h98l117 -199h70v199h90v-199h70l119 199h96l-145 -234l155 -266h-102l-123 219h-70v-219h-90v219h-70l-125 -219h-100z" />
    <glyph glyph-name="uni0437" unicode="&#x437;" horiz-adv-x="485" 
d="M240 -8q-104 0 -153 44t-57 124h94q8 -42 33 -64t83 -22q59 0 82.5 19t23.5 51t-23.5 51t-82.5 19h-55v82h55q49 0 70 18t21 47t-21 47t-70 18t-71 -19.5t-30 -56.5h-94q8 74 54.5 116t140.5 42t139.5 -40t45.5 -103q0 -75 -64 -106v-2q79 -32 79 -117
q0 -65 -48.5 -106.5t-151.5 -41.5z" />
    <glyph glyph-name="uni0438" unicode="&#x438;" horiz-adv-x="580" 
d="M75 500h90v-390h2l218 390h120v-500h-90v390h-2l-218 -390h-120v500z" />
    <glyph glyph-name="uni0439" unicode="&#x439;" horiz-adv-x="580" 
d="M75 500h90v-390h2l218 390h120v-500h-90v390h-2l-218 -390h-120v500zM290 562q-66 0 -103 36.5t-37 101.5h78q0 -39 16.5 -57.5t45.5 -18.5t45.5 18.5t16.5 57.5h78q0 -65 -37 -101.5t-103 -36.5z" />
    <glyph glyph-name="uni043A" unicode="&#x43a;" horiz-adv-x="510" 
d="M75 500h90v-199h70l136 199h104l-169 -237l189 -263h-108l-152 219h-70v-219h-90v500z" />
    <glyph glyph-name="uni043B" unicode="&#x43b;" horiz-adv-x="545" 
d="M15 74h15q29 0 45.5 19t24 54.5t9 85.5t1.5 112v155h360v-500h-90v418h-180v-73q0 -69 -3 -133t-19 -113t-50.5 -78t-97.5 -29h-15v82z" />
    <glyph glyph-name="uni043C" unicode="&#x43c;" horiz-adv-x="680" 
d="M75 500h134l133 -285h2l133 285h128v-500h-90v390h-2l-128 -275h-90l-128 275h-2v-390h-90v500z" />
    <glyph glyph-name="uni043D" unicode="&#x43d;" horiz-adv-x="580" 
d="M75 500h90v-204h250v204h90v-500h-90v214h-250v-214h-90v500z" />
    <glyph glyph-name="uni043E" unicode="&#x43e;" horiz-adv-x="550" 
d="M275 -8q-107 0 -168.5 63t-61.5 181v28q0 117 62 180.5t168 63.5q107 0 168.5 -63t61.5 -181v-28q0 -117 -62 -180.5t-168 -63.5zM275 74q63 0 99.5 39.5t36.5 122.5v28q0 82 -36.5 122t-99.5 40t-99.5 -39.5t-36.5 -122.5v-28q0 -82 36.5 -122t99.5 -40z" />
    <glyph glyph-name="uni043F" unicode="&#x43f;" horiz-adv-x="560" 
d="M75 500h410v-500h-90v418h-230v-418h-90v500z" />
    <glyph glyph-name="uni0440" unicode="&#x440;" horiz-adv-x="570" 
d="M75 500h70l10 -70h2q35 42 73.5 60t92.5 18q45 0 82 -15.5t64 -46t41.5 -76t14.5 -106.5v-28q0 -60 -15 -105.5t-42 -76.5t-64 -46.5t-81 -15.5q-51 0 -87.5 16t-68.5 52h-2v-260h-90v700zM298 74q61 0 97 39.5t36 122.5v28q0 81 -36.5 121.5t-96.5 40.5q-61 0 -97 -39.5
t-36 -122.5v-28q0 -81 36.5 -121.5t96.5 -40.5z" />
    <glyph glyph-name="uni0441" unicode="&#x441;" horiz-adv-x="505" 
d="M265 -8q-101 0 -160.5 63t-59.5 186v28q0 57 16 101t44.5 75t69 47t90.5 16q47 0 83.5 -12.5t62.5 -33.5t42 -50t22 -62h-94q-11 32 -37.5 54t-73.5 22q-60 0 -95.5 -38.5t-35.5 -118.5v-28q0 -87 35.5 -127t95.5 -40q47 0 73.5 23.5t37.5 62.5h94q-6 -37 -22 -67.5
t-42 -53t-62.5 -35t-83.5 -12.5z" />
    <glyph glyph-name="uni0442" unicode="&#x442;" horiz-adv-x="440" 
d="M175 418h-160v82h410v-82h-160v-418h-90v418z" />
    <glyph glyph-name="uni0443" unicode="&#x443;" horiz-adv-x="520" 
d="M219 0l-204 500h98l153 -390h2l145 390h92l-271 -700h-92z" />
    <glyph glyph-name="uni0444" unicode="&#x444;" horiz-adv-x="700" 
d="M305 -8h-35q-51 0 -92.5 16.5t-71 48t-45.5 76.5t-16 103v28q0 57 16.5 102t46 76.5t71 48.5t91.5 17h35v192h90v-192h35q51 0 92.5 -16.5t71 -48t45.5 -76.5t16 -103v-28q0 -57 -16.5 -102.5t-46 -77t-71 -48t-91.5 -16.5h-35v-192h-90v192zM561 264q0 81 -36.5 121.5
t-94.5 40.5h-35v-352h35q60 0 95.5 39.5t35.5 122.5v28zM139 236q0 -81 36.5 -121.5t94.5 -40.5h35v352h-35q-60 0 -95.5 -39.5t-35.5 -122.5v-28z" />
    <glyph glyph-name="uni0445" unicode="&#x445;" horiz-adv-x="500" 
d="M194 258l-167 242h102l122 -178l122 178h100l-167 -240l179 -260h-106l-130 192l-130 -192h-104z" />
    <glyph glyph-name="uni0446" unicode="&#x446;" horiz-adv-x="570" 
d="M460 0h-385v500h90v-418h225v418h90v-418h70v-212h-90v130z" />
    <glyph glyph-name="uni0447" unicode="&#x447;" horiz-adv-x="520" 
d="M245 159q-106 0 -153 45.5t-47 139.5v156h90v-150q0 -31 5.5 -52t18.5 -33.5t34 -18t52 -5.5q32 0 60.5 4t49.5 9v246h90v-500h-90v172q-21 -5 -49.5 -9t-60.5 -4z" />
    <glyph glyph-name="uni0448" unicode="&#x448;" horiz-adv-x="760" 
d="M75 500h90v-418h170v418h90v-418h170v418h90v-500h-610v500z" />
    <glyph glyph-name="uni0449" unicode="&#x449;" horiz-adv-x="775" 
d="M665 0h-590v500h90v-418h170v418h90v-418h170v418h90v-418h70v-212h-90v130z" />
    <glyph glyph-name="uni044A" unicode="&#x44a;" horiz-adv-x="570" 
d="M155 418h-140v82h230v-160h100q103 0 151.5 -45t48.5 -125q0 -79 -49 -124.5t-151 -45.5h-190v418zM245 258v-176h95q61 0 86 22t25 66q0 43 -25.5 65.5t-85.5 22.5h-95z" />
    <glyph glyph-name="uni044B" unicode="&#x44b;" horiz-adv-x="710" 
d="M545 500h90v-500h-90v500zM75 500h90v-160h100q103 0 151.5 -45t48.5 -125q0 -79 -49 -124.5t-151 -45.5h-190v500zM165 258v-176h95q61 0 86 22t25 66q0 43 -25.5 65.5t-85.5 22.5h-95z" />
    <glyph glyph-name="uni044C" unicode="&#x44c;" horiz-adv-x="490" 
d="M75 500h90v-160h100q103 0 151.5 -45t48.5 -125q0 -79 -49 -124.5t-151 -45.5h-190v500zM165 258v-176h95q61 0 86 22t25 66q0 43 -25.5 65.5t-85.5 22.5h-95z" />
    <glyph glyph-name="uni044D" unicode="&#x44d;" horiz-adv-x="510" 
d="M245 -8q-47 0 -83.5 12.5t-63 35t-42 53t-21.5 67.5h94q11 -39 38 -62.5t78 -23.5q56 0 88.5 37t36.5 103h-185v82h185q-5 63 -37.5 96.5t-87.5 33.5q-50 0 -77.5 -22.5t-38.5 -53.5h-94q6 33 22 62t42.5 50t63 33.5t82.5 12.5q49 0 90 -16t69.5 -47t44.5 -75t16 -101
v-28q0 -60 -16 -106.5t-45 -78t-69.5 -48t-89.5 -16.5z" />
    <glyph glyph-name="uni044E" unicode="&#x44e;" horiz-adv-x="740" 
d="M75 500h90v-204h91q8 102 66.5 157t152.5 55q101 0 160.5 -62.5t59.5 -181.5v-28q0 -118 -60 -181t-160 -63q-97 0 -156 57t-64 165h-90v-214h-90v500zM475 74q58 0 92 38.5t34 123.5v28q0 85 -34.5 123.5t-91.5 38.5q-59 0 -93 -38t-34 -119v-28q0 -88 34.5 -127.5
t92.5 -39.5z" />
    <glyph glyph-name="uni044F" unicode="&#x44f;" horiz-adv-x="505" 
d="M142 192q-48 19 -70 55t-22 89q0 78 49 121t161 43h170v-500h-90v174h-80h-16t-16 1l-98 -175h-100zM144 336q0 -39 26 -59.5t95 -20.5h75v162h-75q-70 0 -95.5 -20.5t-25.5 -61.5z" />
    <glyph glyph-name="uni0450" unicode="&#x450;" horiz-adv-x="540" 
d="M275 -8q-53 0 -95.5 16.5t-72.5 48t-46 76.5t-16 103v28q0 58 16 103.5t45.5 76.5t71 47.5t92.5 16.5t92.5 -16.5t71 -48.5t45.5 -78t16 -106v-36h-356q2 -71 36.5 -110t94.5 -39q48 0 79 18t47 58h94q-18 -78 -73.5 -118t-141.5 -40zM270 426q-57 0 -90 -33t-40 -96h261
q-12 129 -131 129zM105 715h112l108 -150h-92z" />
    <glyph glyph-name="uni0451" unicode="&#x451;" horiz-adv-x="540" 
d="M275 -8q-53 0 -95.5 16.5t-72.5 48t-46 76.5t-16 103v28q0 58 16 103.5t45.5 76.5t71 47.5t92.5 16.5t92.5 -16.5t71 -48.5t45.5 -78t16 -106v-36h-356q2 -71 36.5 -110t94.5 -39q48 0 79 18t47 58h94q-18 -78 -73.5 -118t-141.5 -40zM270 426q-57 0 -90 -33t-40 -96h261
q-12 129 -131 129zM175 575q-26 0 -43 17t-17 43t17 43t43 17t43 -17t17 -43t-17 -43t-43 -17zM365 575q-26 0 -43 17t-17 43t17 43t43 17t43 -17t17 -43t-17 -43t-43 -17z" />
    <glyph glyph-name="uni0452" unicode="&#x452;" horiz-adv-x="575" 
d="M75 535h-80v70h80v95h90v-95h160v-70h-160v-125h2q57 68 146 68q90 0 141 -53t51 -155v-233q0 -126 -49.5 -181.5t-140.5 -55.5h-30v82h21q27 0 47.5 7.5t34 26t20.5 49.5t7 77v223q0 67 -30.5 99t-89.5 32t-94.5 -35.5t-35.5 -95.5v-265h-90v535z" />
    <glyph glyph-name="uni0453" unicode="&#x453;" horiz-adv-x="425" 
d="M75 500h335v-82h-245v-418h-90v500zM298 715h110l-130 -150h-90z" />
    <glyph glyph-name="uni0454" unicode="&#x454;" horiz-adv-x="510" 
d="M265 -8q-101 0 -160.5 63t-59.5 186v28q0 57 16 101t44.5 75t69 47t90.5 16q46 0 82.5 -12.5t63 -33.5t42.5 -50t22 -62h-94q-11 32 -37.5 54t-73.5 22q-121 0 -130 -130h185v-82h-185q9 -140 130 -140q47 0 73.5 23.5t37.5 62.5h94q-6 -37 -22 -67.5t-42 -53t-62.5 -35
t-83.5 -12.5z" />
    <glyph glyph-name="uni0455" unicode="&#x455;" horiz-adv-x="490" 
d="M255 -8q-104 0 -153.5 42.5t-56.5 115.5h94q8 -36 31.5 -56t79.5 -20q57 0 79 17.5t22 45.5q0 29 -22 44.5t-55 25.5t-71 19t-71 25t-55 43t-22 74q0 30 11.5 55.5t34.5 44t57.5 29.5t81.5 11q98 0 145 -41t55 -107h-94q-4 15 -11 27t-19 21t-30.5 13.5t-45.5 4.5
q-50 0 -70.5 -16.5t-20.5 -41.5q0 -27 22 -41t55 -23t71 -18t71 -25.5t55 -45.5t22 -78q0 -31 -11.5 -57.5t-35 -46t-59.5 -30.5t-84 -11z" />
    <glyph glyph-name="uni0456" unicode="&#x456;" horiz-adv-x="256" 
d="M83 500h90v-500h-90v500zM128 575q-26 0 -43 17t-17 43t17 43t43 17t43 -17t17 -43t-17 -43t-43 -17z" />
    <glyph glyph-name="uni0457" unicode="&#x457;" horiz-adv-x="256" 
d="M83 500h90v-500h-90v500zM34 575q-26 0 -43 17t-17 43t17 43t43 17t43 -17t17 -43t-17 -43t-43 -17zM224 575q-26 0 -43 17t-17 43t17 43t43 17t43 -17t17 -43t-17 -43t-43 -17z" />
    <glyph glyph-name="uni0458" unicode="&#x458;" horiz-adv-x="256" 
d="M-17 -118h23q28 0 44 10t23 25t8.5 33t1.5 35v515h90v-520q0 -26 -3 -57.5t-18.5 -58.5t-49.5 -45.5t-96 -18.5h-23v82zM128 575q-26 0 -43 17t-17 43t17 43t43 17t43 -17t17 -43t-17 -43t-43 -17z" />
    <glyph glyph-name="uni0459" unicode="&#x459;" horiz-adv-x="770" 
d="M15 78h15q28 0 44.5 18t24 49t9.5 71t2 84v200h350v-184h100q91 0 138 -43.5t47 -114.5q0 -70 -47 -114t-138 -44h-190v418h-170v-118q0 -54 -3 -108.5t-19.5 -99t-51 -72.5t-96.5 -28h-15v86zM555 82q51 0 73.5 20t22.5 56q0 35 -22.5 55.5t-73.5 20.5h-95v-152h95z" />
    <glyph glyph-name="uni045A" unicode="&#x45a;" horiz-adv-x="795" 
d="M75 500h90v-184h230v184h90v-184h100q91 0 138 -43.5t47 -114.5q0 -70 -47 -114t-138 -44h-190v234h-230v-234h-90v500zM580 82q51 0 73.5 20t22.5 56q0 35 -22.5 55.5t-73.5 20.5h-95v-152h95z" />
    <glyph glyph-name="uni045B" unicode="&#x45b;" horiz-adv-x="575" 
d="M75 535h-80v70h80v95h90v-95h160v-70h-160v-125h2q57 68 146 68q90 0 141 -53t51 -155v-270h-90v265q0 67 -30.5 99t-89.5 32t-94.5 -35.5t-35.5 -95.5v-265h-90v535z" />
    <glyph glyph-name="uni045C" unicode="&#x45c;" horiz-adv-x="510" 
d="M75 500h90v-199h70l136 199h104l-169 -237l189 -263h-108l-152 219h-70v-219h-90v500zM305 715h110l-130 -150h-90z" />
    <glyph glyph-name="uni045D" unicode="&#x45d;" horiz-adv-x="565" 
d="M252 -8q-82 0 -132 53t-50 155v300h90v-295q0 -67 29.5 -99t80.5 -32q59 0 94.5 35.5t35.5 95.5v295h90v-500h-70l-9 65h-2q-30 -38 -68 -55.5t-89 -17.5zM115 715h112l108 -150h-92z" />
    <glyph glyph-name="uni045E" unicode="&#x45e;" horiz-adv-x="520" 
d="M219 0l-204 500h98l153 -390h2l145 390h92l-271 -700h-92zM263 562q-66 0 -103 36.5t-37 101.5h78q0 -39 16.5 -57.5t45.5 -18.5t45.5 18.5t16.5 57.5h78q0 -65 -37 -101.5t-103 -36.5z" />
    <glyph glyph-name="uni045F" unicode="&#x45f;" horiz-adv-x="560" 
d="M237 0h-162v500h90v-418h230v418h90v-500h-162v-130h-86v130z" />
    <glyph glyph-name="uni0462" unicode="&#x462;" horiz-adv-x="635" 
d="M10 597h105v103h94v-103h161v-74h-161v-75h141q130 0 192.5 -59t62.5 -165t-63 -165t-192 -59h-235v523h-105v74zM345 86q87 0 124.5 34.5t37.5 103.5q0 68 -38 103t-124 35h-136v-276h136z" />
    <glyph glyph-name="uni0463" unicode="&#x463;" horiz-adv-x="540" 
d="M115 419h-105v81h105v200h90v-200h150v-81h-150v-79h95q113 0 164 -45.5t51 -124.5q0 -80 -51 -125t-164 -45h-185v419zM205 258v-176h100q66 0 92 22.5t26 65.5t-26 65.5t-92 22.5h-100z" />
    <glyph glyph-name="uni0472" unicode="&#x472;" horiz-adv-x="710" 
d="M355 -8q-67 0 -122 22.5t-94.5 64.5t-61.5 103t-22 139v58q0 77 22 138t62 103.5t95 65t121 22.5q67 0 122 -22.5t94.5 -64.5t61.5 -103t22 -139v-58q0 -77 -22 -138t-62 -103.5t-95 -65t-121 -22.5zM153 394q12 6 41 16t60 10q37 0 63.5 -9.5t48 -20.5t42 -20.5
t47.5 -9.5q16 0 31.5 3.5t29 8t24.5 9.5t17 8q-2 55 -17.5 98t-42.5 72t-63 44t-79 15q-86 0 -141.5 -57t-60.5 -167zM355 82q86 0 141.5 57t60.5 167q-12 -6 -41 -16t-61 -10q-38 0 -64 9.5t-47.5 20.5t-42 20.5t-47.5 9.5q-16 0 -31.5 -3.5t-29 -8t-24 -9.5t-16.5 -8
q1 -56 17 -98.5t43 -71.5t63.5 -44t78.5 -15z" />
    <glyph glyph-name="uni0473" unicode="&#x473;" horiz-adv-x="550" 
d="M275 -8q-53 0 -95.5 16.5t-72.5 47t-46 75t-16 100.5v38q0 55 16.5 99.5t46.5 75.5t72.5 47.5t94.5 16.5t94.5 -16.5t72.5 -47t46.5 -75t16.5 -100.5v-38q0 -56 -16.5 -100t-46.5 -75t-72.5 -47.5t-94.5 -16.5zM140 292q8 5 25.5 10.5t40.5 5.5q25 0 43.5 -6.5t34 -14
t29.5 -13.5t31 -6q23 0 40.5 6.5t25.5 11.5q-4 67 -40 101.5t-95 34.5q-58 0 -94 -32.5t-41 -97.5zM275 78q58 0 94 32.5t41 97.5q-8 -5 -25.5 -10.5t-40.5 -5.5q-26 0 -44.5 6t-33.5 13.5t-29 14t-31 6.5q-22 0 -40.5 -6.5t-26.5 -11.5q5 -67 41 -101.5t95 -34.5z" />
    <glyph glyph-name="uni0474" unicode="&#x474;" horiz-adv-x="710" 
d="M20 700h104l209 -576l126 418q16 53 33 85.5t40 50.5t55 24t78 6h45v-86h-45q-28 0 -45.5 -4t-29.5 -13.5t-19.5 -25t-14.5 -37.5l-166 -542h-110z" />
    <glyph glyph-name="uni0475" unicode="&#x475;" horiz-adv-x="555" 
d="M15 500h98l148 -402l77 244q16 52 33 84.5t39 50.5t50.5 24.5t69.5 6.5h35v-82h-35q-23 0 -39.5 -4t-28.5 -13.5t-20.5 -25.5t-16.5 -41l-110 -342h-110z" />
    <glyph glyph-name="uni0490" unicode="&#x490;" horiz-adv-x="515" 
d="M80 700h325v120h90v-206h-321v-614h-94v700z" />
    <glyph glyph-name="uni0491" unicode="&#x491;" horiz-adv-x="425" 
d="M75 500h249v100h86v-182h-245v-418h-90v500z" />
    <glyph glyph-name="uni0492" unicode="&#x492;" horiz-adv-x="535" 
d="M100 281h-90v78h90v341h415v-86h-321v-255h176v-78h-176v-281h-94v281z" />
    <glyph glyph-name="uni0493" unicode="&#x493;" horiz-adv-x="435" 
d="M85 185h-80v70h80v245h335v-82h-245v-163h130v-70h-130v-185h-90v185z" />
    <glyph glyph-name="uni0494" unicode="&#x494;" horiz-adv-x="630" 
d="M80 700h415v-86h-321v-230q72 19 146 19q133 0 196.5 -66.5t63.5 -215.5v-38q0 -149 -61.5 -216t-173.5 -67h-50v86h40q37 0 65.5 10.5t47.5 33.5t28.5 61t9.5 92v38q0 106 -43 151t-138 45q-28 0 -60 -4.5t-71 -15.5v-297h-94v700z" />
    <glyph glyph-name="uni0495" unicode="&#x495;" horiz-adv-x="501" 
d="M75 500h335v-82h-245v-128q53 11 106 11q94 0 144.5 -56t50.5 -185v-18q0 -130 -50 -186t-141 -56h-29v82h20q27 0 48 7.5t34.5 26t20.5 49.5t7 77v18q0 46 -7 76.5t-22 49t-37.5 26t-53.5 7.5q-41 0 -91 -11v-208h-90v500z" />
    <glyph glyph-name="uni0496" unicode="&#x496;" horiz-adv-x="945" 
d="M246 358l-206 342h108l175 -298h90v298h94v-298h90l177 298h106l-206 -337l169 -277h92v-236h-90v150h-60l-188 316h-90v-316h-94v316h-90l-190 -316h-108z" />
    <glyph glyph-name="uni0497" unicode="&#x497;" horiz-adv-x="755" 
d="M170 262l-145 238h98l117 -199h70v199h90v-199h70l119 199h96l-145 -234l107 -184h98v-212h-90v130h-62l-123 219h-70v-219h-90v219h-70l-125 -219h-100z" />
    <glyph glyph-name="uni0498" unicode="&#x498;" horiz-adv-x="595" 
d="M255 -6q-99 11 -151 70t-59 156h98q8 -71 45 -106.5t112 -35.5t111 33t36 89q0 52 -36 84.5t-111 32.5h-85v86h85q67 0 99.5 29.5t32.5 78.5q0 51 -32.5 81t-99.5 30t-100.5 -32.5t-41.5 -99.5h-98q8 103 68 160.5t172 57.5q56 0 99 -14.5t72 -40t44 -60.5t15 -77
q0 -107 -90 -153v-2q51 -23 78 -66t27 -100q0 -40 -13 -74t-38 -60.5t-62.5 -43.5t-86.5 -23v-144h-90v144z" />
    <glyph glyph-name="uni0499" unicode="&#x499;" horiz-adv-x="485" 
d="M197 -6q-81 9 -120.5 52t-46.5 114h94q8 -42 33 -64t83 -22q59 0 82.5 19t23.5 51t-23.5 51t-82.5 19h-55v82h55q49 0 70 18t21 47t-21 47t-70 18t-71 -19.5t-30 -56.5h-94q8 74 54.5 116t140.5 42t139.5 -40t45.5 -103q0 -75 -64 -106v-2q79 -32 79 -117q0 -57 -38 -97
t-119 -49v-124h-86v124z" />
    <glyph glyph-name="uni049A" unicode="&#x49a;" horiz-adv-x="655" 
d="M80 700h94v-297h90l216 297h110l-250 -336l206 -278h99v-236h-90v150h-61l-230 317h-90v-317h-94v700z" />
    <glyph glyph-name="uni049B" unicode="&#x49b;" horiz-adv-x="545" 
d="M75 500h90v-199h70l136 199h104l-169 -237l130 -181h99v-212h-90v130h-58l-152 219h-70v-219h-90v500z" />
    <glyph glyph-name="uni049C" unicode="&#x49c;" horiz-adv-x="715" 
d="M80 700h94v-297h57v127h78v-127h35l216 297h110l-250 -336l270 -364h-116l-230 317h-35v-127h-78v127h-57v-317h-94v700z" />
    <glyph glyph-name="uni049D" unicode="&#x49d;" 
d="M75 500h90v-199h48v109h74v-109h28l136 199h104l-169 -237l189 -263h-108l-152 219h-28v-109h-74v109h-48v-219h-90v500z" />
    <glyph glyph-name="uni04A0" unicode="&#x4a0;" horiz-adv-x="750" 
d="M195 614h-175v86h269v-297h90l216 297h110l-250 -336l270 -364h-116l-230 317h-90v-317h-94v614z" />
    <glyph glyph-name="uni04A1" unicode="&#x4a1;" 
d="M155 418h-140v82h230v-199h70l136 199h104l-169 -237l189 -263h-108l-152 219h-70v-219h-90v418z" />
    <glyph glyph-name="uni04A2" unicode="&#x4a2;" horiz-adv-x="735" 
d="M80 700h94v-297h362v297h94v-614h80v-236h-90v150h-84v317h-362v-317h-94v700z" />
    <glyph glyph-name="uni04A3" unicode="&#x4a3;" horiz-adv-x="595" 
d="M75 500h90v-204h250v204h90v-418h70v-212h-90v130h-70v214h-250v-214h-90v500z" />
    <glyph glyph-name="uni04A4" unicode="&#x4a4;" horiz-adv-x="970" 
d="M80 700h94v-297h362v297h414v-86h-320v-614h-94v317h-362v-317h-94v700z" />
    <glyph glyph-name="uni04A5" unicode="&#x4a5;" horiz-adv-x="765" 
d="M75 500h90v-204h250v204h335v-82h-245v-418h-90v214h-250v-214h-90v500z" />
    <glyph glyph-name="uni04AA" unicode="&#x4aa;" horiz-adv-x="670" 
d="M305 -5q-56 7 -102 32.5t-79 68t-51 101.5t-18 134v48q0 78 21.5 139t60.5 103.5t93.5 64.5t119.5 22q60 0 107.5 -17t82 -46.5t56 -69t29.5 -85.5h-100q-8 28 -22.5 52t-36 42t-51 28t-65.5 10q-42 0 -78.5 -15.5t-62.5 -46.5t-41 -76t-15 -105v-48q0 -63 15 -110.5
t41.5 -79t62.5 -47.5t78 -16q73 0 116.5 39.5t58.5 102.5h100q-7 -45 -25 -83.5t-47 -68t-69 -48.5t-89 -25v-145h-90v145z" />
    <glyph glyph-name="uni04AB" unicode="&#x4ab;" horiz-adv-x="505" 
d="M210 -3q-77 16 -121 77.5t-44 166.5v28q0 57 16 101t44.5 75t69 47t90.5 16q47 0 83.5 -12.5t62.5 -33.5t42 -50t22 -62h-94q-11 32 -37.5 54t-73.5 22q-60 0 -95.5 -38.5t-35.5 -118.5v-28q0 -87 35.5 -127t95.5 -40q47 0 73.5 23.5t37.5 62.5h94q-11 -68 -55 -113
t-124 -53v-124h-86v127z" />
    <glyph glyph-name="uni04AE" unicode="&#x4ae;" horiz-adv-x="650" 
d="M288 245l-268 455h108l209 -353l191 353h102l-248 -455v-245h-94v245z" />
    <glyph glyph-name="uni04AF" unicode="&#x4af;" horiz-adv-x="510" 
d="M15 500h98l148 -386l138 386h96l-190 -500v-200h-90v200z" />
    <glyph glyph-name="uni04B0" unicode="&#x4b0;" horiz-adv-x="650" 
d="M120 245h168l-268 455h108l209 -353l191 353h102l-248 -455h148v-74h-148v-171h-94v171h-168v74z" />
    <glyph glyph-name="uni04B1" unicode="&#x4b1;" horiz-adv-x="510" 
d="M84 0h131l-200 500h98l148 -386l138 386h96l-190 -500h129v-72h-129v-128h-90v128h-131v72z" />
    <glyph glyph-name="uni04B2" unicode="&#x4b2;" horiz-adv-x="675" 
d="M266 365l-221 335h114l167 -260l169 260h110l-221 -333l185 -281h96v-236h-90v150h-66l-185 290l-187 -290h-112z" />
    <glyph glyph-name="uni04B3" unicode="&#x4b3;" horiz-adv-x="535" 
d="M194 258l-167 242h102l122 -178l122 178h100l-167 -240l123 -178h96v-212h-90v130h-56l-130 192l-130 -192h-104z" />
    <glyph glyph-name="uni04B6" unicode="&#x4b6;" horiz-adv-x="655" 
d="M300 247q-62 0 -105 12t-70.5 32t-42.5 46t-22.5 53.5t-8.5 54.5t-1 50v205h94v-200q0 -25 2.5 -54t17.5 -54t46.5 -42t89.5 -17q42 0 79.5 5t76.5 16v346h94v-614h80v-236h-90v150h-84v266q-46 -11 -83 -15t-73 -4z" />
    <glyph glyph-name="uni04B7" unicode="&#x4b7;" horiz-adv-x="535" 
d="M245 159q-106 0 -153 45.5t-47 139.5v156h90v-150q0 -31 5.5 -52t18.5 -33.5t34 -18t52 -5.5q32 0 60.5 4t49.5 9v246h90v-418h70v-212h-90v130h-70v172q-21 -5 -49.5 -9t-60.5 -4z" />
    <glyph glyph-name="uni04B8" unicode="&#x4b8;" horiz-adv-x="630" 
d="M261 248q-79 6 -121.5 33.5t-62.5 64t-23.5 77t-3.5 72.5v205h94v-200q0 -23 2 -49t13 -50t34.5 -42t67.5 -24v125h78v-126q30 2 59 7t58 13v346h94v-700h-94v266q-34 -8 -62.5 -12t-54.5 -6v-128h-78v128z" />
    <glyph glyph-name="uni04B9" unicode="&#x4b9;" horiz-adv-x="520" 
d="M208 161q-86 8 -124.5 53t-38.5 130v156h90v-150q0 -51 16 -76t57 -31v107h74v-108q21 2 39.5 5t33.5 7v246h90v-500h-90v172q-15 -4 -33.5 -7t-39.5 -5v-110h-74v111z" />
    <glyph glyph-name="uni04BA" unicode="&#x4ba;" horiz-adv-x="630" 
d="M80 700h94v-266q46 11 83 15t73 4q62 0 105 -12t70.5 -32t42.5 -46t22.5 -53.5t8.5 -55t1 -49.5v-205h-94v200q0 25 -2.5 54t-17.5 54t-46.5 42t-89.5 17q-42 0 -79.5 -5t-76.5 -16v-346h-94v700z" />
    <glyph glyph-name="uni04BB" unicode="&#x4bb;" horiz-adv-x="575" 
d="M75 700h90v-260h2q57 68 146 68q90 0 141 -53t51 -155v-300h-90v295q0 67 -30.5 99t-89.5 32t-94.5 -35.5t-35.5 -95.5v-295h-90v700z" />
    <glyph glyph-name="uni04C0" unicode="&#x4c0;" horiz-adv-x="270" 
d="M88 700h94v-700h-94v700z" />
    <glyph glyph-name="uni04C1" unicode="&#x4c1;" horiz-adv-x="920" 
d="M246 358l-206 342h108l175 -298h90v298h94v-298h90l177 298h106l-206 -337l221 -363h-110l-188 316h-90v-316h-94v316h-90l-190 -316h-108zM460 762q-74 0 -112 36.5t-38 101.5h80q0 -74 70 -74t70 74h80q0 -65 -38 -101.5t-112 -36.5z" />
    <glyph glyph-name="uni04C2" unicode="&#x4c2;" horiz-adv-x="710" 
d="M170 262l-145 238h98l117 -199h70v199h90v-199h70l119 199h96l-145 -234l155 -266h-102l-123 219h-70v-219h-90v219h-70l-125 -219h-100zM355 562q-66 0 -103 36.5t-37 101.5h78q0 -39 16.5 -57.5t45.5 -18.5t45.5 18.5t16.5 57.5h78q0 -65 -37 -101.5t-103 -36.5z" />
    <glyph glyph-name="uni04C3" unicode="&#x4c3;" horiz-adv-x="625" 
d="M80 700h94v-297h90l216 297h110l-223 -298v-2q106 -12 157 -79t51 -200v-38q0 -149 -61.5 -216t-173.5 -67h-50v86h40q37 0 65.5 10.5t47.5 33.5t28.5 61t9.5 92v38q0 106 -43 151t-138 45h-126v-317h-94v700z" />
    <glyph glyph-name="uni04C4" unicode="&#x4c4;" horiz-adv-x="510" 
d="M75 500h90v-199h70l136 199h104l-147 -204v-2q65 -16 98.5 -72t33.5 -162v-18q0 -130 -50 -186t-141 -56h-29v82h20q27 0 48 7.5t34.5 26t20.5 49.5t7 77v18q0 46 -7 76.5t-22 49t-37.5 26t-53.5 7.5h-85v-219h-90v500z" />
    <glyph glyph-name="uni04C7" unicode="&#x4c7;" horiz-adv-x="710" 
d="M80 700h94v-297h362v297h94v-620q0 -146 -62.5 -213t-182.5 -67h-40v86h40q37 0 65.5 10.5t47.5 34t28.5 61.5t9.5 93v232h-362v-317h-94v700z" />
    <glyph glyph-name="uni04C8" unicode="&#x4c8;" horiz-adv-x="580" 
d="M75 500h90v-204h250v204h90v-463q0 -126 -49.5 -181.5t-140.5 -55.5h-30v82h21q27 0 47.5 7.5t34 26t20.5 49.5t7 77v172h-250v-214h-90v500z" />
    <glyph glyph-name="uni04CB" unicode="&#x4cb;" horiz-adv-x="630" 
d="M300 247q-62 0 -105 12t-70.5 32t-42.5 46t-22.5 53.5t-8.5 54.5t-1 50v205h94v-200q0 -25 2.5 -54t17.5 -54t46.5 -42t89.5 -17q42 0 79.5 5t76.5 16v346h94v-700h-84v-150h-90v236h80v180q-46 -11 -83 -15t-73 -4z" />
    <glyph glyph-name="uni04CC" unicode="&#x4cc;" horiz-adv-x="520" 
d="M245 159q-106 0 -153 45.5t-47 139.5v156h90v-150q0 -31 5.5 -52t18.5 -33.5t34 -18t52 -5.5q32 0 60.5 4t49.5 9v246h90v-500h-70v-130h-90v212h70v90q-21 -5 -49.5 -9t-60.5 -4z" />
    <glyph glyph-name="uni04CF" unicode="&#x4cf;" horiz-adv-x="256" 
d="M83 700h90v-700h-90v700z" />
    <glyph glyph-name="uni04D0" unicode="&#x4d0;" horiz-adv-x="660" 
d="M275 700h110l255 -700h-102l-66 192h-289l-67 -192h-96zM442 278l-112 327h-2l-115 -327h229zM330 762q-74 0 -112 36.5t-38 101.5h80q0 -74 70 -74t70 74h80q0 -65 -38 -101.5t-112 -36.5z" />
    <glyph glyph-name="uni04D1" unicode="&#x4d1;" horiz-adv-x="530" 
d="M210 -8q-85 0 -127.5 40t-42.5 109q0 75 50.5 118.5t164.5 43.5h115v27q0 49 -25.5 72.5t-84.5 23.5q-54 0 -79 -18.5t-29 -47.5h-92q2 31 15.5 58t38.5 47t61.5 31.5t84.5 11.5q103 0 151.5 -46t48.5 -137v-325h-70l-11 75h-2q-61 -83 -167 -83zM220 74q31 0 58.5 10.5
t48 29t32 43t11.5 52.5v18h-110q-70 0 -98 -23.5t-28 -61.5q0 -30 21.5 -49t64.5 -19zM260 562q-66 0 -103 36.5t-37 101.5h78q0 -39 16.5 -57.5t45.5 -18.5t45.5 18.5t16.5 57.5h78q0 -65 -37 -101.5t-103 -36.5z" />
    <glyph glyph-name="uni04D2" unicode="&#x4d2;" horiz-adv-x="660" 
d="M275 700h110l255 -700h-102l-66 192h-289l-67 -192h-96zM442 278l-112 327h-2l-115 -327h229zM227 773q-26 0 -44 18t-18 44t18 44t44 18t44 -18t18 -44t-18 -44t-44 -18zM433 773q-26 0 -44 18t-18 44t18 44t44 18t44 -18t18 -44t-18 -44t-44 -18z" />
    <glyph glyph-name="uni04D3" unicode="&#x4d3;" horiz-adv-x="530" 
d="M210 -8q-85 0 -127.5 40t-42.5 109q0 75 50.5 118.5t164.5 43.5h115v27q0 49 -25.5 72.5t-84.5 23.5q-54 0 -79 -18.5t-29 -47.5h-92q2 31 15.5 58t38.5 47t61.5 31.5t84.5 11.5q103 0 151.5 -46t48.5 -137v-325h-70l-11 75h-2q-61 -83 -167 -83zM220 74q31 0 58.5 10.5
t48 29t32 43t11.5 52.5v18h-110q-70 0 -98 -23.5t-28 -61.5q0 -30 21.5 -49t64.5 -19zM165 575q-26 0 -43 17t-17 43t17 43t43 17t43 -17t17 -43t-17 -43t-43 -17zM355 575q-26 0 -43 17t-17 43t17 43t43 17t43 -17t17 -43t-17 -43t-43 -17z" />
    <glyph glyph-name="uni04D4" unicode="&#x4d4;" horiz-adv-x="930" 
d="M400 700h485v-86h-341v-211h281v-86h-281v-231h341v-86h-435v192h-231l-105 -192h-104zM450 278v335l-183 -335h183z" />
    <glyph glyph-name="uni04D5" unicode="&#x4d5;" horiz-adv-x="855" 
d="M212 -8q-88 0 -130 39.5t-42 108.5q0 37 12 66t38.5 49.5t68.5 31.5t103 11h102v42q0 42 -24.5 65t-77.5 23q-52 0 -75 -19t-27 -49h-100q2 32 15 59t37.5 47t62 31t87.5 11q116 0 158 -80q29 38 71.5 59t93.5 21q50 0 91.5 -16.5t71 -47.5t46 -75.5t16.5 -99.5v-47h-356
q2 -74 38 -111t93 -37q30 0 50.5 5.5t35.5 15t24.5 23.5t17.5 32h92q-15 -70 -67 -114t-153 -44q-61 0 -108.5 28t-74.5 79q-28 -51 -78 -79t-112 -28zM585 426q-53 0 -88 -31.5t-42 -96.5h260q-6 67 -39.5 97.5t-90.5 30.5zM212 72q33 0 60.5 11t48 29.5t32 43.5t11.5 54
v12h-102q-37 0 -61.5 -5.5t-39.5 -16t-21 -25t-6 -33.5q0 -32 20 -51t58 -19z" />
    <glyph glyph-name="uni04D6" unicode="&#x4d6;" horiz-adv-x="560" 
d="M80 700h435v-86h-341v-211h281v-86h-281v-231h341v-86h-435v700zM298 762q-74 0 -112 36.5t-38 101.5h80q0 -74 70 -74t70 74h80q0 -65 -38 -101.5t-112 -36.5z" />
    <glyph glyph-name="uni04D7" unicode="&#x4d7;" horiz-adv-x="540" 
d="M275 -8q-53 0 -95.5 16.5t-72.5 48t-46 76.5t-16 103v28q0 58 16 103.5t45.5 76.5t71 47.5t92.5 16.5t92.5 -16.5t71 -48.5t45.5 -78t16 -106v-36h-356q2 -71 36.5 -110t94.5 -39q48 0 79 18t47 58h94q-18 -78 -73.5 -118t-141.5 -40zM270 426q-57 0 -90 -33t-40 -96h261
q-12 129 -131 129zM270 562q-66 0 -103 36.5t-37 101.5h78q0 -39 16.5 -57.5t45.5 -18.5t45.5 18.5t16.5 57.5h78q0 -65 -37 -101.5t-103 -36.5z" />
    <glyph glyph-name="uni04D8" unicode="&#x4d8;" horiz-adv-x="710" 
d="M355 -8q-67 0 -122 22.5t-94.5 64.5t-61.5 103t-22 139v67h502q-1 55 -16.5 98t-42.5 72t-63.5 44.5t-79.5 15.5q-37 0 -66.5 -10t-52 -27.5t-37.5 -39.5t-22 -46h-106q9 37 29.5 75t55 68.5t84 50t115.5 19.5t121.5 -22.5t95 -64.5t61.5 -103t22 -139v-58
q0 -77 -22.5 -138t-62 -103.5t-94.5 -65t-121 -22.5zM355 82q42 0 78 14.5t62.5 42t42.5 68.5t19 95h-404q3 -53 19.5 -94t43.5 -69t62.5 -42.5t76.5 -14.5z" />
    <glyph glyph-name="uni04D9" unicode="&#x4d9;" horiz-adv-x="540" 
d="M270 -8q-50 0 -91.5 16.5t-71 47.5t-46 75.5t-16.5 99.5v48h356q-3 73 -39 110t-92 37q-29 0 -49.5 -5.5t-35 -15.5t-24.5 -22.5t-17 -27.5h-94q7 32 24 60t44 48.5t64.5 32.5t87.5 12t91.5 -16.5t71 -47.5t46 -75.5t16.5 -99.5v-38q0 -55 -16.5 -99t-46.5 -75t-71.5 -48
t-90.5 -17zM270 74q54 0 88 31.5t41 95.5h-259q7 -66 40 -96.5t90 -30.5z" />
    <glyph glyph-name="uni04DC" unicode="&#x4dc;" horiz-adv-x="920" 
d="M246 358l-206 342h108l175 -298h90v298h94v-298h90l177 298h106l-206 -337l221 -363h-110l-188 316h-90v-316h-94v316h-90l-190 -316h-108zM357 773q-26 0 -44 18t-18 44t18 44t44 18t44 -18t18 -44t-18 -44t-44 -18zM563 773q-26 0 -44 18t-18 44t18 44t44 18t44 -18
t18 -44t-18 -44t-44 -18z" />
    <glyph glyph-name="uni04DD" unicode="&#x4dd;" horiz-adv-x="710" 
d="M170 262l-145 238h98l117 -199h70v199h90v-199h70l119 199h96l-145 -234l155 -266h-102l-123 219h-70v-219h-90v219h-70l-125 -219h-100zM260 575q-26 0 -43 17t-17 43t17 43t43 17t43 -17t17 -43t-17 -43t-43 -17zM450 575q-26 0 -43 17t-17 43t17 43t43 17t43 -17
t17 -43t-17 -43t-43 -17z" />
    <glyph glyph-name="uni04DE" unicode="&#x4de;" horiz-adv-x="595" 
d="M300 -8q-121 0 -184 60t-71 168h98q8 -71 45 -106.5t112 -35.5t111 33t36 89q0 52 -36 84.5t-111 32.5h-85v86h85q67 0 99.5 29.5t32.5 78.5q0 51 -32.5 81t-99.5 30t-100.5 -32.5t-41.5 -99.5h-98q8 103 68 160.5t172 57.5q56 0 99 -14.5t72 -40t44 -60.5t15 -77
q0 -107 -90 -153v-2q51 -23 78 -66t27 -100q0 -44 -16 -81.5t-46.5 -64.5t-76.5 -42t-106 -15zM197 773q-26 0 -44 18t-18 44t18 44t44 18t44 -18t18 -44t-18 -44t-44 -18zM403 773q-26 0 -44 18t-18 44t18 44t44 18t44 -18t18 -44t-18 -44t-44 -18z" />
    <glyph glyph-name="uni04DF" unicode="&#x4df;" horiz-adv-x="485" 
d="M240 -8q-104 0 -153 44t-57 124h94q8 -42 33 -64t83 -22q59 0 82.5 19t23.5 51t-23.5 51t-82.5 19h-55v82h55q49 0 70 18t21 47t-21 47t-70 18t-71 -19.5t-30 -56.5h-94q8 74 54.5 116t140.5 42t139.5 -40t45.5 -103q0 -75 -64 -106v-2q79 -32 79 -117
q0 -65 -48.5 -106.5t-151.5 -41.5zM145 575q-26 0 -43 17t-17 43t17 43t43 17t43 -17t17 -43t-17 -43t-43 -17zM335 575q-26 0 -43 17t-17 43t17 43t43 17t43 -17t17 -43t-17 -43t-43 -17z" />
    <glyph glyph-name="uni04E2" unicode="&#x4e2;" horiz-adv-x="710" 
d="M80 700h94v-590h2l322 590h132v-700h-94v590h-2l-322 -590h-132v700zM205 873h300v-76h-300v76z" />
    <glyph glyph-name="uni04E3" unicode="&#x4e3;" horiz-adv-x="580" 
d="M75 500h90v-390h2l218 390h120v-500h-90v390h-2l-218 -390h-120v500zM150 672h280v-74h-280v74z" />
    <glyph glyph-name="uni04E4" unicode="&#x4e4;" horiz-adv-x="710" 
d="M80 700h94v-590h2l322 590h132v-700h-94v590h-2l-322 -590h-132v700zM252 773q-26 0 -44 18t-18 44t18 44t44 18t44 -18t18 -44t-18 -44t-44 -18zM458 773q-26 0 -44 18t-18 44t18 44t44 18t44 -18t18 -44t-18 -44t-44 -18z" />
    <glyph glyph-name="uni04E5" unicode="&#x4e5;" horiz-adv-x="580" 
d="M75 500h90v-390h2l218 390h120v-500h-90v390h-2l-218 -390h-120v500zM195 575q-26 0 -43 17t-17 43t17 43t43 17t43 -17t17 -43t-17 -43t-43 -17zM385 575q-26 0 -43 17t-17 43t17 43t43 17t43 -17t17 -43t-17 -43t-43 -17z" />
    <glyph glyph-name="uni04E6" unicode="&#x4e6;" horiz-adv-x="710" 
d="M355 -8q-68 0 -123 22t-94.5 65t-61 106.5t-21.5 145.5v48q0 78 21.5 139t61 103.5t95 64.5t122.5 22t122.5 -22t95 -64t61 -103.5t21.5 -139.5v-48q0 -82 -21.5 -145t-61 -106t-95 -65.5t-122.5 -22.5zM355 78q90 0 146 62.5t56 190.5v48q0 60 -15 105.5t-41.5 76
t-63.5 46t-82 15.5t-82 -15t-64 -45.5t-41.5 -76t-14.5 -106.5v-48q0 -64 15 -111.5t42 -79t64 -47t81 -15.5zM252 773q-26 0 -44 18t-18 44t18 44t44 18t44 -18t18 -44t-18 -44t-44 -18zM458 773q-26 0 -44 18t-18 44t18 44t44 18t44 -18t18 -44t-18 -44t-44 -18z" />
    <glyph glyph-name="uni04E7" unicode="&#x4e7;" horiz-adv-x="550" 
d="M275 -8q-107 0 -168.5 63t-61.5 181v28q0 117 62 180.5t168 63.5q107 0 168.5 -63t61.5 -181v-28q0 -117 -62 -180.5t-168 -63.5zM275 74q63 0 99.5 39.5t36.5 122.5v28q0 82 -36.5 122t-99.5 40t-99.5 -39.5t-36.5 -122.5v-28q0 -82 36.5 -122t99.5 -40zM180 575
q-26 0 -43 17t-17 43t17 43t43 17t43 -17t17 -43t-17 -43t-43 -17zM370 575q-26 0 -43 17t-17 43t17 43t43 17t43 -17t17 -43t-17 -43t-43 -17z" />
    <glyph glyph-name="uni04E8" unicode="&#x4e8;" horiz-adv-x="710" 
d="M355 -8q-68 0 -123 22t-94.5 65t-61 106.5t-21.5 145.5v48q0 78 21.5 139t61 103.5t95 64.5t122.5 22t122.5 -22t95 -64t61 -103.5t21.5 -139.5v-48q0 -82 -21.5 -145t-61 -106t-95 -65.5t-122.5 -22.5zM557 396q-5 112 -60 169t-142 57q-88 0 -142.5 -56t-59.5 -170h404
zM355 78q87 0 142.5 58.5t59.5 177.5h-404q4 -119 60 -177.5t142 -58.5z" />
    <glyph glyph-name="uni04E9" unicode="&#x4e9;" horiz-adv-x="550" 
d="M275 -8q-107 0 -168.5 63t-61.5 181v28q0 117 62 180.5t168 63.5q107 0 168.5 -63t61.5 -181v-28q0 -117 -62 -180.5t-168 -63.5zM410 289q-6 69 -42 103t-93 34q-58 0 -94 -33.5t-41 -103.5h270zM275 74q58 0 94 33.5t41 103.5h-270q6 -69 42 -103t93 -34z" />
    <glyph glyph-name="uni04EA" unicode="&#x4ea;" horiz-adv-x="710" 
d="M355 -8q-68 0 -123 22t-94.5 65t-61 106.5t-21.5 145.5v48q0 78 21.5 139t61 103.5t95 64.5t122.5 22t122.5 -22t95 -64t61 -103.5t21.5 -139.5v-48q0 -82 -21.5 -145t-61 -106t-95 -65.5t-122.5 -22.5zM557 396q-5 112 -60 169t-142 57q-88 0 -142.5 -56t-59.5 -170h404
zM355 78q87 0 142.5 58.5t59.5 177.5h-404q4 -119 60 -177.5t142 -58.5zM252 773q-26 0 -44 18t-18 44t18 44t44 18t44 -18t18 -44t-18 -44t-44 -18zM458 773q-26 0 -44 18t-18 44t18 44t44 18t44 -18t18 -44t-18 -44t-44 -18z" />
    <glyph glyph-name="uni04EB" unicode="&#x4eb;" horiz-adv-x="550" 
d="M275 -8q-107 0 -168.5 63t-61.5 181v28q0 117 62 180.5t168 63.5q107 0 168.5 -63t61.5 -181v-28q0 -117 -62 -180.5t-168 -63.5zM410 289q-6 69 -42 103t-93 34q-58 0 -94 -33.5t-41 -103.5h270zM275 74q58 0 94 33.5t41 103.5h-270q6 -69 42 -103t93 -34zM180 575
q-26 0 -43 17t-17 43t17 43t43 17t43 -17t17 -43t-17 -43t-43 -17zM370 575q-26 0 -43 17t-17 43t17 43t43 17t43 -17t17 -43t-17 -43t-43 -17z" />
    <glyph glyph-name="uni04EC" unicode="&#x4ec;" horiz-adv-x="670" 
d="M320 -8q-60 0 -107.5 17t-82 47.5t-56.5 72t-29 91.5h100q15 -63 58.5 -102.5t116.5 -39.5q85 0 138.5 59t58.5 175h-282v86h282q-5 109 -58.5 166.5t-138.5 57.5q-36 0 -65.5 -10t-51 -28t-36.5 -42t-22 -52h-100q7 46 29 85.5t56.5 69t82 46.5t107.5 17q65 0 119.5 -22
t93.5 -64.5t60.5 -103.5t21.5 -139v-48q0 -82 -21.5 -145.5t-60.5 -106.5t-93 -65t-120 -22zM217 773q-26 0 -44 18t-18 44t18 44t44 18t44 -18t18 -44t-18 -44t-44 -18zM423 773q-26 0 -44 18t-18 44t18 44t44 18t44 -18t18 -44t-18 -44t-44 -18z" />
    <glyph glyph-name="uni04ED" unicode="&#x4ed;" horiz-adv-x="510" 
d="M245 -8q-47 0 -83.5 12.5t-63 35t-42 53t-21.5 67.5h94q11 -39 38 -62.5t78 -23.5q56 0 88.5 37t36.5 103h-185v82h185q-5 63 -37.5 96.5t-87.5 33.5q-50 0 -77.5 -22.5t-38.5 -53.5h-94q6 33 22 62t42.5 50t63 33.5t82.5 12.5q49 0 90 -16t69.5 -47t44.5 -75t16 -101
v-28q0 -60 -16 -106.5t-45 -78t-69.5 -48t-89.5 -16.5zM150 575q-26 0 -43 17t-17 43t17 43t43 17t43 -17t17 -43t-17 -43t-43 -17zM340 575q-26 0 -43 17t-17 43t17 43t43 17t43 -17t17 -43t-17 -43t-43 -17z" />
    <glyph glyph-name="uni04EE" unicode="&#x4ee;" horiz-adv-x="610" 
d="M272 200l-252 500h106l194 -395h2l168 395h100l-305 -700h-100zM158 873h300v-76h-300v76z" />
    <glyph glyph-name="uni04EF" unicode="&#x4ef;" horiz-adv-x="520" 
d="M219 0l-204 500h98l153 -390h2l145 390h92l-271 -700h-92zM123 672h280v-74h-280v74z" />
    <glyph glyph-name="uni04F0" unicode="&#x4f0;" horiz-adv-x="610" 
d="M272 200l-252 500h106l194 -395h2l168 395h100l-305 -700h-100zM205 773q-26 0 -44 18t-18 44t18 44t44 18t44 -18t18 -44t-18 -44t-44 -18zM411 773q-26 0 -44 18t-18 44t18 44t44 18t44 -18t18 -44t-18 -44t-44 -18z" />
    <glyph glyph-name="uni04F1" unicode="&#x4f1;" horiz-adv-x="520" 
d="M219 0l-204 500h98l153 -390h2l145 390h92l-271 -700h-92zM168 575q-26 0 -43 17t-17 43t17 43t43 17t43 -17t17 -43t-17 -43t-43 -17zM358 575q-26 0 -43 17t-17 43t17 43t43 17t43 -17t17 -43t-17 -43t-43 -17z" />
    <glyph glyph-name="uni04F2" unicode="&#x4f2;" horiz-adv-x="610" 
d="M272 200l-252 500h106l194 -395h2l168 395h100l-305 -700h-100zM280 915h106l-118 -150h-86zM440 915h112l-138 -150h-92z" />
    <glyph glyph-name="uni04F3" unicode="&#x4f3;" horiz-adv-x="520" 
d="M219 0l-204 500h98l153 -390h2l145 390h92l-271 -700h-92zM230 715h104l-112 -150h-84zM388 715h110l-130 -150h-90z" />
    <glyph glyph-name="uni04F4" unicode="&#x4f4;" horiz-adv-x="630" 
d="M300 247q-62 0 -105 12t-70.5 32t-42.5 46t-22.5 53.5t-8.5 54.5t-1 50v205h94v-200q0 -25 2.5 -54t17.5 -54t46.5 -42t89.5 -17q42 0 79.5 5t76.5 16v346h94v-700h-94v266q-46 -11 -83 -15t-73 -4zM197 773q-26 0 -44 18t-18 44t18 44t44 18t44 -18t18 -44t-18 -44
t-44 -18zM403 773q-26 0 -44 18t-18 44t18 44t44 18t44 -18t18 -44t-18 -44t-44 -18z" />
    <glyph glyph-name="uni04F5" unicode="&#x4f5;" horiz-adv-x="520" 
d="M245 159q-106 0 -153 45.5t-47 139.5v156h90v-150q0 -31 5.5 -52t18.5 -33.5t34 -18t52 -5.5q32 0 60.5 4t49.5 9v246h90v-500h-90v172q-21 -5 -49.5 -9t-60.5 -4zM150 575q-26 0 -43 17t-17 43t17 43t43 17t43 -17t17 -43t-17 -43t-43 -17zM340 575q-26 0 -43 17t-17 43
t17 43t43 17t43 -17t17 -43t-17 -43t-43 -17z" />
    <glyph glyph-name="uni04F6" unicode="&#x4f6;" horiz-adv-x="515" 
d="M80 700h415v-86h-321v-528h80v-236h-90v150h-84v700z" />
    <glyph glyph-name="uni04F7" unicode="&#x4f7;" horiz-adv-x="425" 
d="M75 500h335v-82h-245v-336h70v-212h-90v130h-70v500z" />
    <glyph glyph-name="uni04F8" unicode="&#x4f8;" horiz-adv-x="830" 
d="M656 700h94v-700h-94v700zM80 700h94v-252h131q129 0 192 -59t63 -165q0 -107 -62.5 -165.5t-192.5 -58.5h-225v700zM300 86q86 0 124 35t38 103q0 69 -37.5 103.5t-124.5 34.5h-126v-276h126zM312 773q-26 0 -44 18t-18 44t18 44t44 18t44 -18t18 -44t-18 -44t-44 -18z
M518 773q-26 0 -44 18t-18 44t18 44t44 18t44 -18t18 -44t-18 -44t-44 -18z" />
    <glyph glyph-name="uni04F9" unicode="&#x4f9;" horiz-adv-x="710" 
d="M545 500h90v-500h-90v500zM75 500h90v-160h100q103 0 151.5 -45t48.5 -125q0 -79 -49 -124.5t-151 -45.5h-190v500zM165 258v-176h95q61 0 86 22t25 66q0 43 -25.5 65.5t-85.5 22.5h-95zM260 575q-26 0 -43 17t-17 43t17 43t43 17t43 -17t17 -43t-17 -43t-43 -17z
M450 575q-26 0 -43 17t-17 43t17 43t43 17t43 -17t17 -43t-17 -43t-43 -17z" />
    <glyph glyph-name="uni0512" unicode="&#x512;" horiz-adv-x="712" 
d="M20 78h20q23 0 42.5 10t33.5 39.5t21.5 81.5t7.5 136v355h460v-620q0 -146 -62.5 -213t-182.5 -67h-40v86h40q37 0 65.5 10.5t47.5 34t28.5 61.5t9.5 93v529h-272v-269q0 -107 -13 -175t-38 -108t-62 -55t-86 -15h-20v86z" />
    <glyph glyph-name="uni0513" unicode="&#x513;" horiz-adv-x="545" 
d="M15 74h15q29 0 45.5 19t24 54.5t9 85.5t1.5 112v155h360v-463q0 -126 -49.5 -181.5t-140.5 -55.5h-30v82h21q27 0 47.5 7.5t34 26t20.5 49.5t7 77v376h-180v-73q0 -71 -3 -135t-19 -112.5t-50.5 -77t-97.5 -28.5h-15v82z" />
    <glyph glyph-name="Wgrave" unicode="&#x1e80;" horiz-adv-x="970" 
d="M30 700h98l153 -590h2l140 590h124l154 -590h2l145 590h92l-178 -700h-124l-154 590h-2l-140 -590h-124zM315 915h114l116 -150h-94z" />
    <glyph glyph-name="wgrave" unicode="&#x1e81;" horiz-adv-x="770" 
d="M25 500h96l107 -400h2l93 400h122l108 -400h2l100 400h90l-129 -500h-122l-110 400h-2l-96 -400h-122zM220 715h112l108 -150h-92z" />
    <glyph glyph-name="Wacute" unicode="&#x1e82;" horiz-adv-x="970" 
d="M30 700h98l153 -590h2l140 590h124l154 -590h2l145 590h92l-178 -700h-124l-154 590h-2l-140 -590h-124zM547 915h112l-138 -150h-92z" />
    <glyph glyph-name="wacute" unicode="&#x1e83;" horiz-adv-x="770" 
d="M25 500h96l107 -400h2l93 400h122l108 -400h2l100 400h90l-129 -500h-122l-110 400h-2l-96 -400h-122zM440 715h110l-130 -150h-90z" />
    <glyph glyph-name="Wdieresis" unicode="&#x1e84;" horiz-adv-x="970" 
d="M30 700h98l153 -590h2l140 590h124l154 -590h2l145 590h92l-178 -700h-124l-154 590h-2l-140 -590h-124zM382 773q-26 0 -44 18t-18 44t18 44t44 18t44 -18t18 -44t-18 -44t-44 -18zM588 773q-26 0 -44 18t-18 44t18 44t44 18t44 -18t18 -44t-18 -44t-44 -18z" />
    <glyph glyph-name="wdieresis" unicode="&#x1e85;" horiz-adv-x="770" 
d="M25 500h96l107 -400h2l93 400h122l108 -400h2l100 400h90l-129 -500h-122l-110 400h-2l-96 -400h-122zM290 575q-26 0 -43 17t-17 43t17 43t43 17t43 -17t17 -43t-17 -43t-43 -17zM480 575q-26 0 -43 17t-17 43t17 43t43 17t43 -17t17 -43t-17 -43t-43 -17z" />
    <glyph glyph-name="uni1E9E" unicode="&#x1e9e;" horiz-adv-x="610" 
d="M75 492q0 48 15.5 87.5t44 68t68 44.5t87.5 16q46 0 83.5 -15t65.5 -41t45.5 -60t25.5 -73l-97 -112q50 -38 81.5 -66t49.5 -53t24.5 -50.5t6.5 -57.5q0 -39 -14.5 -72t-40.5 -57t-63 -37.5t-82 -13.5h-125v86h120q47 0 77 26t30 68q0 21 -5 39t-21.5 38.5t-47.5 45
t-83 59.5v67l86 102q-10 38 -37.5 64.5t-78.5 26.5q-54 0 -87.5 -35t-33.5 -100v-487h-94v492z" />
    <glyph glyph-name="Ygrave" unicode="&#x1ef2;" horiz-adv-x="650" 
d="M288 245l-268 455h108l209 -353l191 353h102l-248 -455v-245h-94v245zM158 915h114l116 -150h-94z" />
    <glyph glyph-name="ygrave" unicode="&#x1ef3;" horiz-adv-x="520" 
d="M219 0l-204 500h98l153 -390h2l145 390h92l-271 -700h-92zM98 715h112l108 -150h-92z" />
    <glyph glyph-name="uni2000" unicode="&#x2000;" horiz-adv-x="500" 
 />
    <glyph glyph-name="uni2001" unicode="&#x2001;" horiz-adv-x="1000" 
 />
    <glyph glyph-name="uni2002" unicode="&#x2002;" horiz-adv-x="500" 
 />
    <glyph glyph-name="uni2003" unicode="&#x2003;" horiz-adv-x="1000" 
 />
    <glyph glyph-name="uni2004" unicode="&#x2004;" horiz-adv-x="300" 
 />
    <glyph glyph-name="uni2005" unicode="&#x2005;" horiz-adv-x="250" 
 />
    <glyph glyph-name="uni2006" unicode="&#x2006;" horiz-adv-x="150" 
 />
    <glyph glyph-name="uni2007" unicode="&#x2007;" 
 />
    <glyph glyph-name="uni2008" unicode="&#x2008;" horiz-adv-x="300" 
 />
    <glyph glyph-name="uni2009" unicode="&#x2009;" horiz-adv-x="150" 
 />
    <glyph glyph-name="uni200A" unicode="&#x200a;" horiz-adv-x="100" 
 />
    <glyph glyph-name="uni200B" unicode="&#x200b;" horiz-adv-x="0" 
 />
    <glyph glyph-name="uni2010" unicode="&#x2010;" horiz-adv-x="450" 
d="M50 301h350v-82h-350v82z" />
    <glyph glyph-name="uni2011" unicode="&#x2011;" horiz-adv-x="450" 
d="M50 301h350v-82h-350v82z" />
    <glyph glyph-name="figuredash" unicode="&#x2012;" 
d="M50 403h490v-86h-490v86z" />
    <glyph glyph-name="endash" unicode="&#x2013;" horiz-adv-x="800" 
d="M100 301h600v-82h-600v82z" />
    <glyph glyph-name="emdash" unicode="&#x2014;" horiz-adv-x="1000" 
d="M100 301h800v-82h-800v82z" />
    <glyph glyph-name="uni2015" unicode="&#x2015;" horiz-adv-x="2600" 
d="M100 301h2400v-82h-2400v82z" />
    <glyph glyph-name="quoteleft" unicode="&#x2018;" horiz-adv-x="250" 
d="M94 445h-104l70 255h80z" />
    <glyph glyph-name="quoteright" unicode="&#x2019;" horiz-adv-x="250" 
d="M96 700h104l-70 -255h-80z" />
    <glyph glyph-name="quotesinglbase" unicode="&#x201a;" horiz-adv-x="250" 
d="M82 105h104l-70 -255h-80z" />
    <glyph glyph-name="quotedblleft" unicode="&#x201c;" horiz-adv-x="420" 
d="M94 445h-104l70 255h80zM265 445h-104l70 255h80z" />
    <glyph glyph-name="quotedblright" unicode="&#x201d;" horiz-adv-x="420" 
d="M96 700h104l-70 -255h-80zM267 700h104l-70 -255h-80z" />
    <glyph glyph-name="quotedblbase" unicode="&#x201e;" horiz-adv-x="420" 
d="M251 105h104l-70 -255h-80zM82 105h104l-70 -255h-80z" />
    <glyph glyph-name="dagger" unicode="&#x2020;" horiz-adv-x="460" 
d="M185 418h-160v82h160v200h90v-200h160v-82h-160v-618h-90v618z" />
    <glyph glyph-name="daggerdbl" unicode="&#x2021;" horiz-adv-x="460" 
d="M25 82h160v336h-160v82h160v200h90v-200h160v-82h-160v-336h160v-82h-160v-200h-90v200h-160v82z" />
    <glyph glyph-name="bullet" unicode="&#x2022;" horiz-adv-x="450" 
d="M225 131q-27 0 -50.5 10t-41 27.5t-27.5 41t-10 50.5t10 50.5t27.5 41t41 27.5t50.5 10t50.5 -10t41 -27.5t27.5 -41t10 -50.5t-10 -50.5t-27.5 -41t-41 -27.5t-50.5 -10z" />
    <glyph glyph-name="uni2023" unicode="&#x2023;" horiz-adv-x="450" 
d="M117 424l265 -164l-265 -164v328z" />
    <glyph glyph-name="onedotenleader" unicode="&#x2024;" horiz-adv-x="300" 
d="M150 -8q-30 0 -48.5 19t-18.5 48t18.5 48t48.5 19t48.5 -19t18.5 -48t-18.5 -48t-48.5 -19z" />
    <glyph glyph-name="twodotenleader" unicode="&#x2025;" horiz-adv-x="600" 
d="M150 -8q-30 0 -48.5 19t-18.5 48t18.5 48t48.5 19t48.5 -19t18.5 -48t-18.5 -48t-48.5 -19zM450 -8q-30 0 -48.5 19t-18.5 48t18.5 48t48.5 19t48.5 -19t18.5 -48t-18.5 -48t-48.5 -19z" />
    <glyph glyph-name="ellipsis" unicode="&#x2026;" horiz-adv-x="900" 
d="M150 -8q-30 0 -48.5 19t-18.5 48t18.5 48t48.5 19t48.5 -19t18.5 -48t-18.5 -48t-48.5 -19zM450 -8q-30 0 -48.5 19t-18.5 48t18.5 48t48.5 19t48.5 -19t18.5 -48t-18.5 -48t-48.5 -19zM750 -8q-30 0 -48.5 19t-18.5 48t18.5 48t48.5 19t48.5 -19t18.5 -48t-18.5 -48
t-48.5 -19z" />
    <glyph glyph-name="uni2027" unicode="&#x2027;" horiz-adv-x="300" 
d="M150 193q-30 0 -48.5 19t-18.5 48t18.5 48t48.5 19t48.5 -19t18.5 -48t-18.5 -48t-48.5 -19z" />
    <glyph glyph-name="uni202F" unicode="&#x202f;" horiz-adv-x="150" 
 />
    <glyph glyph-name="perthousand" unicode="&#x2030;" horiz-adv-x="1300" 
d="M210 342q-38 0 -69.5 12t-54 34t-34.5 52t-12 66v38q0 36 12 66t34.5 52t54 34t69.5 12t69 -12t53.5 -34t35 -52t12.5 -66v-38q0 -36 -12.5 -66t-35 -52t-53.5 -34t-69 -12zM210 420q39 0 61.5 22t22.5 64v38q0 42 -22.5 64t-61.5 22t-61.5 -22t-22.5 -64v-38
q0 -42 22.5 -64t61.5 -22zM690 -8q-38 0 -69.5 12t-54 34t-34.5 52t-12 66v38q0 36 12 66t34.5 52t54 34t69.5 12t69 -12t53.5 -34t35 -52t12.5 -66v-38q0 -36 -12.5 -66t-35 -52t-53.5 -34t-69 -12zM1090 -8q-38 0 -69.5 12t-54 34t-34.5 52t-12 66v38q0 36 12 66t34.5 52
t54 34t69.5 12t69 -12t53.5 -34t35 -52t12.5 -66v-38q0 -36 -12.5 -66t-35 -52t-53.5 -34t-69 -12zM690 70q39 0 61.5 22t22.5 64v38q0 42 -22.5 64t-61.5 22t-61.5 -22t-22.5 -64v-38q0 -42 22.5 -64t61.5 -22zM1090 70q39 0 61.5 22t22.5 64v38q0 42 -22.5 64t-61.5 22
t-61.5 -22t-22.5 -64v-38q0 -42 22.5 -64t61.5 -22zM604 700h96l-404 -700h-96z" />
    <glyph glyph-name="uni2031" unicode="&#x2031;" horiz-adv-x="1700" 
d="M210 342q-38 0 -69.5 12t-54 34t-34.5 52t-12 66v38q0 36 12 66t34.5 52t54 34t69.5 12t69 -12t53.5 -34t35 -52t12.5 -66v-38q0 -36 -12.5 -66t-35 -52t-53.5 -34t-69 -12zM210 420q39 0 61.5 22t22.5 64v38q0 42 -22.5 64t-61.5 22t-61.5 -22t-22.5 -64v-38
q0 -42 22.5 -64t61.5 -22zM690 -8q-38 0 -69.5 12t-54 34t-34.5 52t-12 66v38q0 36 12 66t34.5 52t54 34t69.5 12t69 -12t53.5 -34t35 -52t12.5 -66v-38q0 -36 -12.5 -66t-35 -52t-53.5 -34t-69 -12zM1090 -8q-38 0 -69.5 12t-54 34t-34.5 52t-12 66v38q0 36 12 66t34.5 52
t54 34t69.5 12t69 -12t53.5 -34t35 -52t12.5 -66v-38q0 -36 -12.5 -66t-35 -52t-53.5 -34t-69 -12zM1490 -8q-38 0 -69.5 12t-54 34t-34.5 52t-12 66v38q0 36 12 66t34.5 52t54 34t69.5 12t69 -12t53.5 -34t35 -52t12.5 -66v-38q0 -36 -12.5 -66t-35 -52t-53.5 -34t-69 -12z
M690 70q39 0 61.5 22t22.5 64v38q0 42 -22.5 64t-61.5 22t-61.5 -22t-22.5 -64v-38q0 -42 22.5 -64t61.5 -22zM1090 70q39 0 61.5 22t22.5 64v38q0 42 -22.5 64t-61.5 22t-61.5 -22t-22.5 -64v-38q0 -42 22.5 -64t61.5 -22zM1490 70q39 0 61.5 22t22.5 64v38q0 42 -22.5 64
t-61.5 22t-61.5 -22t-22.5 -64v-38q0 -42 22.5 -64t61.5 -22zM604 700h96l-404 -700h-96z" />
    <glyph glyph-name="guilsinglleft" unicode="&#x2039;" horiz-adv-x="300" 
d="M152 460h98l-120 -198l120 -202h-101l-119 198z" />
    <glyph glyph-name="guilsinglright" unicode="&#x203a;" horiz-adv-x="300" 
d="M148 60h-98l120 198l-120 202h101l119 -198z" />
    <glyph glyph-name="exclamdbl" unicode="&#x203c;" horiz-adv-x="550" 
d="M353 700h94v-500h-94v500zM400 -8q-31 0 -50.5 20.5t-19.5 49.5t19.5 49.5t50.5 20.5t50.5 -20.5t19.5 -49.5t-19.5 -49.5t-50.5 -20.5zM103 700h94v-500h-94v500zM150 -8q-31 0 -50.5 20.5t-19.5 49.5t19.5 49.5t50.5 20.5t50.5 -20.5t19.5 -49.5t-19.5 -49.5
t-50.5 -20.5z" />
    <glyph glyph-name="uni203D" unicode="&#x203d;" horiz-adv-x="510" 
d="M203 542h87v-160q15 17 30.5 31t28 29t20.5 33.5t8 44.5q0 43 -30.5 70.5t-91.5 27.5q-66 0 -97 -29t-35 -84h-98q2 45 18 82.5t44.5 64.5t69.5 41.5t93 14.5q55 0 97 -14t70.5 -38.5t43 -58t14.5 -72.5q0 -47 -13 -77t-33 -52t-43 -39t-43 -37t-33 -47t-13 -69h-94v338z
M250 -8q-31 0 -50.5 20.5t-19.5 49.5t19.5 49.5t50.5 20.5t50.5 -20.5t19.5 -49.5t-19.5 -49.5t-50.5 -20.5z" />
    <glyph glyph-name="uni2043" unicode="&#x2043;" horiz-adv-x="450" 
d="M50 307h350v-94h-350v94z" />
    <glyph glyph-name="fraction" unicode="&#x2044;" horiz-adv-x="150" 
d="M229 700h96l-404 -700h-96z" />
    <glyph glyph-name="uni2047" unicode="&#x2047;" horiz-adv-x="990" 
d="M688 204q0 53 12.5 87.5t31.5 58.5t40.5 41t40.5 34.5t31.5 39t12.5 55.5q0 43 -30 70.5t-87 27.5q-62 0 -92.5 -29t-34.5 -84h-98q2 45 18 82.5t44 64.5t68 41.5t90 14.5q53 0 94 -14t69 -38.5t42.5 -58t14.5 -72.5q0 -46 -13 -76t-32 -52t-41.5 -39.5t-41.5 -38
t-32 -47.5t-13 -68h-94zM735 -8q-31 0 -50.5 20.5t-19.5 49.5t19.5 49.5t50.5 20.5t50.5 -20.5t19.5 -49.5t-19.5 -49.5t-50.5 -20.5zM198 204q0 53 12.5 87.5t31.5 58.5t40.5 41t40.5 34.5t31.5 39t12.5 55.5q0 43 -30 70.5t-87 27.5q-62 0 -92.5 -29t-34.5 -84h-98
q2 45 18 82.5t44 64.5t68 41.5t90 14.5q53 0 94 -14t69 -38.5t42.5 -58t14.5 -72.5q0 -46 -13 -76t-32 -52t-41.5 -39.5t-41.5 -38t-32 -47.5t-13 -68h-94zM245 -8q-31 0 -50.5 20.5t-19.5 49.5t19.5 49.5t50.5 20.5t50.5 -20.5t19.5 -49.5t-19.5 -49.5t-50.5 -20.5z" />
    <glyph glyph-name="uni2048" unicode="&#x2048;" horiz-adv-x="750" 
d="M553 700h94v-500h-94v500zM600 -8q-31 0 -50.5 20.5t-19.5 49.5t19.5 49.5t50.5 20.5t50.5 -20.5t19.5 -49.5t-19.5 -49.5t-50.5 -20.5zM198 204q0 53 12.5 87.5t31.5 58.5t40.5 41t40.5 34.5t31.5 39t12.5 55.5q0 43 -30 70.5t-87 27.5q-62 0 -92.5 -29t-34.5 -84h-98
q2 45 18 82.5t44 64.5t68 41.5t90 14.5q53 0 94 -14t69 -38.5t42.5 -58t14.5 -72.5q0 -46 -13 -76t-32 -52t-41.5 -39.5t-41.5 -38t-32 -47.5t-13 -68h-94zM245 -8q-31 0 -50.5 20.5t-19.5 49.5t19.5 49.5t50.5 20.5t50.5 -20.5t19.5 -49.5t-19.5 -49.5t-50.5 -20.5z" />
    <glyph glyph-name="uni2049" unicode="&#x2049;" horiz-adv-x="750" 
d="M103 700h94v-500h-94v500zM150 -8q-31 0 -50.5 20.5t-19.5 49.5t19.5 49.5t50.5 20.5t50.5 -20.5t19.5 -49.5t-19.5 -49.5t-50.5 -20.5zM448 204q0 53 12.5 87.5t31.5 58.5t40.5 41t40.5 34.5t31.5 39t12.5 55.5q0 43 -30 70.5t-87 27.5q-62 0 -92.5 -29t-34.5 -84h-98
q2 45 18 82.5t44 64.5t68 41.5t90 14.5q53 0 94 -14t69 -38.5t42.5 -58t14.5 -72.5q0 -46 -13 -76t-32 -52t-41.5 -39.5t-41.5 -38t-32 -47.5t-13 -68h-94zM495 -8q-31 0 -50.5 20.5t-19.5 49.5t19.5 49.5t50.5 20.5t50.5 -20.5t19.5 -49.5t-19.5 -49.5t-50.5 -20.5z" />
    <glyph glyph-name="uni205F" unicode="&#x205f;" 
 />
    <glyph glyph-name="uni2060" unicode="&#x2060;" horiz-adv-x="0" 
 />
    <glyph glyph-name="uni2070" unicode="&#x2070;" horiz-adv-x="390" 
d="M195 372q-72 0 -116 50.5t-44 163.5v38q0 113 44 163.5t116 50.5q73 0 116.5 -50.5t43.5 -163.5v-38q0 -57 -11 -97.5t-32 -66.5t-50.5 -38t-66.5 -12zM195 448q18 0 32 6.5t24 22.5t15.5 42.5t5.5 66.5v38q0 40 -5.5 66.5t-15.5 42.5t-24 22.5t-32 6.5q-17 0 -31.5 -6.5
t-24.5 -22.5t-15.5 -42.5t-5.5 -66.5v-38q0 -40 5.5 -66.5t15.5 -42.5t24.5 -22.5t31.5 -6.5z" />
    <glyph glyph-name="uni2071" unicode="&#x2071;" horiz-adv-x="170" 
d="M85 748q-22 0 -37 15t-15 37t15 37t37 15t37 -15t15 -37t-15 -37t-37 -15zM46 700h78v-320h-78v320z" />
    <glyph glyph-name="uni2074" unicode="&#x2074;" horiz-adv-x="370" 
d="M229 470h-214v71l185 289h107v-289h48v-71h-48v-90h-78v90zM229 541v213l-133 -213h133z" />
    <glyph glyph-name="uni2075" unicode="&#x2075;" horiz-adv-x="385" 
d="M190 372q-34 0 -62 9.5t-49 25.5t-35 38t-19 46h87q5 -14 24 -29t54 -15t58.5 21.5t23.5 61.5t-23.5 61.5t-58.5 21.5q-28 0 -46 -10.5t-32 -24.5h-77l20 252h272v-71h-200l-8 -101q36 30 87 30q68 0 108.5 -42.5t40.5 -115.5q0 -72 -43.5 -115t-121.5 -43z" />
    <glyph glyph-name="uni2076" unicode="&#x2076;" horiz-adv-x="390" 
d="M200 372q-77 0 -121 47t-44 147v39q0 61 12.5 105.5t34.5 72.5t52 41.5t66 13.5q63 0 98 -31.5t43 -78.5h-82q-4 13 -18.5 24.5t-41.5 11.5q-37 0 -61 -27t-28 -98q38 41 96 41q70 0 109.5 -39.5t39.5 -108.5v-10q0 -32 -11.5 -59.5t-32 -47.5t-49 -31.5t-62.5 -11.5z
M118 522q0 -36 20.5 -56t60.5 -20q33 0 53 20.5t20 55.5v10q0 33 -20.5 53t-56.5 20t-56.5 -20t-20.5 -53v-10z" />
    <glyph glyph-name="uni2077" unicode="&#x2077;" horiz-adv-x="330" 
d="M235 758h-225v72h310v-72l-161 -378h-89z" />
    <glyph glyph-name="uni2078" unicode="&#x2078;" horiz-adv-x="380" 
d="M190 372q-78 0 -119 38t-41 95q0 35 18.5 64t55.5 47q-29 17 -44 42t-15 57q0 25 10 47.5t28.5 39.5t45.5 26.5t61 9.5t60.5 -9.5t45.5 -26.5t29 -39.5t10 -47.5q0 -32 -15 -57t-44 -42q37 -18 55.5 -47t18.5 -64q0 -57 -41 -95t-119 -38zM190 647q29 4 47 21.5t18 43.5
q0 21 -18 37.5t-47 16.5t-46.5 -16.5t-17.5 -37.5q0 -26 17.5 -43.5t46.5 -21.5zM190 444q36 0 57.5 19.5t21.5 44.5q0 29 -21 49.5t-58 25.5q-36 -5 -57 -25.5t-21 -49.5q0 -25 21 -44.5t57 -19.5z" />
    <glyph glyph-name="uni2079" unicode="&#x2079;" horiz-adv-x="390" 
d="M190 836q77 0 121 -47t44 -147v-39q0 -62 -12.5 -106t-34.5 -72t-52 -41.5t-66 -13.5q-63 0 -98 31.5t-43 78.5h82q4 -13 18.5 -24.5t41.5 -11.5q37 0 60.5 27t28.5 98q-18 -20 -42.5 -30.5t-53.5 -10.5q-70 0 -109.5 39.5t-39.5 108.5v10q0 32 11.5 59.5t32 47.5
t49 31.5t62.5 11.5zM272 686q0 36 -20.5 56t-60.5 20q-33 0 -53 -20.5t-20 -55.5v-10q0 -33 20.5 -53t56.5 -20t56.5 20t20.5 53v10z" />
    <glyph glyph-name="uni207A" unicode="&#x207a;" horiz-adv-x="400" 
d="M161 569h-111v72h111v115h78v-115h111v-72h-111v-116h-78v116z" />
    <glyph glyph-name="uni207B" unicode="&#x207b;" horiz-adv-x="400" 
d="M50 641h300v-72h-300v72z" />
    <glyph glyph-name="uni207C" unicode="&#x207c;" horiz-adv-x="400" 
d="M50 706h300v-72h-300v72zM50 577h300v-72h-300v72z" />
    <glyph glyph-name="uni207D" unicode="&#x207d;" horiz-adv-x="240" 
d="M35 605q0 54 15 96t34 71q21 33 49 58h97q-32 -25 -58 -58q-22 -29 -39.5 -71t-17.5 -96q0 -55 17.5 -96.5t39.5 -70.5q26 -33 58 -58h-101q-27 25 -47 58q-18 29 -32.5 70.5t-14.5 96.5z" />
    <glyph glyph-name="uni207E" unicode="&#x207e;" horiz-adv-x="240" 
d="M205 605q0 -55 -15.5 -96.5t-33.5 -70.5q-22 -33 -49 -58h-97q31 25 57 58q22 29 40 70.5t18 96.5q0 54 -18 96t-40 71q-26 33 -57 58h101q26 -25 47 -58q17 -29 32 -71t15 -96z" />
    <glyph glyph-name="uni207F" unicode="&#x207f;" horiz-adv-x="370" 
d="M40 700h61l7 -43q17 26 43 38.5t58 12.5q59 0 92.5 -36.5t33.5 -111.5v-180h-77v180q0 39 -17 57t-49 18q-36 0 -55.5 -19.5t-19.5 -55.5v-180h-77v320z" />
    <glyph glyph-name="uni2080" unicode="&#x2080;" horiz-adv-x="390" 
d="M195 -137q-72 0 -116 50.5t-44 163.5v38q0 113 44 163.5t116 50.5q73 0 116.5 -50.5t43.5 -163.5v-38q0 -57 -11 -97.5t-32 -66.5t-50.5 -38t-66.5 -12zM195 -61q18 0 32 6.5t24 22.5t15.5 42.5t5.5 66.5v38q0 40 -5.5 66.5t-15.5 42.5t-24 22.5t-32 6.5
q-17 0 -31.5 -6.5t-24.5 -22.5t-15.5 -42.5t-5.5 -66.5v-38q0 -40 5.5 -66.5t15.5 -42.5t24.5 -22.5t31.5 -6.5z" />
    <glyph glyph-name="uni2081" unicode="&#x2081;" horiz-adv-x="260" 
d="M132 236l-117 -74v87l117 72h78v-450h-78v365z" />
    <glyph glyph-name="uni2082" unicode="&#x2082;" horiz-adv-x="355" 
d="M21 -57l144 134q25 24 40 40.5t23 29.5t11 24.5t3 23.5q0 28 -17 43.5t-52 15.5t-52 -15.5t-17 -43.5h-83q0 58 40 96t112 38q71 0 111.5 -38t40.5 -96q0 -22 -6 -41.5t-19 -39.5t-33.5 -42t-48.5 -48l-88 -81h195v-72h-304v72z" />
    <glyph glyph-name="uni2083" unicode="&#x2083;" horiz-adv-x="370" 
d="M180 -137q-77 0 -117 38t-43 110h83q6 -73 77 -73q38 0 57.5 18t19.5 46q0 27 -19.5 45.5t-57.5 18.5h-58v70h58q34 0 50.5 16t16.5 43q0 28 -16.5 43.5t-50.5 15.5q-32 0 -48 -14.5t-19 -44.5h-83q3 61 41.5 97.5t108.5 36.5q71 0 110.5 -36t39.5 -89q0 -70 -57 -99
q33 -17 50 -45t17 -62q0 -60 -41 -97.5t-119 -37.5z" />
    <glyph glyph-name="uni2084" unicode="&#x2084;" horiz-adv-x="370" 
d="M229 -39h-214v71l185 289h107v-289h48v-71h-48v-90h-78v90zM229 32v213l-133 -213h133z" />
    <glyph glyph-name="uni2085" unicode="&#x2085;" horiz-adv-x="385" 
d="M190 -137q-34 0 -62 9.5t-49 25.5t-35 38t-19 46h87q5 -14 24 -29t54 -15t58.5 21.5t23.5 61.5t-23.5 61.5t-58.5 21.5q-28 0 -46 -10.5t-32 -24.5h-77l20 252h272v-71h-200l-8 -101q36 30 87 30q68 0 108.5 -42.5t40.5 -115.5q0 -72 -43.5 -115t-121.5 -43z" />
    <glyph glyph-name="uni2086" unicode="&#x2086;" horiz-adv-x="390" 
d="M200 -137q-77 0 -121 47t-44 147v39q0 61 12.5 105.5t34.5 72.5t52 41.5t66 13.5q63 0 98 -31.5t43 -78.5h-82q-4 13 -18.5 24.5t-41.5 11.5q-37 0 -61 -27t-28 -98q38 41 96 41q70 0 109.5 -39.5t39.5 -108.5v-10q0 -32 -11.5 -59.5t-32 -47.5t-49 -31.5t-62.5 -11.5z
M118 13q0 -36 20.5 -56t60.5 -20q33 0 53 20.5t20 55.5v10q0 33 -20.5 53t-56.5 20t-56.5 -20t-20.5 -53v-10z" />
    <glyph glyph-name="uni2087" unicode="&#x2087;" horiz-adv-x="330" 
d="M235 249h-225v72h310v-72l-161 -378h-89z" />
    <glyph glyph-name="uni2088" unicode="&#x2088;" horiz-adv-x="380" 
d="M190 -137q-78 0 -119 38t-41 95q0 35 18.5 64t55.5 47q-29 17 -44 42t-15 57q0 25 10 47.5t28.5 39.5t45.5 26.5t61 9.5t60.5 -9.5t45.5 -26.5t29 -39.5t10 -47.5q0 -32 -15 -57t-44 -42q37 -18 55.5 -47t18.5 -64q0 -57 -41 -95t-119 -38zM190 138q29 4 47 21.5t18 43.5
q0 21 -18 37.5t-47 16.5t-46.5 -16.5t-17.5 -37.5q0 -26 17.5 -43.5t46.5 -21.5zM190 -65q36 0 57.5 19.5t21.5 44.5q0 29 -21 49.5t-58 25.5q-36 -5 -57 -25.5t-21 -49.5q0 -25 21 -44.5t57 -19.5z" />
    <glyph glyph-name="uni2089" unicode="&#x2089;" horiz-adv-x="390" 
d="M190.012 328.022q76.9961 0 120.993 -46.9971t43.9971 -146.991v-38.9971q0 -60.9961 -12.499 -105.494q-12.499 -44.4971 -34.498 -72.4951t-51.9971 -41.4971q-29.998 -13.5 -65.9961 -13.5q-62.9961 0 -97.9932 31.498q-34.998 31.498 -42.998 78.4961h81.9951
q4 -13 18.499 -24.499t41.4971 -11.499q36.998 0 60.9971 26.998q23.998 26.998 27.998 97.9941q-37.998 -40.998 -95.9941 -40.998q-69.9961 0 -109.493 39.498q-39.498 39.498 -39.498 108.493v10q0 31.998 11.499 59.4961q11.5 27.498 31.998 47.4971
q20.499 19.999 48.9971 31.498q28.499 11.499 62.4961 11.499zM272.007 178.032q0 35.9971 -20.498 55.9961q-20.499 19.999 -60.4971 19.999q-32.998 0 -52.9961 -20.499q-19.999 -20.499 -19.999 -55.4961v-10q0 -32.998 20.499 -52.9961q20.498 -19.999 56.4961 -19.999
t56.4971 19.999q20.498 19.998 20.498 52.9961v10z" />
    <glyph glyph-name="uni208A" unicode="&#x208a;" horiz-adv-x="400" 
d="M161 60h-111v72h111v115h78v-115h111v-72h-111v-116h-78v116z" />
    <glyph glyph-name="uni208B" unicode="&#x208b;" horiz-adv-x="400" 
d="M50 132h300v-72h-300v72z" />
    <glyph glyph-name="uni208C" unicode="&#x208c;" horiz-adv-x="400" 
d="M50 197h300v-72h-300v72zM50 68h300v-72h-300v72z" />
    <glyph glyph-name="uni208D" unicode="&#x208d;" horiz-adv-x="240" 
d="M35 96q0 54 15 96t34 71q21 33 49 58h97q-32 -25 -58 -58q-22 -29 -39.5 -71t-17.5 -96q0 -55 17.5 -96.5t39.5 -70.5q26 -33 58 -58h-101q-27 25 -47 58q-18 29 -32.5 70.5t-14.5 96.5z" />
    <glyph glyph-name="uni208E" unicode="&#x208e;" horiz-adv-x="240" 
d="M205 96q0 -55 -15.5 -96.5t-33.5 -70.5q-22 -33 -49 -58h-97q31 25 57 58q22 29 40 70.5t18 96.5q0 54 -18 96t-40 71q-26 33 -57 58h101q26 -25 47 -58q17 -29 32 -71t15 -96z" />
    <glyph glyph-name="uni2090" unicode="&#x2090;" horiz-adv-x="350" 
d="M138 -137q-56 0 -84.5 26.5t-28.5 71.5q0 49 34.5 77.5t121.5 28.5h57v14q0 30 -13 43t-45 13q-29 0 -42 -10.5t-17 -26.5h-78q4 43 37 71t100 28q69 0 102 -30.5t33 -87.5v-210h-61l-8 48q-34 -56 -108 -56zM152 -75q40 0 63 23t23 58v9h-58q-42 0 -58 -12t-16 -34
q0 -23 12.5 -33.5t33.5 -10.5z" />
    <glyph glyph-name="uni2091" unicode="&#x2091;" horiz-adv-x="360" 
d="M180 -137q-72 0 -113.5 41.5t-41.5 111.5v30q0 70 41.5 111.5t113.5 41.5q71 0 113 -42.5t42 -110.5v-42h-236q6 -77 81 -77q32 0 47 11t22 28h81q-14 -51 -53.5 -77t-96.5 -26zM180 135q-74 0 -80 -75h160q-6 75 -80 75z" />
    <glyph glyph-name="uni2092" unicode="&#x2092;" horiz-adv-x="360" 
d="M180 -137q-71 0 -113 41.5t-42 111.5v30q0 70 42 111.5t113 41.5q72 0 113.5 -41.5t41.5 -111.5v-30q0 -70 -41.5 -111.5t-113.5 -41.5zM180 -63q35 0 55 20.5t20 58.5v30q0 38 -20 58.5t-55 20.5t-55 -20.5t-20 -58.5v-30q0 -38 20 -58.5t55 -20.5z" />
    <glyph glyph-name="uni2093" unicode="&#x2093;" horiz-adv-x="350" 
d="M130 35l-105 156h87l64 -97l65 97h84l-104 -156l114 -164h-91l-69 105l-71 -105h-89z" />
    <glyph glyph-name="uni2094" unicode="&#x2094;" horiz-adv-x="360" 
d="M180.011 197.022q71.9961 0 113.493 -41.4971q41.498 -41.498 41.498 -111.493v-29.998q0 -69.9961 -41.498 -111.493q-41.4971 -41.498 -113.493 -41.498q-70.9951 0 -112.993 42.498q-41.9971 42.4971 -41.9971 110.493v41.9971h235.985
q-5.99902 76.9951 -80.9951 76.9951q-31.998 0 -46.9971 -10.999t-21.998 -27.998h-80.9951q13.999 50.9961 53.4961 76.9951q39.498 25.998 96.4941 25.998zM180.011 -74.9609q73.9961 0 79.9951 74.9961h-159.99q6 -74.9961 79.9951 -74.9961z" />
    <glyph glyph-name="uni2095" unicode="&#x2095;" horiz-adv-x="370" 
d="M40 321h77v-163q33 41 92 41t92.5 -36.5t33.5 -111.5v-180h-77v180q0 39 -17 57t-49 18q-36 0 -55.5 -19.5t-19.5 -55.5v-180h-77v450z" />
    <glyph glyph-name="uni2096" unicode="&#x2096;" horiz-adv-x="340" 
d="M40 321h77v-273l111 143h87l-117 -147l127 -173h-88l-87 122l-33 -41v-81h-77v450z" />
    <glyph glyph-name="uni2097" unicode="&#x2097;" horiz-adv-x="195" 
d="M152 -129q-117 0 -117 117v333h77v-327q0 -29 11.5 -41.5t40.5 -12.5h21v-69h-33v0z" />
    <glyph glyph-name="uni2098" unicode="&#x2098;" horiz-adv-x="570" 
d="M40 191h61l7 -43q33 51 97 51q33 0 59 -13.5t42 -41.5q32 55 108 55q55 0 88 -36.5t33 -111.5v-180h-77v180q0 39 -16 57t-45 18q-33 0 -52 -19.5t-19 -55.5v-180h-77v180q0 39 -16 57t-45 18q-33 0 -52 -19.5t-19 -55.5v-180h-77v320z" />
    <glyph glyph-name="uni2099" unicode="&#x2099;" horiz-adv-x="370" 
d="M40 191h61l7 -43q17 26 43 38.5t58 12.5q59 0 92.5 -36.5t33.5 -111.5v-180h-77v180q0 39 -17 57t-49 18q-36 0 -55.5 -19.5t-19.5 -55.5v-180h-77v320z" />
    <glyph glyph-name="uni209a" unicode="&#x209a;" horiz-adv-x="365" 
d="M40 191h61l8 -45q16 27 42 40t60 13q56 0 92.5 -40t36.5 -118v-20q0 -78 -36.5 -118t-93.5 -40q-61 0 -93 41v-163h-77v450zM188 -64q33 0 52 21.5t19 63.5v20q0 42 -19.5 63.5t-51.5 21.5q-33 0 -52 -20.5t-19 -64.5v-20q0 -44 19 -64.5t52 -20.5z" />
    <glyph glyph-name="uni209B" unicode="&#x209b;" horiz-adv-x="320" 
d="M160 -137q-69 0 -100 27.5t-35 75.5h79q3 -20 15 -29.5t41 -9.5q32 0 44 9.5t12 27.5q0 16 -14 24t-34.5 13t-45 10t-45 15t-34.5 27t-14 48q0 45 31 71.5t100 26.5q64 0 94.5 -27t35.5 -72h-79q-4 17 -15 26t-36 9q-29 0 -40.5 -9t-11.5 -23q0 -13 14 -19.5t34.5 -11
t45 -10t45 -16.5t34.5 -30t14 -50q0 -48 -31.5 -75.5t-103.5 -27.5z" />
    <glyph glyph-name="uni209C" unicode="&#x209c;" horiz-adv-x="240" 
d="M187 -129q-65 0 -91 25t-26 83v143h-60v69h60v90h77v-90h73v-69h-73v-142q0 -20 10 -29.5t33 -9.5h40v-70h-43v0z" />
    <glyph glyph-name="franc" unicode="&#x20a3;" horiz-adv-x="565" 
d="M10 207h95v493h435v-86h-341v-216h281v-86h-281v-105h141v-74h-141v-133h-94v133h-95v74z" />
    <glyph glyph-name="Euro" unicode="&#x20ac;" horiz-adv-x="620" 
d="M32 312h88v76h-110l22 74h94q20 120 92.5 179t187.5 59h184l-26 -89h-158q-75 0 -120.5 -34.5t-60.5 -114.5h296l-21 -74h-282v-76h260l-21 -74h-232q14 -81 59.5 -115.5t120.5 -34.5h175v-88h-175q-118 0 -189.5 58.5t-89.5 179.5h-116z" />
    <glyph glyph-name="uni20B4" unicode="&#x20b4;" horiz-adv-x="580" 
d="M50 457h297q26 25 39.5 48.5t13.5 47.5q0 35 -23 54.5t-72 19.5q-87 0 -102 -69h-94q11 70 63 110t128 40q98 0 145 -41.5t47 -111.5q0 -52 -36 -98h74v-74h-480v74zM50 317h480v-74h-307q-42 -45 -42 -92q0 -38 23 -58.5t76 -20.5q48 0 78 18.5t38 60.5h95
q-8 -69 -60 -114t-151 -45q-98 0 -144.5 42t-46.5 116q0 49 30 93h-69v74z" />
    <glyph glyph-name="uni20B8" unicode="&#x20b8;" 
d="M248 462h-223v86h540v-86h-223v-462h-94v462zM25 700h540v-86h-540v86z" />
    <glyph glyph-name="uni20BD" unicode="&#x20bd;" horiz-adv-x="620" 
d="M110 123h-95v74h95v67h-95v84h95v352h220q135 0 197.5 -57.5t62.5 -160.5q0 -101 -63.5 -159.5t-196.5 -58.5h-126v-67h236v-74h-236v-123h-94v123zM204 614v-266h126q89 0 126 33t37 100q0 66 -37.5 99.5t-125.5 33.5h-126z" />
    <glyph glyph-name="uni20BF" unicode="&#x20bf;" horiz-adv-x="620" 
d="M80 700h93v100h84v-100h53h13v100h84v-110q75 -17 109 -62.5t34 -114.5q0 -101 -88 -148v-2q108 -44 108 -166q0 -80 -38.5 -128.5t-124.5 -62.5v-106h-84v100h-66v-100h-84v100h-93v700zM174 317v-231h151q82 0 114.5 28.5t32.5 87.5q0 58 -32.5 86.5t-114.5 28.5h-151z
M174 614v-211h131q82 0 114.5 27t32.5 78t-32.5 78.5t-114.5 27.5h-131z" />
    <glyph glyph-name="uni20F0" unicode="&#x20f0;" horiz-adv-x="250" 
d="M45 636l39 67h-74v44h74l-39 67l42 24l38 -65l38 65l42 -24l-39 -67h74v-44h-74l39 -67l-42 -24l-38 65l-38 -65z" />
    <glyph glyph-name="uni2100" unicode="&#x2100;" horiz-adv-x="850" 
d="M604 700h96l-404 -700h-96zM660 -7q-72 0 -113.5 41.5t-41.5 116.5v20q0 75 41.5 116.5t113.5 41.5q59 0 98 -28.5t52 -82.5h-85q-10 20 -26.5 29t-38.5 9q-34 0 -54 -21.5t-20 -63.5v-20q0 -42 20 -63.5t54 -21.5q24 0 41.5 11.5t25.5 35.5h83q-10 -57 -49 -88.5
t-101 -31.5zM153 372q-56 0 -84.5 26.5t-28.5 71.5q0 49 34.5 77.5t121.5 28.5h57v14q0 30 -13 43t-45 13q-29 0 -42 -10.5t-17 -26.5h-78q4 43 37 71t100 28q69 0 102 -30.5t33 -87.5v-210h-61l-8 48q-34 -56 -108 -56zM167 434q40 0 63 23t23 58v9h-58q-42 0 -58 -12
t-16 -34q0 -23 12.5 -33.5t33.5 -10.5z" />
    <glyph glyph-name="uni2101" unicode="&#x2101;" horiz-adv-x="850" 
d="M604 700h96l-404 -700h-96zM656 -7q-69 0 -100 27.5t-35 75.5h79q3 -20 15 -29.5t41 -9.5q32 0 44 9.5t12 27.5q0 16 -14 24t-34.5 13t-45 10t-45 15t-34.5 27t-14 48q0 45 31 71.5t100 26.5q64 0 94.5 -27t35.5 -72h-79q-4 17 -15 26t-36 9q-29 0 -40.5 -9t-11.5 -23
q0 -13 14 -19.5t34.5 -11t45 -10t45 -16.5t34.5 -30t14 -50q0 -48 -31.5 -75.5t-103.5 -27.5zM153 372q-56 0 -84.5 26.5t-28.5 71.5q0 49 34.5 77.5t121.5 28.5h57v14q0 30 -13 43t-45 13q-29 0 -42 -10.5t-17 -26.5h-78q4 43 37 71t100 28q69 0 102 -30.5t33 -87.5v-210
h-61l-8 48q-34 -56 -108 -56zM167 434q40 0 63 23t23 58v9h-58q-42 0 -58 -12t-16 -34q0 -23 12.5 -33.5t33.5 -10.5z" />
    <glyph glyph-name="uni2105" unicode="&#x2105;" horiz-adv-x="850" 
d="M579 700h96l-404 -700h-96zM195 372q-72 0 -113.5 41.5t-41.5 116.5v20q0 75 41.5 116.5t113.5 41.5q59 0 98 -28.5t52 -82.5h-85q-10 20 -26.5 29t-38.5 9q-34 0 -54 -21.5t-20 -63.5v-20q0 -42 20 -63.5t54 -21.5q24 0 41.5 11.5t25.5 35.5h83q-10 -57 -49 -88.5
t-101 -31.5zM655 -7q-71 0 -113 41.5t-42 111.5v30q0 70 42 111.5t113 41.5q72 0 113.5 -41.5t41.5 -111.5v-30q0 -70 -41.5 -111.5t-113.5 -41.5zM655 67q35 0 55 20.5t20 58.5v30q0 38 -20 58.5t-55 20.5t-55 -20.5t-20 -58.5v-30q0 -38 20 -58.5t55 -20.5z" />
    <glyph glyph-name="uni2106" unicode="&#x2106;" horiz-adv-x="870" 
d="M579 700h96l-404 -700h-96zM195 372q-72 0 -113.5 41.5t-41.5 116.5v20q0 75 41.5 116.5t113.5 41.5q59 0 98 -28.5t52 -82.5h-85q-10 20 -26.5 29t-38.5 9q-34 0 -54 -21.5t-20 -63.5v-20q0 -42 20 -63.5t54 -21.5q24 0 41.5 11.5t25.5 35.5h83q-10 -57 -49 -88.5
t-101 -31.5zM663 -7q-57 0 -90 36.5t-33 111.5v180h77v-180q0 -39 16.5 -57t46.5 -18q35 0 54 19.5t19 55.5v180h77v-320h-61l-7 43q-17 -26 -42 -38.5t-57 -12.5z" />
    <glyph glyph-name="uni2113" unicode="&#x2113;" horiz-adv-x="390" 
d="M243 0q-71 0 -108.5 37.5t-37.5 109.5v49q-17 -14 -34.5 -26t-34.5 -23v108q17 13 34.5 26t34.5 27v267q0 63 35 98t98 35q58 0 95 -34t37 -99q0 -38 -13.5 -77t-37.5 -78t-56 -76.5t-69 -72.5v-114q0 -75 70 -75h74v-82h-87zM186 395q39 45 63 90.5t24 88.5q0 50 -43 50
q-44 0 -44 -50v-179z" />
    <glyph glyph-name="uni2116" unicode="&#x2116;" horiz-adv-x="1070" 
d="M738 336h294v-72h-294v72zM80 700h138l316 -576h2v576h94v-700h-130l-324 590h-2v-590h-94v700zM885 372q-71 0 -113 41.5t-42 111.5v30q0 70 42 111.5t113 41.5q72 0 113.5 -41.5t41.5 -111.5v-30q0 -70 -41.5 -111.5t-113.5 -41.5zM885 446q35 0 55 20.5t20 58.5v30
q0 38 -20 58.5t-55 20.5t-55 -20.5t-20 -58.5v-30q0 -38 20 -58.5t55 -20.5z" />
    <glyph glyph-name="uni2117" unicode="&#x2117;" horiz-adv-x="850" 
d="M425 -8q-76 0 -141.5 28t-114 76t-76.5 113.5t-28 140.5q0 74 28 139.5t77 114t114.5 76.5t140.5 28t141 -28t114.5 -76t76.5 -113.5t28 -140.5q0 -74 -28.5 -139.5t-77 -114t-114 -76.5t-140.5 -28zM426 68q59 0 109.5 21.5t88 59.5t59 89.5t21.5 111.5t-21.5 111.5
t-59.5 89.5t-89 59.5t-109 21.5q-59 0 -109.5 -21.5t-88.5 -59.5t-59.5 -89.5t-21.5 -111.5t21.5 -111.5t59.5 -89.5t89 -59.5t110 -21.5zM304 549h132q80 0 116 -32.5t36 -93.5q0 -60 -37 -93.5t-115 -33.5h-56v-145h-76v398zM380 481v-117h56q41 0 56.5 14t15.5 45
q0 30 -15.5 44t-56.5 14h-56z" />
    <glyph glyph-name="uni2120" unicode="&#x2120;" horiz-adv-x="850" 
d="M187 292q-80 0 -116.5 33.5t-40.5 99.5h81q4 -33 19.5 -46.5t56.5 -13.5q45 0 60.5 11.5t15.5 34.5q0 22 -16.5 34t-41.5 19.5t-53.5 14.5t-53.5 20.5t-41.5 36.5t-16.5 63q0 48 35.5 78.5t111.5 30.5q72 0 107 -32t39 -87h-80q-4 23 -18 34.5t-48 11.5q-38 0 -52 -11
t-14 -30q0 -21 16.5 -31.5t41.5 -18t53.5 -15t53.5 -21.5t41.5 -38t16.5 -64q0 -51 -36.5 -82.5t-120.5 -31.5zM423 700h100l99 -209l103 209h95v-400h-77v300l-15 -37l-68 -146h-76l-68 146l-16 39v-302h-77v400z" />
    <glyph glyph-name="trademark" unicode="&#x2122;" horiz-adv-x="850" 
d="M158 631h-128v69h332v-69h-127v-331h-77v331zM423 700h100l99 -209l103 209h95v-400h-77v300l-15 -37l-68 -146h-76l-68 146l-16 39v-302h-77v400z" />
    <glyph glyph-name="estimated" unicode="&#x212e;" horiz-adv-x="600" 
d="M300 -8q-53 0 -100 20.5t-82 55.5t-55.5 82t-20.5 100t20.5 100t55.5 82t82 55.5t100 20.5t100 -20.5t82 -55.5t55.5 -82t20.5 -100q0 -8 -0.5 -14.5t-0.5 -7.5h-394v-146q28 -23 63 -36t74 -13q65 0 116 30.5t80 86.5h49q-17 -38 -43 -67t-58 -49.5t-69 -31t-75 -10.5z
M300 467q-39 0 -74 -13t-63 -36v-147h274v147q-28 23 -63 36t-74 13z" />
    <glyph glyph-name="uni2150" unicode="&#x2150;" horiz-adv-x="890" 
d="M579 700h96l-404 -700h-96zM148 615l-108 -67v86l108 66h77v-400h-77v315zM767 331h-197v70h280v-70l-144 -330h-90z" />
    <glyph glyph-name="uni2151" unicode="&#x2151;" horiz-adv-x="880" 
d="M579 700h96l-404 -700h-96zM148 615l-108 -67v86l108 66h77v-400h-77v315zM685.012 408.018q71.9951 0 113.493 -43.4971q41.4971 -43.4971 41.4971 -130.492v-37.9971q0 -51.9971 -11.499 -90.4951q-11.499 -38.4971 -31.998 -63.9961
q-20.499 -25.498 -48.9971 -37.4971q-28.498 -12 -62.4961 -12q-59.9961 0 -93.4941 30.498t-41.498 78.4951h76.9961q4.99902 -16.999 19.998 -29.498t42.998 -12.499q30.998 0 52.4961 22.499q21.499 22.498 25.499 81.4951q-31.998 -34.998 -84.9951 -34.998
q-65.9961 0 -104.493 36.9971q-38.498 36.998 -38.498 96.9941v10q0 61.9961 38.498 98.9941q38.4971 36.9971 106.493 36.9971zM759.007 272.026q0 31.998 -17.999 49.9971q-17.998 17.998 -55.9961 17.998q-29.998 0 -46.9971 -17.998q-16.999 -17.999 -16.999 -49.9971
v-10q0 -66.9951 68.9961 -66.9951q68.9951 0 68.9951 66.9951v10z" />
    <glyph glyph-name="uni2152" unicode="&#x2152;" horiz-adv-x="1150" 
d="M574 700h96l-404 -700h-96zM653 316l-108 -67v86l108 66h77v-400h-77v315zM148 615l-108 -67v86l108 66h77v-400h-77v315zM955 -7q-69 0 -112 47t-43 142v38q0 95 43 142t112 47t112 -47t43 -142v-38q0 -95 -43 -142t-112 -47zM955 66q32 0 53 26t21 90v38q0 64 -21 90
t-53 26t-53 -26t-21 -90v-38q0 -64 21 -90t53 -26z" />
    <glyph glyph-name="onethird" unicode="&#x2153;" horiz-adv-x="890" 
d="M579 700h96l-404 -700h-96zM148 615l-108 -67v86l108 66h77v-400h-77v315zM695 -7q-75 0 -113.5 35t-41.5 98h81q3 -29 20.5 -44.5t53.5 -15.5q39 0 56.5 15t17.5 38t-17.5 38t-56.5 15h-53v68h53q34 0 49 13.5t15 34.5q0 22 -15 35t-49 13q-32 0 -46.5 -12.5
t-17.5 -38.5h-81q3 57 38 90.5t107 33.5t108.5 -33t36.5 -82q0 -26 -12.5 -47.5t-38.5 -35.5q31 -15 46 -40.5t15 -57.5q0 -53 -38 -86.5t-117 -33.5z" />
    <glyph glyph-name="twothirds" unicode="&#x2154;" horiz-adv-x="960" 
d="M649 700h96l-404 -700h-96zM40 370l133 110q26 21 41 36t23 26.5t10 21.5t2 21q0 23 -15 36.5t-49 13.5t-49 -13.5t-15 -37.5h-81q0 58 35.5 91t109.5 33t109.5 -33t35.5 -90q0 -20 -5.5 -38t-17.5 -36.5t-31.5 -38t-48.5 -42.5l-74 -60h177v-70h-290v70zM765 -7
q-75 0 -113.5 35t-41.5 98h81q3 -29 20.5 -44.5t53.5 -15.5q39 0 56.5 15t17.5 38t-17.5 38t-56.5 15h-53v68h53q34 0 49 13.5t15 34.5q0 22 -15 35t-49 13q-32 0 -46.5 -12.5t-17.5 -38.5h-81q3 57 38 90.5t107 33.5t108.5 -33t36.5 -82q0 -26 -12.5 -47.5t-38.5 -35.5
q31 -15 46 -40.5t15 -57.5q0 -53 -38 -86.5t-117 -33.5z" />
    <glyph glyph-name="uni2155" unicode="&#x2155;" horiz-adv-x="900" 
d="M579 700h96l-404 -700h-96zM148 615l-108 -67v86l108 66h77v-400h-77v315zM707 -7q-60 0 -101 32t-51 86h86q4 -17 20.5 -31t45.5 -14q33 0 52.5 19t19.5 51t-19.5 51t-52.5 19q-40 0 -66 -27h-76l15 222h253v-69h-182l-6 -81q31 27 83 27q27 0 51 -10.5t42 -29.5
t28.5 -45t10.5 -57t-11 -57.5t-31 -45.5t-48 -29.5t-63 -10.5z" />
    <glyph glyph-name="uni2156" unicode="&#x2156;" horiz-adv-x="970" 
d="M649 700h96l-404 -700h-96zM40 370l133 110q26 21 41 36t23 26.5t10 21.5t2 21q0 23 -15 36.5t-49 13.5t-49 -13.5t-15 -37.5h-81q0 58 35.5 91t109.5 33t109.5 -33t35.5 -90q0 -20 -5.5 -38t-17.5 -36.5t-31.5 -38t-48.5 -42.5l-74 -60h177v-70h-290v70zM777 -7
q-60 0 -101 32t-51 86h86q4 -17 20.5 -31t45.5 -14q33 0 52.5 19t19.5 51t-19.5 51t-52.5 19q-40 0 -66 -27h-76l15 222h253v-69h-182l-6 -81q31 27 83 27q27 0 51 -10.5t42 -29.5t28.5 -45t10.5 -57t-11 -57.5t-31 -45.5t-48 -29.5t-63 -10.5z" />
    <glyph glyph-name="uni2157" unicode="&#x2157;" horiz-adv-x="950" 
d="M629 700h96l-404 -700h-96zM757 -7q-60 0 -101 32t-51 86h86q4 -17 20.5 -31t45.5 -14q33 0 52.5 19t19.5 51t-19.5 51t-52.5 19q-40 0 -66 -27h-76l15 222h253v-69h-182l-6 -81q31 27 83 27q27 0 51 -10.5t42 -29.5t28.5 -45t10.5 -57t-11 -57.5t-31 -45.5t-48 -29.5
t-63 -10.5zM195 292q-75 0 -113.5 35t-41.5 98h81q3 -29 20.5 -44.5t53.5 -15.5q39 0 56.5 15t17.5 38t-17.5 38t-56.5 15h-53v68h53q34 0 49 13.5t15 34.5q0 22 -15 35t-49 13q-32 0 -46.5 -12.5t-17.5 -38.5h-81q3 57 38 90.5t107 33.5t108.5 -33t36.5 -82
q0 -26 -12.5 -47.5t-38.5 -35.5q31 -15 46 -40.5t15 -57.5q0 -53 -38 -86.5t-117 -33.5z" />
    <glyph glyph-name="uni2158" unicode="&#x2158;" horiz-adv-x="970" 
d="M649 700h96l-404 -700h-96zM777 -7q-60 0 -101 32t-51 86h86q4 -17 20.5 -31t45.5 -14q33 0 52.5 19t19.5 51t-19.5 51t-52.5 19q-40 0 -66 -27h-76l15 222h253v-69h-182l-6 -81q31 27 83 27q27 0 51 -10.5t42 -29.5t28.5 -45t10.5 -57t-11 -57.5t-31 -45.5t-48 -29.5
t-63 -10.5zM237 380h-197v69l166 251h107v-251h47v-69h-47v-80h-76v80zM237 449v175l-115 -175h115z" />
    <glyph glyph-name="uni2159" unicode="&#x2159;" horiz-adv-x="880" 
d="M579 700h96l-404 -700h-96zM148 615l-108 -67v86l108 66h77v-400h-77v315zM695 -7q-72 0 -113.5 43.5t-41.5 130.5v38q0 52 11.5 90.5t32 64t49 37.5t62.5 12q60 0 93.5 -30.5t41.5 -78.5h-77q-5 17 -20 29.5t-43 12.5q-31 0 -52.5 -22.5t-25.5 -81.5q32 35 85 35
q66 0 104.5 -37t38.5 -97v-10q0 -62 -38.5 -99t-106.5 -37zM621 129q0 -32 18 -50t56 -18q30 0 47 18t17 50v10q0 67 -69 67t-69 -67v-10z" />
    <glyph glyph-name="uni215A" unicode="&#x215a;" horiz-adv-x="930" 
d="M629 700h96l-404 -700h-96zM745 -7q-72 0 -113.5 43.5t-41.5 130.5v38q0 52 11.5 90.5t32 64t49 37.5t62.5 12q60 0 93.5 -30.5t41.5 -78.5h-77q-5 17 -20 29.5t-43 12.5q-31 0 -52.5 -22.5t-25.5 -81.5q32 35 85 35q66 0 104.5 -37t38.5 -97v-10q0 -62 -38.5 -99
t-106.5 -37zM671 129q0 -32 18 -50t56 -18q30 0 47 18t17 50v10q0 67 -69 67t-69 -67v-10zM192 292q-60 0 -101 32t-51 86h86q4 -17 20.5 -31t45.5 -14q33 0 52.5 19t19.5 51t-19.5 51t-52.5 19q-40 0 -66 -27h-76l15 222h253v-69h-182l-6 -81q31 27 83 27q27 0 51 -10.5
t42 -29.5t28.5 -45t10.5 -57t-11 -57.5t-31 -45.5t-48 -29.5t-63 -10.5z" />
    <glyph glyph-name="oneeighth" unicode="&#x215b;" horiz-adv-x="890" 
d="M579 700h96l-404 -700h-96zM148 615l-108 -67v86l108 66h77v-400h-77v315zM695 -7q-77 0 -116 34t-39 84q0 34 16.5 59.5t51.5 41.5q-28 14 -40.5 37t-12.5 52q0 22 9 41.5t27 34.5t44 23.5t60 8.5t60 -8.5t44 -23.5t27 -34.5t9 -41.5q0 -29 -12.5 -52t-40.5 -37
q35 -16 51.5 -41.5t16.5 -59.5q0 -50 -39 -84t-116 -34zM695 242q30 4 45 18t15 33q0 20 -15 33t-45 13q-31 0 -45.5 -13t-14.5 -33q0 -19 15.5 -33t44.5 -18zM695 63q38 0 56 16t18 39q0 24 -18 40.5t-56 20.5q-38 -4 -56 -20.5t-18 -40.5q0 -23 18 -39t56 -16z" />
    </font>
</defs>
</svg>
